{"glyphs":{"0":{"ha":913,"x_min":111,"x_max":1083,"o":"m 190 1 q 111 151 111 49 q 115 203 111 179 l 243 928 q 585 1153 285 1153 l 729 1153 q 976 1060 917 1153 l 1038 999 q 1083 874 1083 953 q 1079 824 1083 846 l 1079 822 l 953 103 q 614 -121 913 -121 l 469 -121 q 246 -54 310 -121 l 190 1 m 958 914 q 963 958 963 936 q 729 1113 963 1113 l 585 1113 q 283 918 317 1113 l 156 194 q 151 151 151 171 q 385 0 151 0 l 529 0 q 832 194 796 0 l 958 914 m 565 206 q 488 160 557 160 q 424 196 424 160 q 424 201 424 199 q 425 206 425 203 l 549 904 q 628 950 557 950 q 690 914 690 950 q 690 909 690 911 q 689 904 689 907 l 565 206 z "},"1":{"ha":738,"x_min":85,"x_max":836,"o":"m 756 1143 l 836 1063 l 683 200 l 693 200 l 692 192 l 772 111 l 732 -121 l 175 -121 l 94 -40 l 85 -40 l 126 200 l 236 200 l 326 713 l 321 713 l 240 793 l 231 793 l 267 990 q 478 1151 449 990 l 757 1151 l 756 1143 m 540 160 l 708 1111 l 513 1111 q 301 950 483 950 l 281 833 l 390 833 l 271 160 l 161 160 l 133 0 l 617 0 l 644 160 l 540 160 z "},"2":{"ha":868,"x_min":72,"x_max":1038,"o":"m 539 746 l 553 751 q 608 801 601 765 l 613 826 q 550 797 554 819 l 539 746 m 583 308 q 508 269 538 293 q 571 240 539 263 q 607 221 597 221 q 613 247 610 233 l 626 324 l 583 308 m 82 -40 l 72 -40 l 140 347 q 296 638 178 540 l 224 711 l 214 711 l 254 929 q 635 1151 294 1151 q 933 1044 868 1151 l 992 988 q 1038 869 1038 942 q 1032 826 1038 850 l 1033 826 l 1001 642 q 821 407 974 492 l 867 407 l 865 399 l 946 318 l 914 133 q 693 -121 869 -121 q 449 -68 532 -121 q 418 -58 433 -58 q 340 -121 386 -58 l 163 -121 l 82 -40 m 676 367 l 653 239 q 607 181 642 181 q 546 208 582 181 q 472 233 513 233 q 314 160 401 233 l 331 249 q 492 429 354 389 l 642 488 q 881 733 851 568 l 913 917 q 917 954 917 938 q 635 1111 917 1111 q 294 921 328 1111 l 264 751 l 404 751 l 429 889 q 560 949 439 949 q 667 899 667 949 q 666 894 667 896 q 665 889 665 892 l 649 792 q 567 713 638 735 l 436 667 q 181 340 233 603 l 121 0 l 238 0 q 333 63 283 63 q 383 47 360 63 q 608 0 460 0 q 793 225 753 0 l 818 367 l 676 367 z "},"3":{"ha":854,"x_min":111,"x_max":1026,"o":"m 515 671 l 540 671 q 597 801 574 671 l 601 826 q 539 797 543 819 l 515 671 m 433 203 q 496 229 490 207 l 514 328 q 517 344 515 336 q 519 360 518 353 l 438 360 l 357 440 l 347 440 l 381 631 l 293 631 l 213 711 l 203 711 l 243 929 q 624 1151 283 1151 q 922 1044 857 1151 l 976 990 l 972 994 l 981 988 q 1026 869 1026 942 q 1021 826 1026 850 l 1022 826 l 990 642 q 879 469 969 522 l 890 458 q 932 339 932 417 q 928 288 932 313 l 896 103 q 513 -121 856 -121 q 246 -47 319 -121 l 188 10 q 111 156 111 60 q 111 169 111 163 q 113 186 111 176 l 111 185 l 150 400 l 375 400 l 374 392 l 454 311 l 433 203 m 422 631 l 396 481 l 514 481 q 563 400 563 481 q 554 319 563 365 l 536 222 q 410 163 526 163 q 299 213 299 163 q 299 217 299 215 q 300 222 300 219 l 325 360 l 185 360 l 154 190 q 151 172 151 181 q 151 156 151 164 q 428 0 151 0 q 775 194 739 0 l 807 378 q 811 424 811 403 q 688 556 811 536 q 869 733 843 582 l 901 917 q 906 954 906 938 q 624 1111 906 1111 q 283 921 317 1111 l 253 751 l 393 751 l 418 889 q 547 949 428 949 q 656 899 656 949 q 655 894 656 896 q 654 889 654 892 l 638 792 q 540 631 608 631 l 422 631 z "},"4":{"ha":936,"x_min":128,"x_max":1136,"o":"m 138 268 l 128 268 l 167 497 l 736 1151 l 1057 1151 l 1056 1143 l 1136 1063 l 1096 829 l 1024 829 l 961 481 l 1025 418 l 985 188 l 910 188 l 907 171 l 968 111 l 928 -121 l 443 -121 l 363 -40 l 353 -40 l 392 188 l 218 188 l 138 268 m 822 467 l 908 950 l 981 950 l 1008 1111 l 754 1111 l 206 479 l 176 308 l 526 308 l 500 160 l 429 160 l 401 0 l 813 0 l 840 160 l 768 160 l 794 308 l 869 308 l 897 467 l 822 467 m 332 467 l 611 789 l 554 467 l 332 467 z "},"5":{"ha":860,"x_min":122,"x_max":1065,"o":"m 435 204 q 504 261 496 213 l 533 428 q 456 360 485 413 l 417 360 l 458 318 l 435 204 m 211 14 q 122 197 122 72 q 123 225 122 211 q 128 257 124 239 l 126 257 l 154 407 l 200 407 l 167 440 l 157 440 l 282 1151 l 479 1151 q 715 1100 607 1100 q 986 1186 822 1100 l 983 1174 l 1065 1093 l 1033 921 q 738 751 897 751 q 543 804 639 751 l 526 719 q 546 721 538 721 q 567 721 556 721 l 581 721 q 833 619 769 719 l 892 561 q 946 410 946 507 q 944 373 946 390 q 939 338 942 356 l 899 103 q 529 -121 858 -121 q 268 -43 346 -121 l 211 14 m 329 367 l 189 367 l 168 254 q 163 197 163 226 q 444 0 163 0 q 778 194 742 0 l 818 429 q 825 494 825 468 q 581 681 825 678 l 567 681 q 463 672 508 681 q 378 649 417 664 l 432 950 q 653 872 547 872 q 914 1019 796 872 l 931 1111 q 715 1060 832 1060 q 471 1111 599 1060 l 317 1111 l 206 481 l 349 481 q 490 556 390 556 q 582 478 582 556 q 581 464 582 471 q 579 449 581 457 l 544 256 q 410 163 531 163 q 307 236 307 163 q 307 244 307 240 q 308 256 307 250 l 329 367 z "},"6":{"ha":881,"x_min":111,"x_max":1051,"o":"m 728 828 q 643 811 646 826 l 624 713 l 636 713 q 681 710 660 713 q 721 706 701 708 l 717 711 l 707 711 l 728 828 m 189 11 q 111 157 111 60 q 112 178 111 167 q 115 200 113 189 l 242 924 q 646 1151 283 1151 q 947 1044 882 1151 l 1006 988 q 1051 869 1051 942 q 1051 848 1051 857 q 1049 831 1050 839 l 1013 631 l 867 631 q 870 626 869 628 q 872 621 871 624 l 933 561 q 976 446 976 518 q 976 424 976 433 q 974 404 975 414 l 921 103 q 524 -121 881 -121 q 246 -44 322 -121 l 189 11 m 757 751 l 897 751 l 928 921 q 930 938 929 929 q 931 954 931 946 q 646 1111 931 1111 q 282 917 318 1111 l 156 194 q 151 157 151 175 q 439 0 151 0 q 800 194 764 0 l 853 494 q 855 513 854 504 q 856 531 856 522 q 636 672 856 672 q 474 631 519 672 l 522 903 q 665 949 528 949 q 785 907 785 949 l 785 903 l 757 751 m 536 522 q 619 479 619 522 l 619 472 l 572 208 q 485 163 565 163 q 399 203 399 163 l 399 208 l 446 472 q 536 522 454 522 z "},"7":{"ha":872,"x_min":207,"x_max":1081,"o":"m 544 800 l 540 781 l 521 669 l 626 767 q 589 789 604 775 q 544 800 561 810 m 238 -40 l 228 -40 l 282 269 q 469 624 315 467 l 297 624 l 217 704 l 207 704 l 239 892 q 463 1151 282 1151 q 708 1097 621 1151 l 707 1097 q 739 1086 726 1086 q 815 1151 769 1086 l 1001 1151 l 1000 1143 l 1081 1063 l 1049 888 q 990 685 1029 771 q 889 538 951 599 l 818 474 q 703 181 740 404 l 649 -121 l 318 -121 l 238 -40 m 397 744 l 419 872 q 465 931 429 931 q 526 903 490 931 q 608 878 560 878 q 807 951 690 878 q 693 775 789 851 l 544 638 q 395 463 449 557 q 322 260 342 368 l 276 0 l 533 0 l 582 272 q 710 585 622 506 l 779 649 q 928 979 892 757 l 951 1111 l 835 1111 q 739 1046 789 1046 q 686 1063 713 1046 q 463 1111 608 1111 q 279 886 317 1111 l 256 744 l 397 744 z "},"8":{"ha":835,"x_min":111,"x_max":1008,"o":"m 496 346 q 482 335 482 342 l 458 203 q 474 213 472 207 l 496 346 m 658 822 q 644 811 644 818 l 619 679 q 636 689 633 681 l 658 822 m 190 1 q 111 151 111 49 q 115 203 111 179 l 151 408 q 235 560 168 506 q 201 669 201 606 q 206 721 201 697 l 242 925 q 585 1151 282 1151 l 704 1151 q 901 1071 849 1151 l 964 1008 q 1008 881 1008 964 q 1007 849 1008 861 q 1003 821 1006 836 l 967 622 q 879 465 947 519 q 915 354 915 422 q 911 303 915 325 l 876 103 q 589 -121 836 -121 l 469 -121 q 246 -54 310 -121 l 190 1 m 882 913 q 886 940 885 928 q 888 965 888 953 q 704 1111 888 1111 l 585 1111 q 282 917 318 1111 l 246 713 q 242 669 242 689 q 303 554 242 589 q 192 399 211 511 l 156 194 q 151 151 151 171 q 385 0 151 0 l 504 0 q 756 194 719 0 l 790 394 q 794 439 794 417 q 732 554 794 518 q 846 713 826 601 l 882 913 m 514 206 q 415 160 506 160 q 322 199 322 160 l 322 206 l 361 426 q 471 472 369 472 q 554 433 554 472 q 553 430 554 431 q 553 426 553 429 l 514 206 m 676 682 q 576 636 668 636 q 485 675 485 636 l 485 682 l 524 903 q 631 949 529 949 q 715 908 715 949 l 715 903 l 676 682 z "},"9":{"ha":881,"x_min":111,"x_max":1051,"o":"m 432 203 q 519 214 517 203 l 538 318 q 485 319 510 318 q 439 325 460 321 l 454 311 l 432 203 m 186 13 q 111 157 111 63 q 112 178 111 169 q 114 196 113 188 l 150 400 l 301 400 l 261 439 q 186 583 186 485 q 187 604 186 594 q 189 622 188 614 l 242 925 q 643 1151 282 1151 q 947 1043 885 1151 l 1001 989 l 997 993 l 1006 986 q 1051 869 1051 940 q 1046 826 1051 847 l 1047 826 l 921 103 q 521 -121 881 -121 q 246 -46 321 -121 l 186 13 m 325 360 l 185 360 l 154 190 q 152 174 153 182 q 151 157 151 165 q 436 0 151 0 q 800 194 764 0 l 926 917 q 931 954 931 935 q 643 1111 931 1111 q 282 917 318 1111 l 229 617 q 227 599 228 608 q 226 583 226 590 q 454 439 226 439 q 608 481 560 439 l 560 208 q 422 163 553 163 q 297 204 297 163 l 297 208 l 325 360 m 550 589 q 476 632 476 589 l 476 639 l 524 903 q 611 949 529 949 q 683 910 683 949 l 683 903 l 636 639 q 550 589 628 589 z "}," ":{"ha":382,"x_min":0,"x_max":0,"o":""},"!":{"ha":533,"x_min":121,"x_max":711,"o":"m 133 154 q 238 282 153 265 l 215 638 l 306 1151 l 632 1151 l 631 1143 l 711 1063 l 619 542 l 478 200 l 507 171 q 532 96 532 146 q 531 77 532 85 q 529 61 531 69 l 519 0 q 388 -122 497 -122 l 314 -122 q 235 -96 261 -122 l 169 -31 q 121 63 121 -7 q 122 78 121 72 q 124 92 122 85 l 124 96 l 133 154 m 276 314 l 367 314 l 499 633 l 583 1111 l 340 1111 l 256 632 l 276 314 m 164 92 q 162 76 163 83 q 161 63 161 69 q 229 -1 161 -1 l 303 -1 q 399 92 382 -1 l 408 151 q 410 167 410 160 q 411 181 411 174 q 346 244 411 244 l 271 244 q 174 149 190 244 l 164 92 z "},"\"":{"ha":567,"x_min":269,"x_max":758,"o":"m 676 1143 l 758 1063 l 654 696 q 586 647 638 647 q 539 663 553 647 l 492 710 l 488 696 q 419 647 471 647 q 374 663 389 647 l 303 733 q 269 793 269 746 l 293 1151 l 679 1151 l 676 1143 m 626 1111 l 497 1111 l 475 792 q 501 768 475 768 q 536 792 528 768 l 626 1111 m 461 1111 l 331 1111 l 310 792 q 335 768 310 768 q 369 792 361 768 l 461 1111 z "},"#":{"ha":829,"x_min":119,"x_max":985,"o":"m 136 119 l 125 119 l 192 275 l 131 338 l 119 338 l 192 507 l 289 507 l 301 538 l 240 601 l 229 601 l 304 771 l 401 771 l 494 990 l 664 990 l 660 982 l 711 931 l 738 990 l 907 990 l 903 982 l 985 901 l 918 746 l 983 682 l 913 521 l 824 521 l 807 481 l 869 418 l 801 257 l 713 257 l 619 39 l 460 39 l 401 97 l 376 39 l 217 39 l 136 119 m 522 378 l 429 160 l 511 160 l 604 378 l 693 378 l 731 467 l 640 467 l 715 642 l 804 642 l 843 731 l 753 731 l 846 950 l 764 950 l 671 731 l 510 731 l 603 950 l 521 950 l 429 731 l 331 731 l 292 642 l 390 642 l 317 467 l 218 467 l 181 378 l 279 378 l 186 160 l 268 160 l 361 378 l 522 378 m 399 467 l 472 642 l 633 642 l 558 467 l 399 467 z "},"$":{"ha":913,"x_min":131,"x_max":1057,"o":"m 732 657 q 878 575 842 640 l 939 515 q 981 400 981 474 q 979 378 981 390 q 975 353 978 367 l 976 353 l 943 160 q 656 -64 903 -64 l 606 -64 l 596 -121 l 482 -121 l 425 -64 l 419 -64 q 264 -14 314 -64 l 204 46 q 131 199 131 89 q 131 226 131 211 q 136 258 132 240 l 135 258 l 156 374 l 464 374 l 464 375 q 338 429 376 388 l 275 490 q 207 631 207 536 q 207 646 207 638 q 210 665 207 656 l 208 664 l 244 869 q 535 1097 286 1097 l 592 1097 l 601 1151 l 726 1151 l 725 1143 l 771 1097 l 772 1097 q 951 1018 906 1097 l 1008 961 l 1007 961 l 1007 963 l 1013 958 q 1057 831 1057 914 q 1056 803 1057 818 q 1050 768 1054 788 l 1051 767 l 1032 660 l 733 660 l 732 657 m 450 57 l 440 0 l 481 0 l 490 57 l 571 57 q 822 251 786 57 l 856 443 q 860 485 860 464 q 688 621 860 613 l 603 621 l 590 622 l 638 893 q 699 856 699 889 l 699 849 l 686 781 l 917 781 l 931 858 q 935 888 933 874 q 936 915 936 903 q 772 1057 936 1057 l 667 1057 l 676 1111 l 636 1111 l 626 1057 l 535 1057 q 285 863 321 1057 l 251 671 q 247 631 247 650 q 421 493 247 501 l 506 493 q 515 492 506 492 q 526 490 525 492 l 479 219 q 408 257 408 222 q 409 261 408 260 q 410 265 410 263 l 421 333 l 190 333 l 176 256 q 172 226 174 240 q 171 199 171 211 q 335 57 171 57 l 450 57 m 526 849 q 597 893 532 886 l 551 631 q 499 683 499 647 l 499 692 l 526 849 m 582 265 q 519 221 575 229 l 565 479 q 611 431 611 463 q 610 426 611 428 q 610 422 610 425 l 582 265 z "},"%":{"ha":1097,"x_min":115,"x_max":1278,"o":"m 1201 1151 l 1196 1144 l 1278 1063 l 869 535 l 929 535 q 1060 478 1033 535 l 1126 413 q 1151 342 1151 388 q 1151 331 1151 336 q 1149 315 1151 325 l 1150 315 l 1094 -4 q 925 -121 1075 -121 l 849 -121 q 735 -86 769 -121 l 671 -22 q 621 68 621 4 q 621 75 621 71 q 622 89 621 81 l 621 89 l 649 247 l 365 -121 l 208 -121 l 128 -40 l 115 -40 l 529 497 l 446 497 q 332 532 367 497 l 268 596 q 218 686 218 619 q 218 693 218 689 q 219 707 218 699 l 218 707 l 276 1036 q 450 1153 297 1153 l 526 1153 q 658 1094 629 1153 l 717 1036 q 720 1032 719 1033 q 724 1029 721 1031 q 750 957 750 1003 q 750 947 750 953 q 747 933 750 943 l 749 932 l 713 733 l 1035 1151 l 1201 1151 m 628 1024 q 629 1042 629 1031 q 526 1113 629 1113 l 450 1113 q 317 1026 332 1113 l 260 704 q 258 686 258 697 q 361 618 258 618 l 438 618 q 571 704 556 618 l 628 1024 m 1029 406 q 1031 426 1031 413 q 929 494 1031 494 l 853 494 q 719 408 735 494 l 663 86 q 661 68 661 79 q 764 0 661 0 l 840 0 q 974 86 958 0 l 1029 406 m 1054 1111 l 197 0 l 263 0 l 1119 1111 l 1054 1111 m 454 710 q 413 689 450 689 q 379 706 379 689 l 379 710 l 433 1019 q 475 1040 438 1040 q 508 1024 508 1040 l 508 1019 l 454 710 m 857 92 q 815 71 853 71 q 782 88 782 71 l 782 92 l 836 401 q 878 422 840 422 q 911 406 911 422 l 911 401 l 857 92 z "},"&":{"ha":1092,"x_min":99,"x_max":1178,"o":"m 1022 742 q 996 671 1015 704 l 1090 671 l 1089 663 l 1169 582 l 1131 364 l 1178 318 l 1140 103 q 849 -121 1100 -121 q 722 -107 774 -121 q 636 -65 671 -93 q 514 -121 564 -121 l 311 -121 q 217 -90 247 -121 l 151 -25 q 99 82 99 1 q 99 102 99 93 q 101 119 100 111 l 150 394 q 249 528 164 474 l 249 526 l 407 640 l 392 740 q 385 779 386 760 q 383 817 383 799 q 388 874 383 850 l 408 993 q 625 1151 435 1151 l 836 1151 q 965 1093 935 1151 l 1029 1029 q 1057 954 1057 1001 q 1056 938 1057 943 q 1054 926 1056 933 l 1022 742 m 764 0 q 1019 194 983 0 l 1050 367 l 910 367 l 881 208 q 831 163 874 163 q 779 211 790 163 l 776 240 q 900 481 857 338 l 1015 481 l 1042 631 l 832 631 l 818 549 q 754 417 800 460 l 725 618 q 901 833 883 732 l 933 1017 q 935 1028 935 1024 q 936 1039 936 1033 q 836 1111 936 1111 l 625 1111 q 449 983 468 1111 l 428 865 q 424 817 424 842 q 432 746 424 783 l 450 622 l 269 493 q 190 385 200 449 l 142 114 q 139 97 139 106 q 139 82 139 89 q 226 0 139 0 l 429 0 q 554 68 474 0 q 764 0 604 0 m 433 160 q 399 192 399 160 q 400 210 399 203 l 431 385 q 474 436 435 411 l 514 181 q 433 160 494 160 m 708 925 q 750 950 714 950 l 765 950 q 796 925 796 950 q 795 920 796 922 q 794 915 794 918 l 785 863 q 704 763 781 825 q 699 804 701 785 q 697 840 697 824 q 698 860 697 851 q 700 876 699 868 l 708 925 z "},"'":{"ha":375,"x_min":257,"x_max":581,"o":"m 499 1143 l 581 1063 l 475 696 q 407 647 458 647 q 360 663 375 647 l 289 733 q 257 789 257 746 l 257 793 l 281 1151 l 501 1151 l 499 1143 m 449 1111 l 318 1111 l 297 792 l 297 789 q 322 768 297 768 q 357 792 349 768 l 449 1111 z "},"(":{"ha":493,"x_min":143,"x_max":735,"o":"m 417 -58 l 497 -139 l 474 -274 l 440 -274 q 311 -224 361 -274 l 254 -167 q 150 35 171 -117 q 144 99 146 65 q 143 172 143 133 q 185 593 143 351 q 255 902 217 771 q 342 1119 293 1033 q 452 1248 392 1206 q 588 1290 513 1290 l 615 1290 q 640 1290 626 1290 q 656 1289 653 1289 l 654 1281 l 735 1200 l 710 1071 l 676 1071 q 620 1047 647 1071 q 564 974 593 1022 q 500 807 532 922 q 438 506 468 692 q 400 261 414 367 q 386 81 386 156 l 386 71 q 386 31 386 50 q 389 -6 386 11 l 392 -7 l 392 -8 q 400 -47 393 -28 q 408 -49 404 -49 q 418 -50 413 -49 l 417 -58 m 369 -87 q 271 72 293 -82 q 267 111 268 90 q 265 156 265 132 q 278 343 265 233 q 317 596 292 453 q 381 905 349 785 q 449 1078 414 1025 q 518 1163 483 1133 q 592 1192 553 1192 l 594 1192 l 606 1249 q 596 1249 600 1249 q 588 1250 592 1250 q 370 1088 456 1250 q 225 586 285 925 q 183 172 183 342 q 185 103 183 136 q 190 40 186 71 q 356 -153 215 -153 l 358 -153 l 369 -87 z "},")":{"ha":493,"x_min":32,"x_max":625,"o":"m 294 1296 l 332 1296 q 486 1217 432 1296 l 544 1160 l 543 1160 l 546 1158 q 618 981 601 1103 q 623 922 621 953 q 625 854 625 890 q 581 424 625 675 q 513 117 550 247 q 427 -98 475 -12 q 319 -226 379 -183 q 185 -268 260 -268 q 172 -268 182 -268 q 153 -267 164 -268 q 133 -267 143 -267 q 122 -267 125 -267 l 43 -186 l 32 -186 l 58 -49 l 96 -49 q 201 44 146 -49 q 331 514 269 163 q 367 760 356 654 q 379 942 379 867 q 375 1025 379 988 q 369 1049 372 1038 q 364 1072 367 1061 l 360 1072 l 279 1151 q 269 1153 276 1153 l 294 1296 m 318 1190 q 415 1029 394 1185 q 419 942 419 992 q 408 755 419 863 q 371 507 396 647 q 238 24 308 146 q 96 -89 172 -89 l 93 -89 l 82 -146 q 92 -147 88 -146 q 100 -147 96 -147 q 317 15 232 -147 q 460 515 403 178 q 492 747 481 642 q 504 940 504 851 q 502 1003 504 972 q 497 1061 500 1033 q 332 1256 472 1256 l 329 1256 l 318 1190 z "},"*":{"ha":719,"x_min":190,"x_max":871,"o":"m 725 1043 l 807 963 l 796 944 l 871 869 l 851 607 l 685 633 l 764 486 l 524 379 l 449 454 l 414 410 l 331 492 l 328 488 l 190 696 l 288 746 l 214 819 l 200 825 l 364 1058 l 388 1026 l 449 967 l 461 949 l 488 1111 l 729 1050 l 725 1043 m 540 826 l 665 1025 l 521 1061 l 486 838 l 365 992 l 264 847 l 451 785 l 250 681 l 332 556 l 479 740 l 479 521 l 629 589 l 535 765 l 733 733 l 746 901 l 540 826 z "},"+":{"ha":768,"x_min":139,"x_max":904,"o":"m 651 893 l 732 813 l 706 671 l 825 671 l 824 663 l 904 582 l 865 360 l 653 360 l 613 129 l 401 129 l 321 210 l 311 210 l 338 360 l 229 360 l 149 440 l 139 440 l 179 671 l 392 671 l 432 901 l 653 901 l 651 893 m 604 861 l 467 861 l 426 631 l 214 631 l 188 481 l 400 481 l 360 250 l 497 250 l 538 481 l 750 481 l 776 631 l 564 631 l 604 861 z "},",":{"ha":499,"x_min":111,"x_max":511,"o":"m 114 156 q 251 285 136 285 l 328 285 q 418 236 393 285 l 479 174 l 478 174 l 478 175 l 483 171 q 511 85 511 143 q 507 33 511 58 q 308 -169 471 -169 l 211 -169 l 131 -89 l 121 -89 l 143 39 q 111 122 111 65 q 112 138 111 133 q 114 150 113 143 l 114 156 m 154 149 q 152 135 153 142 q 151 122 151 129 q 231 54 151 54 l 292 54 q 228 0 281 0 l 178 0 l 169 -49 l 224 -49 q 386 125 354 -49 q 390 169 390 150 q 328 244 390 244 l 251 244 q 154 149 171 244 z "},"-":{"ha":667,"x_min":183,"x_max":757,"o":"m 678 671 l 676 663 l 757 582 l 718 360 l 274 360 l 193 440 l 183 440 l 224 671 l 678 671 m 258 631 l 232 481 l 603 481 l 629 631 l 258 631 z "},".":{"ha":517,"x_min":114,"x_max":525,"o":"m 126 154 q 264 285 149 285 l 339 285 q 433 236 411 285 l 500 171 q 525 96 525 146 q 524 77 525 85 q 522 61 524 69 l 513 0 q 381 -122 490 -122 l 306 -122 q 228 -97 253 -122 l 161 -31 q 114 63 114 -8 q 115 78 114 72 q 117 92 115 85 l 117 96 l 126 154 m 157 92 q 155 76 156 83 q 154 63 154 69 q 221 -1 154 -1 l 296 -1 q 392 92 375 -1 l 401 151 q 403 167 403 160 q 404 181 404 174 q 339 244 404 244 l 264 244 q 167 149 183 244 l 157 92 z "},"/":{"ha":668,"x_min":25,"x_max":918,"o":"m 840 1151 l 836 1144 l 918 1063 l 264 -121 l 117 -121 l 36 -40 l 25 -40 l 681 1151 l 840 1151 m 706 1111 l 93 0 l 157 0 l 771 1111 l 706 1111 z "},":":{"ha":521,"x_min":115,"x_max":603,"o":"m 128 154 q 265 285 150 285 l 342 285 q 436 236 414 285 l 503 171 q 528 96 528 146 q 527 77 528 85 q 525 61 526 69 l 515 0 q 383 -122 493 -122 l 308 -122 q 229 -96 256 -122 l 164 -31 q 115 63 115 -7 q 116 78 115 72 q 118 92 117 85 l 118 96 l 128 154 m 203 579 q 340 710 225 710 l 417 710 q 511 661 489 710 l 578 596 q 603 521 603 571 q 602 502 603 510 q 600 486 601 494 l 590 425 q 458 303 568 303 l 383 303 q 304 329 331 303 l 239 394 q 190 488 190 418 q 191 503 190 497 q 193 517 192 510 l 193 521 l 203 579 m 233 517 q 231 501 232 508 q 231 488 231 494 q 299 424 231 424 l 374 424 q 469 517 453 424 l 479 576 q 481 592 481 585 q 482 606 482 599 q 417 669 482 669 l 340 669 q 243 574 260 669 l 233 517 m 158 92 q 156 76 157 83 q 156 63 156 69 q 224 -1 156 -1 l 299 -1 q 394 92 378 -1 l 404 151 q 406 167 406 160 q 407 181 407 174 q 342 244 407 244 l 265 244 q 168 149 185 244 l 158 92 z "},";":{"ha":499,"x_min":108,"x_max":586,"o":"m 186 579 q 324 710 208 710 l 400 710 q 494 661 472 710 l 561 596 q 586 521 586 571 q 585 502 586 510 q 583 486 585 494 l 574 425 q 442 303 551 303 l 367 303 q 288 329 314 303 l 222 394 q 174 488 174 418 q 174 503 174 497 q 176 517 175 510 l 176 521 l 186 579 m 111 156 q 249 285 133 285 l 325 285 q 415 236 390 285 l 481 171 q 508 85 508 143 q 504 33 508 58 q 306 -169 468 -169 l 208 -169 l 128 -89 l 118 -89 l 140 39 q 108 122 108 65 q 109 138 108 133 q 111 150 110 143 l 111 156 m 217 517 q 215 501 215 508 q 214 488 214 494 q 282 424 214 424 l 357 424 q 453 517 436 424 l 463 576 q 465 592 464 585 q 465 606 465 599 q 400 669 465 669 l 324 669 q 226 574 243 669 l 217 517 m 151 149 q 149 135 150 142 q 149 122 149 129 q 228 54 149 54 l 289 54 q 225 0 278 0 l 175 0 l 167 -49 l 221 -49 q 383 125 351 -49 q 388 169 388 150 q 325 244 388 244 l 249 244 q 151 149 168 244 z "},"<":{"ha":585,"x_min":139,"x_max":744,"o":"m 665 914 l 663 900 l 744 819 l 711 633 l 436 479 l 572 386 l 571 381 l 653 300 l 621 128 l 228 422 l 161 489 l 139 506 l 158 614 l 665 914 m 196 589 l 183 522 l 511 278 l 528 369 l 260 556 l 593 742 l 610 833 l 196 589 z "},"=":{"ha":747,"x_min":160,"x_max":896,"o":"m 817 796 l 815 788 l 896 707 l 860 513 l 767 513 l 767 510 l 847 429 l 811 235 l 250 235 l 169 315 l 160 315 l 197 518 l 293 518 l 218 593 l 208 593 l 246 796 l 817 796 m 232 478 l 210 356 l 696 356 l 718 478 l 232 478 m 281 756 l 258 633 l 744 633 l 767 756 l 281 756 z "},">":{"ha":610,"x_min":140,"x_max":747,"o":"m 251 711 l 233 725 l 267 906 l 667 606 l 665 600 l 747 519 l 728 417 l 231 122 l 150 203 l 140 197 l 175 396 l 453 550 l 322 642 l 251 711 m 610 522 l 622 589 l 294 833 l 278 742 l 546 556 l 213 369 l 196 278 l 610 522 z "},"?":{"ha":858,"x_min":206,"x_max":1029,"o":"m 528 728 q 550 740 539 735 q 572 750 561 744 q 597 782 590 754 l 596 782 l 603 826 q 542 797 546 819 l 528 728 m 339 490 q 403 631 354 571 l 296 631 l 215 711 l 206 711 l 246 929 q 625 1151 286 1151 q 925 1044 860 1151 l 983 988 q 1029 869 1029 942 q 1024 825 1029 847 l 1025 825 l 1000 683 q 936 531 985 596 q 806 417 888 465 q 640 242 663 363 l 633 193 l 596 193 l 618 171 q 643 96 643 146 q 642 77 643 85 q 640 61 642 69 l 631 0 q 499 -122 608 -122 l 425 -122 q 346 -96 372 -122 l 281 -31 q 232 63 232 -7 q 233 78 232 72 q 235 92 233 85 l 235 96 l 244 154 q 314 269 260 240 l 311 274 l 301 274 l 339 490 m 350 314 l 517 314 l 519 333 q 706 533 544 472 q 879 775 853 619 l 904 917 q 908 954 908 935 q 625 1111 908 1111 q 286 921 319 1111 l 256 751 l 396 751 l 421 889 q 550 949 431 949 q 658 899 658 949 q 658 894 658 896 q 657 889 657 892 l 638 779 q 583 711 626 725 q 379 483 406 633 l 350 314 m 275 92 q 273 76 274 83 q 272 63 272 69 q 340 -1 272 -1 l 414 -1 q 510 92 493 -1 l 519 151 q 522 167 521 160 q 522 181 522 174 q 457 244 522 244 l 382 244 q 285 149 301 244 l 275 92 z "},"@":{"ha":1014,"x_min":146,"x_max":1144,"o":"m 414 233 q 450 231 431 232 q 493 231 469 231 q 482 240 485 236 l 426 296 l 414 233 m 225 99 q 146 249 146 146 q 150 300 146 276 l 243 829 q 586 1056 283 1056 l 731 1056 q 1042 944 976 1056 l 1097 889 q 1144 769 1144 842 q 1139 725 1144 747 l 1140 725 l 1067 314 q 950 210 1049 210 l 786 210 l 854 142 l 824 -24 l 504 -24 q 281 43 344 -24 l 225 99 m 828 779 l 683 779 l 676 743 q 575 778 667 778 q 458 676 476 778 l 411 407 q 410 389 410 400 q 496 331 410 331 q 618 365 583 331 q 674 331 624 331 l 865 331 q 946 406 933 331 l 1019 817 q 1024 854 1024 835 q 731 1015 1024 1015 l 586 1015 q 283 821 319 1015 l 190 292 q 186 249 186 268 q 419 97 186 97 l 708 97 l 725 190 l 497 190 q 286 274 286 190 q 288 286 286 282 l 383 829 q 607 925 400 925 l 679 925 q 926 839 926 918 q 926 834 926 836 q 925 829 925 832 l 856 435 q 807 406 847 406 q 765 429 765 406 q 766 433 765 432 q 767 436 767 433 l 828 779 m 628 461 q 592 440 621 440 q 565 460 565 440 l 565 465 l 601 671 q 636 693 606 693 q 665 674 665 693 l 628 461 z "},"A":{"ha":1057,"x_min":40,"x_max":1125,"o":"m 532 150 l 542 139 l 544 157 l 535 157 l 532 150 m 50 -40 l 40 -40 l 82 201 l 189 201 l 543 1151 l 906 1151 l 906 1142 l 986 1063 l 1051 186 l 1125 113 l 1085 -121 l 601 -121 l 539 -58 l 529 -121 l 131 -121 l 50 -40 m 414 0 l 442 161 l 382 161 l 425 278 l 650 278 l 650 161 l 588 161 l 560 0 l 969 0 l 997 161 l 939 161 l 868 1111 l 571 1111 l 217 161 l 117 161 l 89 0 l 414 0 m 476 417 l 606 769 l 654 915 l 654 417 l 476 417 z "},"B":{"ha":990,"x_min":85,"x_max":1171,"o":"m 888 1151 q 1072 1075 1029 1151 l 1135 1014 q 1171 915 1171 978 q 1170 895 1171 904 q 1168 878 1169 886 l 1118 594 l 1118 593 q 1040 465 1104 507 q 1075 372 1075 431 q 1074 352 1075 360 q 1072 336 1074 344 l 1022 53 l 1022 51 q 776 -121 989 -121 l 175 -121 l 94 -40 l 85 -40 l 126 200 l 197 200 l 314 857 l 263 910 l 253 910 l 294 1151 l 888 1151 m 329 1111 l 301 950 l 372 950 l 232 160 l 161 160 l 133 0 l 692 0 q 901 143 876 0 l 951 426 q 953 442 953 435 q 954 457 954 450 q 860 556 954 540 q 997 685 978 572 l 1047 968 q 1049 985 1049 976 q 1050 1000 1050 993 q 888 1111 1050 1111 l 329 1111 m 500 160 l 557 481 l 656 481 q 685 453 685 481 q 684 447 685 450 q 683 440 683 443 l 642 207 q 599 160 633 160 l 500 160 m 640 950 l 739 950 q 767 921 767 950 q 767 913 767 918 q 765 904 767 908 l 724 671 q 682 631 717 631 l 583 631 l 640 950 z "},"C":{"ha":921,"x_min":124,"x_max":1104,"o":"m 740 828 q 682 811 683 824 l 572 203 q 633 214 631 204 l 668 407 l 893 407 l 892 399 l 972 318 l 935 103 q 501 -121 894 -121 q 258 -51 328 -121 l 200 6 q 124 154 124 56 q 124 169 124 161 q 126 189 124 179 l 125 188 l 254 924 q 597 1151 296 1151 q 789 1110 722 1151 l 797 1151 l 1025 1151 l 1024 1143 l 1104 1063 l 1026 631 l 810 631 l 729 711 l 719 711 l 740 828 m 769 751 l 911 751 l 975 1111 l 832 1111 l 815 1018 q 597 1111 789 1111 q 388 1063 464 1111 q 294 917 311 1014 l 168 194 q 164 154 164 174 q 417 0 164 0 q 814 194 778 0 l 844 367 l 703 367 l 674 208 q 549 163 667 163 q 438 204 438 163 l 438 208 l 561 903 q 686 949 567 949 q 797 907 797 949 l 797 903 l 769 751 z "},"D":{"ha":990,"x_min":85,"x_max":1171,"o":"m 888 1151 q 1072 1075 1029 1151 l 1135 1014 q 1171 915 1171 978 q 1170 895 1171 904 q 1168 878 1169 886 l 1022 53 l 1022 51 q 776 -121 989 -121 l 175 -121 l 94 -40 l 85 -40 l 126 200 l 197 200 l 314 857 l 263 910 l 253 910 l 294 1151 l 888 1151 m 329 1111 l 301 950 l 372 950 l 232 160 l 161 160 l 133 0 l 692 0 q 901 143 876 0 l 1047 968 q 1049 985 1049 976 q 1050 1000 1050 993 q 888 1111 1050 1111 l 329 1111 m 500 160 l 640 950 l 739 950 q 767 921 767 950 q 767 913 767 918 q 765 904 767 908 l 642 207 q 599 160 633 160 l 500 160 z "},"E":{"ha":993,"x_min":85,"x_max":1204,"o":"m 94 -40 l 85 -40 l 126 200 l 197 200 l 314 857 l 263 910 l 253 910 l 294 1151 l 1125 1151 l 1124 1143 l 1204 1063 l 1126 631 l 914 631 l 874 407 l 994 407 l 993 399 l 1074 318 l 994 -121 l 175 -121 l 94 -40 m 642 481 l 614 325 l 722 325 l 806 793 l 697 793 l 668 631 l 583 631 l 640 950 l 907 950 l 871 751 l 1011 751 l 1075 1111 l 329 1111 l 301 950 l 372 950 l 232 160 l 161 160 l 133 0 l 879 0 l 944 367 l 804 367 l 767 160 l 500 160 l 557 481 l 642 481 z "},"F":{"ha":968,"x_min":85,"x_max":1204,"o":"m 94 -40 l 85 -40 l 126 200 l 197 200 l 314 857 l 263 910 l 253 910 l 294 1151 l 1125 1151 l 1124 1143 l 1204 1063 l 1126 631 l 914 631 l 838 204 l 654 204 l 646 211 l 640 182 l 713 111 l 672 -121 l 175 -121 l 94 -40 m 642 481 l 614 325 l 722 325 l 806 793 l 697 793 l 668 631 l 583 631 l 640 950 l 907 950 l 871 751 l 1011 751 l 1075 1111 l 329 1111 l 301 950 l 372 950 l 232 160 l 161 160 l 133 0 l 557 0 l 585 160 l 500 160 l 557 481 l 642 481 z "},"G":{"ha":933,"x_min":111,"x_max":1090,"o":"m 188 6 q 111 154 111 56 q 111 169 111 161 q 114 189 111 179 l 113 188 l 242 924 q 585 1151 283 1151 q 776 1110 710 1151 l 785 1151 l 1011 1151 l 1010 1143 l 1090 1063 l 1013 631 l 797 631 l 717 711 l 707 711 l 728 828 q 669 811 671 824 l 617 521 l 953 521 l 951 513 l 1032 432 l 1000 246 l 949 246 l 883 -121 l 690 -121 l 654 -85 q 489 -121 579 -121 q 246 -51 315 -121 l 188 6 m 569 481 l 550 367 l 614 367 l 585 208 q 497 163 578 163 q 425 201 425 163 l 425 208 l 549 903 q 674 949 554 949 q 785 907 785 949 l 785 903 l 757 751 l 897 751 l 961 1111 l 819 1111 l 803 1018 q 585 1111 776 1111 q 375 1063 451 1111 q 282 917 299 1014 l 156 194 q 151 154 151 174 q 404 0 151 0 q 635 90 547 0 l 640 0 l 768 0 l 833 367 l 885 367 l 904 481 l 569 481 z "},"H":{"ha":1151,"x_min":85,"x_max":1354,"o":"m 726 671 l 765 671 l 793 829 l 756 829 l 726 671 m 643 200 l 682 200 l 710 360 l 672 360 l 643 200 m 94 -40 l 85 -40 l 126 200 l 197 200 l 314 857 l 263 910 l 253 910 l 294 1151 l 1275 1151 l 1274 1143 l 1354 1063 l 1314 829 l 1240 829 l 1124 172 l 1186 111 l 1146 -121 l 661 -121 l 660 -119 l 660 -121 l 175 -121 l 94 -40 m 985 160 l 1125 950 l 1199 950 l 1226 1111 l 815 1111 l 788 950 l 857 950 l 800 631 l 583 631 l 640 950 l 713 950 l 740 1111 l 329 1111 l 301 950 l 372 950 l 232 160 l 161 160 l 133 0 l 544 0 l 572 160 l 500 160 l 557 481 l 774 481 l 717 160 l 647 160 l 619 0 l 1031 0 l 1058 160 l 985 160 z "},"I":{"ha":665,"x_min":85,"x_max":868,"o":"m 94 -40 l 85 -40 l 126 200 l 197 200 l 314 857 l 263 910 l 253 910 l 294 1151 l 789 1151 l 788 1143 l 868 1063 l 828 829 l 756 829 l 639 171 l 700 111 l 660 -121 l 175 -121 l 94 -40 m 500 160 l 640 950 l 713 950 l 740 1111 l 329 1111 l 301 950 l 372 950 l 232 160 l 161 160 l 133 0 l 544 0 l 572 160 l 500 160 z "},"J":{"ha":839,"x_min":85,"x_max":1042,"o":"m 963 1151 l 961 1143 l 1042 1063 l 1001 829 l 921 829 l 793 103 q 439 -121 753 -121 q 219 -56 285 -121 l 163 1 q 85 151 85 49 q 89 203 85 179 l 125 407 l 351 407 l 350 399 l 390 358 l 476 846 l 413 910 l 403 910 l 444 1151 l 963 1151 m 479 1111 l 451 950 l 538 950 l 406 208 q 332 163 399 163 q 272 200 272 163 l 272 208 l 301 367 l 160 367 l 129 194 q 125 151 125 171 q 354 0 125 0 q 672 194 636 0 l 806 950 l 886 950 l 914 1111 l 479 1111 z "},"K":{"ha":1124,"x_min":85,"x_max":1328,"o":"m 656 261 l 644 200 l 669 200 l 656 261 m 94 -40 l 85 -40 l 126 200 l 197 200 l 314 857 l 263 910 l 253 910 l 294 1151 l 1249 1151 l 1247 1143 l 1328 1063 l 1288 829 l 1171 829 l 960 638 l 1078 200 l 1081 200 l 1079 194 l 1082 188 l 1160 111 l 1119 -121 l 663 -121 l 660 -118 l 660 -121 l 175 -121 l 94 -40 m 649 160 l 621 0 l 1004 0 l 1032 160 l 992 160 l 835 733 l 1074 950 l 1172 950 l 1200 1111 l 817 1111 l 789 950 l 885 950 l 593 683 l 640 950 l 713 950 l 740 1111 l 329 1111 l 301 950 l 372 950 l 232 160 l 161 160 l 133 0 l 544 0 l 572 160 l 500 160 l 557 479 l 635 550 l 719 160 l 649 160 z "},"L":{"ha":867,"x_min":85,"x_max":974,"o":"m 94 -40 l 85 -40 l 126 200 l 197 200 l 314 857 l 263 910 l 253 910 l 294 1151 l 800 1151 l 799 1143 l 879 1063 l 839 829 l 756 829 l 681 407 l 894 407 l 893 399 l 974 318 l 894 -121 l 175 -121 l 94 -40 m 500 160 l 640 950 l 724 950 l 751 1111 l 329 1111 l 301 950 l 372 950 l 232 160 l 161 160 l 133 0 l 779 0 l 844 367 l 703 367 l 665 160 l 500 160 z "},"M":{"ha":1317,"x_min":85,"x_max":1519,"o":"m 774 1151 l 774 1142 l 854 1063 l 868 814 l 1024 1151 l 1440 1151 l 1439 1143 l 1519 1063 l 1479 829 l 1407 829 l 1290 171 l 1351 111 l 1311 -121 l 853 -121 l 790 -58 l 763 -121 l 601 -121 l 521 -40 l 507 -121 l 175 -121 l 94 -40 l 85 -40 l 126 200 l 197 200 l 314 857 l 263 910 l 253 910 l 294 1151 l 774 1151 m 771 500 l 735 1111 l 329 1111 l 301 950 l 372 950 l 232 160 l 161 160 l 133 0 l 392 0 l 419 160 l 346 160 l 465 833 l 550 0 l 654 0 l 1028 833 l 908 160 l 839 160 l 811 0 l 1196 0 l 1224 160 l 1151 160 l 1292 950 l 1364 950 l 1392 1111 l 1050 1111 l 771 500 z "},"N":{"ha":1049,"x_min":85,"x_max":1251,"o":"m 511 322 l 485 172 l 547 111 l 507 -121 l 175 -121 l 94 -40 l 85 -40 l 126 200 l 197 200 l 314 857 l 263 910 l 253 910 l 294 1151 l 611 1151 l 615 1139 l 693 1063 l 828 739 l 847 847 l 788 908 l 778 908 l 819 1151 l 1172 1151 l 1171 1143 l 1251 1063 l 1211 829 l 1139 829 l 1022 171 l 1083 111 l 1043 -121 l 743 -121 l 663 -40 l 656 -40 l 511 322 m 346 160 l 431 636 l 683 0 l 928 0 l 956 160 l 883 160 l 1024 950 l 1096 950 l 1124 1111 l 854 1111 l 826 950 l 908 950 l 832 522 l 585 1111 l 329 1111 l 301 950 l 372 950 l 232 160 l 161 160 l 133 0 l 392 0 l 419 160 l 346 160 z "},"O":{"ha":938,"x_min":111,"x_max":1110,"o":"m 190 1 q 111 151 111 49 q 115 203 111 179 l 243 928 q 585 1153 285 1153 l 754 1153 q 1003 1060 943 1153 l 1064 999 q 1110 874 1110 953 q 1106 822 1110 844 l 979 103 q 640 -121 939 -121 l 469 -121 q 246 -54 310 -121 l 190 1 m 985 914 q 989 958 989 936 q 754 1113 989 1113 l 585 1113 q 283 918 317 1113 l 156 194 q 151 151 151 171 q 385 0 151 0 l 556 0 q 858 194 822 0 l 985 914 m 592 206 q 500 160 583 160 q 424 197 424 160 q 424 201 424 200 q 425 206 425 203 l 549 904 q 640 950 557 950 q 717 913 717 950 q 716 908 717 910 q 715 904 715 907 l 592 206 z "},"P":{"ha":993,"x_min":92,"x_max":1171,"o":"m 197 200 l 314 857 l 263 910 l 253 910 l 294 1151 l 888 1151 q 1072 1075 1029 1151 l 1133 1015 l 1132 1015 l 1135 1014 q 1171 915 1171 978 q 1170 895 1171 904 q 1168 878 1169 886 l 1114 569 q 860 350 1074 350 l 671 350 l 635 150 l 675 111 l 635 -121 l 182 -121 l 101 -40 l 92 -40 l 133 200 l 197 200 m 168 160 l 140 0 l 519 0 l 547 160 l 500 160 l 556 471 l 775 471 q 993 661 960 471 l 1047 968 q 1049 985 1049 976 q 1050 1000 1050 993 q 888 1111 1050 1111 l 329 1111 l 301 950 l 372 950 l 232 160 l 168 160 m 583 631 l 640 950 l 739 950 q 767 921 767 950 q 767 913 767 918 q 765 904 767 908 l 724 671 q 682 631 717 631 l 583 631 z "},"Q":{"ha":946,"x_min":111,"x_max":1110,"o":"m 190 1 q 111 151 111 49 q 115 203 111 179 l 243 928 q 585 1153 285 1153 l 754 1153 q 1003 1060 943 1153 l 1064 999 q 1110 874 1110 953 q 1106 822 1110 844 l 979 103 q 894 -51 961 4 l 907 -58 q 904 -62 904 -61 l 986 -144 q 877 -274 935 -236 q 767 -311 819 -311 q 689 -294 726 -311 q 624 -250 651 -278 l 569 -196 q 529 -162 547 -181 q 499 -121 511 -144 l 469 -121 q 246 -54 310 -121 l 190 1 m 985 914 q 989 958 989 936 q 754 1113 989 1113 l 585 1113 q 283 918 317 1113 l 156 194 q 151 151 151 171 q 385 0 151 0 l 518 0 q 516 -13 517 -7 q 515 -26 515 -19 q 529 -90 515 -60 q 566 -142 543 -119 q 619 -177 589 -164 q 682 -190 649 -190 q 771 -164 726 -190 q 851 -75 815 -137 l 785 -42 q 744 -85 765 -72 q 700 -99 722 -99 q 642 -74 667 -99 q 617 -15 617 -49 q 618 0 617 -6 q 858 194 826 21 l 985 914 m 549 904 q 640 950 557 950 q 717 913 717 950 q 716 908 717 910 q 715 904 715 907 l 596 232 q 559 302 592 271 q 478 333 526 333 q 463 333 471 333 q 447 331 454 333 l 549 904 m 429 226 q 453 232 440 232 q 493 215 476 232 q 510 178 510 199 q 506 160 510 168 l 500 160 q 424 197 424 160 q 424 201 424 200 q 425 206 425 203 l 429 226 z "},"R":{"ha":1085,"x_min":85,"x_max":1204,"o":"m 1040 465 q 1044 461 1043 463 q 1047 457 1044 460 l 1125 457 l 1124 449 l 1204 368 l 1149 47 q 961 -121 1118 -121 l 818 -121 q 707 -85 743 -121 l 667 -44 l 654 -121 l 175 -121 l 94 -40 l 85 -40 l 126 200 l 197 200 l 314 857 l 263 910 l 253 910 l 294 1151 l 888 1151 q 1072 1075 1029 1151 l 1133 1015 l 1132 1015 l 1135 1014 q 1171 915 1171 978 q 1170 895 1171 904 q 1168 878 1169 886 l 1118 594 l 1118 593 q 1040 465 1104 507 m 500 160 l 557 481 l 656 481 q 685 453 685 481 q 684 447 685 450 q 683 440 683 443 l 629 138 q 625 99 625 117 q 733 0 625 0 l 876 0 q 1028 139 1003 0 l 1076 417 l 994 417 l 950 163 q 922 139 946 139 q 904 156 904 139 q 905 159 904 158 q 906 163 906 160 l 951 426 q 953 442 953 435 q 954 457 954 450 q 860 556 954 540 q 997 685 978 572 l 1047 968 q 1049 985 1049 976 q 1050 1000 1050 993 q 888 1111 1050 1111 l 329 1111 l 301 950 l 372 950 l 232 160 l 161 160 l 133 0 l 539 0 l 567 160 l 500 160 m 640 950 l 739 950 q 767 921 767 950 q 767 913 767 918 q 765 904 767 908 l 724 671 q 682 631 717 631 l 583 631 l 640 950 z "},"S":{"ha":881,"x_min":71,"x_max":1090,"o":"m 631 733 q 629 728 629 731 l 694 710 q 707 711 706 706 l 729 828 q 642 797 649 824 l 631 733 m 493 338 q 375 404 419 365 l 375 399 l 456 318 l 432 203 q 525 242 518 204 l 535 299 l 535 297 q 537 310 536 304 q 538 318 538 315 l 538 322 l 493 338 m 81 -40 l 71 -40 l 151 407 l 372 407 l 360 419 l 307 471 q 203 672 203 547 q 207 725 203 700 l 242 925 q 585 1151 282 1151 q 776 1110 710 1151 l 785 1151 l 1011 1151 l 1010 1143 l 1090 1063 l 1013 631 l 824 631 q 837 615 831 624 q 849 600 843 607 l 901 547 q 965 389 965 483 q 961 339 965 361 l 961 338 l 921 103 q 582 -121 881 -121 q 385 -78 449 -121 l 378 -121 l 161 -121 l 81 -40 m 326 367 l 186 367 l 121 0 l 263 0 l 279 93 q 497 0 306 0 q 707 49 631 0 q 800 194 783 97 l 840 429 q 844 474 844 451 q 688 669 844 610 l 599 694 q 507 800 507 728 q 508 811 507 806 q 510 824 508 817 l 521 888 q 660 949 532 949 q 776 871 776 949 q 775 850 776 857 l 757 751 l 897 751 l 961 1111 l 819 1111 l 803 1018 q 585 1111 776 1111 q 282 917 318 1111 l 247 719 q 243 672 243 694 q 421 457 243 525 l 489 433 q 578 318 578 396 q 577 305 578 311 q 575 292 576 299 l 565 236 q 421 163 553 163 q 304 238 304 163 q 306 256 304 249 l 326 367 z "},"T":{"ha":931,"x_min":171,"x_max":1168,"o":"m 181 711 l 171 711 l 250 1151 l 1089 1151 l 1088 1143 l 1168 1063 l 1090 631 l 874 631 l 851 651 l 767 171 l 826 111 l 786 -121 l 303 -121 l 222 -40 l 213 -40 l 254 200 l 325 200 l 401 631 l 261 631 l 181 711 m 628 160 l 768 950 l 869 950 l 833 751 l 975 751 l 1039 1111 l 285 1111 l 221 751 l 361 751 l 397 950 l 500 950 l 360 160 l 289 160 l 261 0 l 671 0 l 699 160 l 628 160 z "},"U":{"ha":1106,"x_min":196,"x_max":1310,"o":"m 644 200 q 746 254 735 201 l 844 829 l 758 829 l 644 200 m 275 1 q 196 151 196 49 q 200 203 196 179 l 315 857 l 263 910 l 253 910 l 294 1151 l 801 1151 l 800 1143 l 825 1115 l 832 1151 l 1231 1151 l 1229 1143 l 1310 1063 l 1269 829 l 1192 829 l 1064 103 q 725 -121 1024 -121 l 556 -121 q 331 -54 394 -121 l 275 1 m 911 950 l 786 247 q 636 160 771 160 q 517 231 517 160 q 518 247 517 242 l 643 950 l 725 950 l 753 1111 l 329 1111 l 301 950 l 374 950 l 240 194 q 236 151 236 171 q 471 0 236 0 l 640 0 q 943 194 907 0 l 1076 950 l 1154 950 l 1182 1111 l 867 1111 l 839 950 l 911 950 z "},"V":{"ha":1019,"x_min":189,"x_max":1274,"o":"m 706 829 l 706 663 l 783 876 l 771 890 l 761 829 l 706 829 m 1194 1151 l 1193 1143 l 1274 1063 l 1233 829 l 1125 829 l 774 -121 l 417 -121 l 336 -40 l 328 -40 l 260 847 l 199 910 l 189 910 l 231 1151 l 722 1151 l 721 1143 l 774 1089 l 785 1151 l 1194 1151 m 819 1111 l 792 950 l 853 950 l 629 342 l 581 196 l 581 342 l 581 950 l 646 950 l 674 1111 l 265 1111 l 238 950 l 294 950 l 365 0 l 664 0 l 1017 950 l 1118 950 l 1146 1111 l 819 1111 z "},"W":{"ha":1531,"x_min":189,"x_max":1785,"o":"m 1217 829 l 1217 665 l 1294 879 l 1283 889 l 1274 829 l 1217 829 m 706 829 l 706 665 l 783 879 l 765 896 l 754 829 l 706 829 m 1706 1151 l 1704 1143 l 1785 1063 l 1744 829 l 1636 829 l 1285 -121 l 925 -121 l 844 -40 l 836 -40 l 836 47 l 774 -121 l 417 -121 l 336 -40 l 328 -40 l 260 847 l 199 910 l 189 910 l 231 1151 l 715 1151 l 714 1143 l 772 1082 l 785 1151 l 1235 1151 l 1233 1143 l 1285 1089 l 1296 1151 l 1706 1151 m 1331 1111 l 1303 950 l 1364 950 l 1140 342 l 1094 210 l 1094 342 l 1094 950 l 1158 950 l 1186 1111 l 819 1111 l 792 950 l 853 950 l 629 342 l 583 210 l 583 950 l 639 950 l 667 1111 l 265 1111 l 238 950 l 294 950 l 365 0 l 664 0 l 876 575 l 876 0 l 1175 0 l 1528 950 l 1629 950 l 1657 1111 l 1331 1111 z "},"X":{"ha":1176,"x_min":85,"x_max":1379,"o":"m 981 499 l 1088 200 l 1132 200 l 1131 192 l 1211 111 l 1171 -121 l 646 -121 l 607 -82 l 600 -121 l 175 -121 l 94 -40 l 85 -40 l 126 200 l 238 200 l 490 535 l 386 829 l 343 829 l 263 910 l 253 910 l 294 1151 l 832 1151 l 831 1143 l 883 1089 l 894 1151 l 1300 1151 l 1299 1143 l 1379 1063 l 1339 829 l 1226 829 l 981 499 m 632 160 l 604 0 l 1056 0 l 1083 160 l 1008 160 l 856 590 l 1124 950 l 1224 950 l 1251 1111 l 929 1111 l 901 950 l 953 950 l 829 796 l 786 721 l 765 797 l 699 950 l 756 950 l 783 1111 l 329 1111 l 301 950 l 389 950 l 538 529 l 258 160 l 161 160 l 133 0 l 485 0 l 513 160 l 444 160 l 564 315 l 608 390 l 624 315 l 688 160 l 632 160 z "},"Y":{"ha":1019,"x_min":189,"x_max":1274,"o":"m 199 910 l 189 910 l 231 1151 l 763 1151 l 761 1143 l 779 1122 l 785 1151 l 1194 1151 l 1193 1143 l 1274 1063 l 1233 829 l 1133 829 l 849 342 l 819 172 l 881 111 l 840 -121 l 356 -121 l 275 -40 l 265 -40 l 307 200 l 376 200 l 417 433 l 289 829 l 279 829 l 199 910 m 663 714 l 593 950 l 686 950 l 714 1111 l 265 1111 l 238 950 l 294 950 l 460 436 l 411 160 l 342 160 l 314 0 l 725 0 l 753 160 l 681 160 l 729 436 l 1029 950 l 1118 950 l 1146 1111 l 819 1111 l 792 950 l 875 950 l 733 714 l 681 607 l 663 714 z "},"Z":{"ha":921,"x_min":72,"x_max":1131,"o":"m 690 186 l 703 265 l 650 186 l 690 186 m 497 739 l 564 838 l 515 838 l 497 739 m 1051 1151 l 1050 1143 l 1131 1063 l 1093 847 l 739 318 l 904 318 l 903 310 l 983 229 l 922 -121 l 163 -121 l 82 -40 l 72 -40 l 110 172 l 479 713 l 311 713 l 231 793 l 221 793 l 283 1151 l 1051 1151 m 318 1111 l 269 833 l 378 833 l 400 958 l 710 958 l 664 911 l 149 160 l 121 0 l 807 0 l 856 278 l 747 278 l 725 146 l 425 146 l 468 190 l 974 944 l 1003 1111 l 318 1111 z "},"[":{"ha":432,"x_min":100,"x_max":674,"o":"m 469 1300 q 520 1294 489 1300 q 594 1278 551 1289 l 593 1271 l 674 1190 l 650 1074 q 567 1043 574 1068 l 568 1042 l 371 -74 l 438 -140 l 414 -274 l 379 -274 q 349 -276 364 -275 q 318 -276 333 -276 q 224 -244 256 -276 l 158 -179 q 100 -51 100 -149 q 101 -17 100 -33 q 106 17 103 0 l 297 1103 q 469 1300 333 1300 m 469 1260 q 338 1094 367 1260 l 146 8 q 142 -23 143 -8 q 140 -51 140 -37 q 233 -156 140 -156 q 266 -155 250 -156 q 299 -153 282 -154 l 310 -87 q 240 -39 240 -81 q 241 -34 240 -36 q 242 -29 242 -32 l 447 1133 q 535 1192 457 1185 l 546 1249 q 506 1257 524 1254 q 469 1260 488 1260 z "},"\\":{"ha":668,"x_min":239,"x_max":703,"o":"m 483 -40 l 475 -40 l 239 1151 l 386 1151 l 388 1140 l 467 1063 l 703 -121 l 564 -121 l 483 -40 m 575 0 l 353 1111 l 289 1111 l 510 0 l 575 0 z "},"]":{"ha":435,"x_min":31,"x_max":604,"o":"m 42 -178 q 31 -175 36 -175 l 56 -51 q 136 -28 125 -46 l 335 1096 l 276 1153 q 272 1153 274 1153 q 267 1154 269 1154 l 292 1296 l 328 1296 q 360 1298 343 1297 q 392 1299 376 1299 q 504 1243 472 1299 l 568 1179 l 567 1179 l 569 1178 q 604 1069 604 1143 q 603 1036 604 1053 q 599 1003 601 1019 l 407 -83 q 240 -278 371 -278 q 192 -272 224 -278 q 121 -257 161 -267 l 42 -178 m 156 -157 q 286 8 257 -157 l 478 1094 q 482 1126 481 1111 q 483 1154 483 1140 q 392 1258 483 1258 q 359 1258 375 1258 q 326 1256 343 1257 l 315 1190 q 385 1142 385 1183 q 384 1137 385 1139 q 383 1132 383 1135 l 178 -31 q 90 -89 167 -83 l 79 -146 q 156 -157 126 -157 z "},"^":{"ha":736,"x_min":157,"x_max":883,"o":"m 625 1140 l 703 1063 l 883 586 l 722 586 l 642 667 l 635 667 l 582 814 l 424 586 l 250 586 l 169 667 l 157 667 l 513 1151 l 621 1151 l 625 1140 m 593 1111 l 532 1111 l 236 707 l 321 707 l 549 1035 l 664 707 l 747 707 l 593 1111 z "},"_":{"ha":800,"x_min":50,"x_max":749,"o":"m 669 -132 l 668 -140 l 749 -221 l 718 -399 l 140 -399 l 60 -318 l 50 -318 l 82 -132 l 669 -132 m 117 -172 l 99 -278 l 603 -278 l 621 -172 l 117 -172 z "},"`":{"ha":608,"x_min":290,"x_max":853,"o":"m 624 1329 l 688 1267 l 853 1056 l 663 1056 l 381 1207 l 308 1279 l 290 1289 l 308 1356 l 604 1356 l 624 1329 m 585 1315 l 328 1315 l 586 1176 l 693 1176 l 585 1315 z "},"a":{"ha":939,"x_min":103,"x_max":1058,"o":"m 924 865 l 1004 785 l 946 457 l 979 457 l 978 449 l 1058 368 l 1003 47 q 817 -121 974 -121 l 674 -121 q 564 -86 599 -121 l 556 -78 q 389 -121 490 -121 q 228 -72 276 -121 l 165 -10 q 103 111 103 25 q 103 131 103 122 q 106 149 104 140 l 194 651 q 451 874 235 874 q 569 851 525 874 l 574 874 l 925 874 l 924 865 m 876 833 l 608 833 l 596 767 q 451 833 575 833 q 235 643 268 833 l 146 143 q 144 126 144 135 q 143 111 143 118 q 304 0 143 0 q 485 64 421 0 q 589 0 499 0 l 732 0 q 882 139 857 0 l 931 417 l 849 417 l 804 163 q 776 139 800 139 q 758 156 758 139 l 758 163 l 876 833 m 504 243 q 463 204 496 204 q 433 235 433 204 q 435 250 433 244 l 501 633 q 544 674 510 674 q 575 649 575 674 q 574 644 575 646 q 574 639 574 642 l 504 243 z "},"b":{"ha":863,"x_min":92,"x_max":989,"o":"m 653 1151 l 651 1143 l 732 1063 l 697 874 l 711 874 q 885 796 840 874 l 946 736 q 989 613 989 693 q 988 581 989 594 q 983 551 986 567 l 894 51 q 649 -121 861 -121 q 526 -100 572 -121 l 524 -121 l 182 -121 l 101 -40 l 92 -40 l 250 857 l 204 904 l 194 904 l 238 1151 l 653 1151 m 272 1111 l 243 944 l 307 944 l 140 0 l 408 0 l 418 56 q 564 0 440 0 q 774 143 749 0 l 863 643 q 867 672 865 658 q 868 697 868 685 q 711 833 868 833 q 543 767 586 833 l 604 1111 l 272 1111 m 519 633 q 563 674 528 674 q 590 647 590 674 q 589 633 590 639 l 522 250 q 479 204 514 204 q 451 233 451 204 q 451 240 451 236 q 453 250 451 246 l 519 633 z "},"c":{"ha":867,"x_min":136,"x_max":990,"o":"m 215 1 q 136 151 136 49 q 140 204 136 181 l 218 646 q 561 874 260 874 l 636 874 q 883 781 824 874 l 944 719 q 990 594 990 674 q 986 543 990 565 l 951 353 l 911 353 l 946 318 l 908 103 q 569 -121 868 -121 l 496 -121 q 271 -54 335 -121 l 215 1 m 550 367 l 521 208 q 478 163 514 163 q 449 194 449 163 q 449 201 449 197 q 450 208 450 204 l 524 625 q 567 671 532 671 q 596 640 596 671 q 594 625 596 631 l 568 474 l 836 474 l 865 635 q 869 679 869 657 q 636 833 869 833 l 561 833 q 258 639 294 833 l 181 194 q 176 151 176 171 q 411 0 176 0 l 485 0 q 788 194 751 0 l 818 367 l 550 367 z "},"d":{"ha":939,"x_min":103,"x_max":1058,"o":"m 972 1143 l 1053 1063 l 946 457 l 979 457 l 978 449 l 1058 368 l 1003 47 q 817 -121 974 -121 l 674 -121 q 564 -86 599 -121 l 556 -78 q 389 -121 490 -121 q 228 -72 276 -121 l 165 -10 q 103 111 103 25 q 103 131 103 122 q 106 149 104 140 l 194 651 q 451 874 235 874 q 568 851 519 874 l 569 860 l 526 904 l 517 904 l 560 1151 l 974 1151 l 972 1143 m 925 1111 l 594 1111 l 565 944 l 628 944 l 596 767 q 451 833 575 833 q 235 643 268 833 l 146 143 q 144 126 144 135 q 143 111 143 118 q 304 0 143 0 q 485 64 421 0 q 589 0 499 0 l 732 0 q 882 139 857 0 l 931 417 l 849 417 l 804 163 q 776 139 800 139 q 758 156 758 139 l 758 163 l 925 1111 m 504 243 q 463 204 496 204 q 433 235 433 204 q 435 250 433 244 l 501 633 q 544 674 510 674 q 575 649 575 674 q 574 644 575 646 q 574 639 574 642 l 504 243 z "},"e":{"ha":842,"x_min":111,"x_max":965,"o":"m 190 1 q 111 151 111 49 q 115 204 111 181 l 193 646 q 536 874 235 874 l 610 874 q 858 781 799 874 l 919 719 q 965 594 965 674 q 961 543 965 565 l 910 257 l 908 257 l 883 103 q 544 -121 843 -121 l 469 -121 q 246 -54 310 -121 l 190 1 m 543 335 l 521 208 q 465 163 514 163 q 424 197 424 163 q 424 203 424 200 q 425 208 425 206 l 456 378 l 794 378 l 840 635 q 844 679 844 657 q 610 833 844 833 l 536 833 q 233 639 269 833 l 156 194 q 151 151 151 171 q 385 0 151 0 l 460 0 q 669 49 593 0 q 763 194 746 97 l 786 335 l 543 335 m 479 514 l 499 625 q 542 671 507 671 q 571 640 571 671 q 569 625 571 631 l 550 514 l 479 514 z "},"f":{"ha":708,"x_min":99,"x_max":951,"o":"m 235 735 l 268 924 q 611 1151 310 1151 l 638 1151 q 847 1065 794 1151 l 907 1006 q 951 882 951 961 q 947 826 951 853 l 935 754 l 685 754 l 681 735 l 708 735 l 707 726 l 788 646 l 746 407 l 624 407 l 531 -121 l 189 -121 l 108 -40 l 99 -40 l 183 439 l 136 488 l 126 488 l 169 735 l 235 735 m 204 694 l 175 528 l 240 528 l 147 0 l 415 0 l 508 528 l 631 528 l 660 694 l 538 694 l 575 906 q 618 951 583 951 q 647 921 647 951 q 646 906 647 911 l 640 875 l 819 875 l 826 917 q 831 967 831 943 q 638 1111 831 1111 l 611 1111 q 308 917 344 1111 l 269 694 l 204 694 z "},"g":{"ha":843,"x_min":75,"x_max":1004,"o":"m 924 865 l 1004 785 l 833 -187 q 483 -399 771 -399 l 419 -399 q 210 -336 272 -399 l 149 -275 q 75 -126 75 -226 q 79 -74 75 -97 l 94 13 l 161 13 q 111 149 111 56 q 112 178 111 163 q 117 211 113 193 l 115 211 l 203 700 q 281 831 218 788 q 451 874 344 874 q 569 854 522 874 l 574 874 l 925 874 l 924 865 m 876 833 l 608 833 l 599 778 q 451 833 576 833 q 243 690 268 833 l 157 208 q 153 178 154 193 q 151 149 151 163 q 306 10 151 10 l 394 10 q 469 49 447 10 l 447 -79 q 367 -118 439 -118 q 300 -81 300 -118 q 301 -76 300 -78 q 301 -72 301 -75 l 308 -28 l 129 -28 l 119 -83 q 115 -126 115 -107 q 335 -278 115 -278 l 399 -278 q 711 -101 660 -278 l 876 833 m 500 218 q 457 178 493 178 q 428 206 428 178 q 428 212 428 208 q 429 218 429 215 l 493 583 q 538 629 501 629 q 567 601 567 629 q 566 596 567 599 q 565 590 565 593 l 500 218 z "},"h":{"ha":963,"x_min":97,"x_max":1082,"o":"m 969 457 l 1003 457 l 1001 449 l 1082 368 l 1026 47 q 840 -121 997 -121 l 697 -121 q 586 -85 622 -121 l 543 -42 l 529 -121 l 188 -121 l 107 -40 l 97 -40 l 254 853 l 204 904 l 194 904 l 238 1151 l 658 1151 l 657 1143 l 738 1063 l 703 874 l 718 874 q 900 797 857 874 l 963 736 q 999 638 999 700 q 998 617 999 626 q 996 600 997 608 l 969 457 m 414 0 l 517 583 q 560 629 525 629 q 589 599 589 629 q 588 583 589 589 l 508 138 q 504 99 504 117 q 613 0 504 0 l 756 0 q 906 139 881 0 l 954 417 l 872 417 l 828 163 q 801 139 824 139 q 782 157 782 139 l 782 163 l 875 690 q 877 707 876 699 q 878 722 878 715 q 718 833 878 833 q 551 778 593 833 l 610 1111 l 272 1111 l 243 944 l 313 944 l 146 0 l 414 0 z "},"i":{"ha":625,"x_min":125,"x_max":743,"o":"m 275 1021 q 413 1151 297 1151 l 539 1151 q 633 1103 611 1151 l 700 1038 q 725 963 725 1013 q 724 944 725 951 q 722 928 724 936 l 713 867 q 682 790 704 822 l 689 785 l 631 457 l 664 457 l 663 449 l 743 368 l 688 47 q 501 -121 658 -121 l 358 -121 q 247 -85 283 -121 l 183 -21 q 125 99 125 13 q 126 118 125 108 q 129 140 126 128 l 128 140 l 204 576 l 156 626 l 146 626 l 189 874 l 272 874 q 263 929 263 893 q 263 945 263 939 q 265 958 264 951 l 265 963 l 275 1021 m 224 833 l 194 667 l 264 667 l 169 138 q 165 99 165 117 q 274 0 165 0 l 417 0 q 567 139 542 0 l 615 417 l 535 417 l 490 163 q 463 139 486 139 q 443 157 443 139 l 443 163 l 561 833 l 224 833 m 306 958 q 303 943 304 950 q 303 929 303 936 q 371 865 303 865 l 496 865 q 592 958 575 865 l 601 1018 q 603 1033 603 1026 q 604 1047 604 1040 q 539 1111 604 1111 l 413 1111 q 315 1015 332 1111 l 306 958 z "},"j":{"ha":575,"x_min":-42,"x_max":769,"o":"m 319 1021 q 457 1151 342 1151 l 583 1151 q 678 1103 656 1151 l 744 1038 q 769 963 769 1013 q 769 944 769 951 q 767 928 768 936 l 757 867 q 728 792 749 818 l 735 785 l 565 -175 q 304 -399 525 -399 l 278 -399 q 93 -342 150 -399 l 35 -282 q -42 -131 -42 -235 q -37 -78 -42 -103 l -22 13 l 197 13 q 174 114 174 57 q 174 134 174 124 q 178 157 175 144 l 176 157 l 250 575 l 200 626 l 190 626 l 233 874 l 317 874 q 307 929 307 893 q 308 945 307 939 q 310 958 308 951 l 310 963 l 319 1021 m 308 667 l 218 154 q 214 114 214 133 q 235 31 214 69 q 257 -50 257 -10 q 257 -61 257 -56 q 256 -72 257 -67 q 213 -118 247 -118 q 183 -87 183 -118 q 185 -72 183 -78 l 192 -28 l 13 -28 l 3 -83 q -1 -131 -1 -108 q 193 -278 -1 -278 l 219 -278 q 444 -83 411 -278 l 607 833 l 268 833 l 239 667 l 308 667 m 350 958 q 348 943 349 950 q 347 929 347 936 q 415 865 347 865 l 540 865 q 636 958 619 865 l 646 1018 q 648 1033 647 1026 q 649 1047 649 1040 q 583 1111 649 1111 l 457 1111 q 360 1015 376 1111 l 350 958 z "},"k":{"ha":989,"x_min":97,"x_max":1108,"o":"m 854 469 l 860 436 l 864 457 l 1029 457 l 1028 449 l 1108 368 l 1053 47 q 865 -121 1022 -121 l 778 -121 q 703 -108 736 -121 q 644 -69 671 -94 l 590 -15 q 553 14 569 -6 l 529 -121 l 188 -121 l 107 -40 l 97 -40 l 254 853 l 204 904 l 194 904 l 238 1151 l 658 1151 l 657 1143 l 738 1063 l 703 874 l 1021 874 l 1019 865 l 1100 785 l 1058 546 l 939 546 l 854 469 m 781 0 q 932 139 907 0 l 981 417 l 899 417 l 854 163 q 833 139 850 139 q 808 163 811 139 l 731 567 l 842 667 l 943 667 l 972 833 l 686 833 l 657 667 l 697 667 l 500 488 l 610 1111 l 272 1111 l 243 944 l 313 944 l 146 0 l 414 0 l 472 332 l 501 358 l 533 138 q 693 0 568 0 l 781 0 z "},"l":{"ha":625,"x_min":94,"x_max":713,"o":"m 628 1151 l 626 1143 l 707 1063 l 600 457 l 633 457 l 632 449 l 713 368 l 657 47 q 471 -121 628 -121 l 328 -121 q 217 -85 253 -121 l 153 -21 q 94 99 94 13 q 95 118 94 108 q 99 140 96 128 l 97 140 l 222 854 l 174 904 l 164 904 l 207 1151 l 628 1151 m 242 1111 l 213 944 l 282 944 l 139 138 q 135 99 135 117 q 243 0 135 0 l 386 0 q 536 139 511 0 l 585 417 l 503 417 l 458 163 q 432 139 454 139 q 413 157 413 139 l 413 163 l 579 1111 l 242 1111 z "},"m":{"ha":1276,"x_min":97,"x_max":1396,"o":"m 1283 457 l 1317 457 l 1315 449 l 1396 368 l 1340 47 q 1153 -121 1310 -121 l 1010 -121 q 899 -85 935 -121 l 857 -43 l 843 -121 l 188 -121 l 107 -40 l 97 -40 l 206 575 l 156 626 l 146 626 l 189 874 l 610 874 l 608 865 l 613 860 q 661 870 635 867 q 718 874 688 874 q 858 819 814 874 q 1031 874 929 874 q 1214 797 1171 874 l 1276 736 q 1313 638 1313 700 q 1312 617 1313 626 q 1310 600 1311 608 l 1283 457 m 728 0 l 831 583 q 874 629 839 629 q 901 600 901 629 q 901 592 901 597 q 900 583 901 588 l 821 138 q 817 99 817 117 q 925 0 817 0 l 1068 0 q 1219 139 1194 0 l 1268 417 l 1186 417 l 1142 163 q 1114 139 1138 139 q 1096 156 1096 139 l 1096 163 l 1189 690 q 1191 707 1190 699 q 1192 722 1192 715 q 1031 833 1192 833 q 847 756 910 833 q 718 833 826 833 q 551 778 593 833 l 561 833 l 224 833 l 194 667 l 264 667 l 146 0 l 414 0 l 517 583 q 560 629 525 629 q 589 599 589 629 q 588 583 589 589 l 485 0 l 728 0 z "},"n":{"ha":963,"x_min":97,"x_max":1082,"o":"m 969 457 l 1003 457 l 1001 449 l 1082 368 l 1026 47 q 840 -121 997 -121 l 697 -121 q 586 -85 622 -121 l 543 -42 l 529 -121 l 188 -121 l 107 -40 l 97 -40 l 206 575 l 156 626 l 146 626 l 189 874 l 610 874 l 608 865 l 613 860 q 661 870 635 867 q 718 874 688 874 q 900 797 857 874 l 963 736 q 999 638 999 700 q 998 617 999 626 q 996 600 997 608 l 969 457 m 414 0 l 517 583 q 560 629 525 629 q 589 599 589 629 q 588 583 589 589 l 508 138 q 504 99 504 117 q 613 0 504 0 l 756 0 q 906 139 881 0 l 954 417 l 872 417 l 828 163 q 801 139 824 139 q 782 157 782 139 l 782 163 l 875 690 q 877 707 876 699 q 878 722 878 715 q 718 833 878 833 q 551 778 593 833 l 561 833 l 224 833 l 194 667 l 264 667 l 146 0 l 414 0 z "},"o":{"ha":842,"x_min":111,"x_max":965,"o":"m 190 1 q 111 151 111 49 q 115 204 111 181 l 193 646 q 536 874 235 874 l 610 874 q 858 781 799 874 l 919 719 q 965 594 965 674 q 961 543 965 565 l 883 103 q 544 -121 843 -121 l 469 -121 q 246 -54 310 -121 l 190 1 m 840 635 q 844 679 844 657 q 610 833 844 833 l 536 833 q 233 639 269 833 l 156 194 q 151 151 151 171 q 385 0 151 0 l 460 0 q 763 194 726 0 l 840 635 m 496 206 q 451 160 488 160 q 424 189 424 160 q 424 196 424 192 q 425 206 424 201 l 499 625 q 542 671 507 671 q 571 640 571 671 q 569 625 571 631 l 496 206 z "},"p":{"ha":868,"x_min":-15,"x_max":1000,"o":"m 92 -71 l 206 575 l 156 626 l 146 626 l 189 874 l 610 874 l 608 865 l 613 860 q 661 870 635 867 q 718 874 688 874 q 901 797 858 874 l 963 738 l 961 738 l 964 736 q 1000 638 1000 700 q 999 617 1000 626 q 997 600 999 608 l 908 99 q 656 -121 868 -121 l 531 -121 l 569 -160 l 528 -399 l 75 -399 l -6 -318 l -15 -318 l 28 -71 l 92 -71 m 63 -111 l 33 -278 l 413 -278 l 442 -111 l 394 -111 l 414 0 l 571 0 q 788 190 754 0 l 876 690 q 878 707 878 699 q 879 722 879 715 q 718 833 879 833 q 551 778 593 833 l 561 833 l 224 833 l 194 667 l 264 667 l 126 -111 l 63 -111 m 517 583 q 560 629 525 629 q 589 599 589 629 q 588 583 589 589 l 519 200 q 476 160 513 160 q 447 188 447 160 q 448 194 447 190 q 449 200 449 197 l 517 583 z "},"q":{"ha":863,"x_min":108,"x_max":1004,"o":"m 181 -12 q 108 136 108 29 q 110 165 108 151 q 114 193 111 179 l 114 197 l 203 700 q 281 831 218 788 q 451 874 344 874 q 569 854 522 874 l 574 874 l 925 874 l 924 865 l 1004 785 l 847 -106 l 901 -160 l 860 -399 l 406 -399 l 325 -318 l 315 -318 l 350 -118 q 240 -72 278 -110 l 181 -12 m 744 -278 l 774 -111 l 710 -111 l 876 833 l 608 833 l 599 778 q 451 833 576 833 q 243 690 268 833 l 154 190 q 150 162 151 175 q 149 136 149 149 q 304 0 149 0 l 461 0 l 442 -111 l 393 -111 l 364 -278 l 744 -278 m 496 200 q 453 160 489 160 q 424 188 424 160 q 424 194 424 190 q 425 200 425 197 l 493 583 q 538 629 501 629 q 565 600 565 629 q 565 592 565 597 q 564 583 565 588 l 496 200 z "},"r":{"ha":849,"x_min":97,"x_max":999,"o":"m 107 -40 l 97 -40 l 206 575 l 156 626 l 146 626 l 189 874 l 610 874 l 608 865 l 613 860 q 661 870 635 867 q 718 874 688 874 q 900 797 857 874 l 963 736 q 999 638 999 700 q 998 617 999 626 q 996 600 997 608 l 951 353 l 613 353 l 529 -121 l 188 -121 l 107 -40 m 414 0 l 517 583 q 560 629 525 629 q 589 599 589 629 q 588 583 589 589 l 568 474 l 836 474 l 875 690 q 877 707 876 699 q 878 722 878 715 q 718 833 878 833 q 551 778 593 833 l 561 833 l 224 833 l 194 667 l 264 667 l 146 0 l 414 0 z "},"s":{"ha":831,"x_min":110,"x_max":956,"o":"m 183 -11 q 110 142 110 32 q 110 169 110 154 q 115 201 111 183 l 114 201 l 140 344 l 246 344 l 243 347 q 171 489 171 388 q 172 509 171 497 q 175 533 172 521 l 174 533 l 194 647 q 485 874 235 874 l 671 874 q 850 794 804 874 l 911 735 q 956 607 956 690 q 954 579 956 594 q 949 544 953 564 l 950 543 l 925 408 l 817 408 l 851 374 q 893 261 893 332 q 889 211 893 233 l 871 103 q 583 -121 831 -121 l 399 -121 q 243 -71 293 -121 l 183 -11 m 768 303 q 772 346 772 325 q 600 481 772 472 l 565 481 q 461 542 461 492 q 462 547 461 544 q 463 551 463 549 l 475 625 q 543 671 483 671 q 597 635 597 671 q 597 630 597 632 q 596 625 596 628 l 579 529 l 810 529 l 829 635 q 833 665 832 650 q 835 692 835 679 q 671 833 835 833 l 485 833 q 235 639 271 833 l 215 531 q 211 489 211 510 q 383 353 211 361 l 418 353 q 524 292 524 340 q 523 287 524 289 q 522 282 522 285 l 508 208 q 442 163 501 163 q 386 200 386 163 l 386 208 l 404 304 l 175 304 l 156 199 q 151 169 153 183 q 150 142 150 154 q 314 0 150 0 l 499 0 q 669 49 606 0 q 750 194 733 97 l 768 303 z "},"t":{"ha":643,"x_min":138,"x_max":814,"o":"m 268 874 q 364 908 326 874 q 413 1008 401 942 l 438 1151 l 672 1151 l 671 1143 l 751 1063 l 717 874 l 735 874 l 733 865 l 814 785 l 772 546 l 661 546 l 644 457 l 678 457 l 676 449 l 757 368 l 701 47 q 514 -121 671 -121 l 371 -121 q 260 -85 296 -121 l 196 -21 q 138 99 138 13 q 138 118 138 108 q 142 140 139 128 l 140 140 l 215 565 l 156 626 l 146 626 l 189 874 l 268 874 m 224 833 l 194 667 l 276 667 l 182 138 q 178 99 178 117 q 286 0 178 0 l 429 0 q 581 139 556 0 l 629 417 l 547 417 l 503 163 q 475 139 499 139 q 457 156 457 139 l 457 163 l 546 667 l 657 667 l 686 833 l 575 833 l 624 1111 l 472 1111 l 453 999 q 268 833 421 833 l 224 833 z "},"u":{"ha":950,"x_min":115,"x_max":1069,"o":"m 957 457 l 990 457 l 989 449 l 1069 368 l 1014 47 q 828 -121 985 -121 l 685 -121 q 575 -85 611 -121 l 567 -76 q 401 -121 499 -121 q 240 -72 289 -121 l 178 -10 q 115 111 115 25 q 116 131 115 122 q 118 149 117 140 l 194 585 l 156 626 l 146 626 l 189 874 l 936 874 l 935 865 l 1015 785 l 957 457 m 743 0 q 893 139 868 0 l 942 417 l 860 417 l 815 163 q 789 139 811 139 q 769 157 769 139 l 769 163 l 888 833 l 619 833 l 517 250 q 472 204 508 204 q 444 233 444 204 q 444 240 444 236 q 446 250 444 246 l 549 833 l 224 833 l 194 667 l 251 667 l 158 143 q 156 126 157 135 q 156 111 156 118 q 317 0 156 0 q 494 67 433 0 q 600 0 508 0 l 743 0 z "},"v":{"ha":857,"x_min":139,"x_max":1063,"o":"m 983 874 l 982 865 l 1063 785 l 1021 546 l 915 546 l 682 -121 l 322 -121 l 242 -40 l 233 -40 l 208 567 l 149 626 l 139 626 l 182 874 l 578 874 l 578 865 l 589 853 l 593 874 l 983 874 m 628 833 l 599 667 l 665 667 l 569 383 l 515 210 l 522 383 l 536 833 l 217 833 l 188 667 l 244 667 l 272 0 l 571 0 l 804 667 l 906 667 l 935 833 l 628 833 z "},"w":{"ha":1268,"x_min":139,"x_max":1474,"o":"m 978 874 l 978 865 l 999 843 l 1004 874 l 1394 874 l 1393 865 l 1474 785 l 1432 546 l 1328 546 l 1093 -121 l 776 -121 l 696 -40 l 664 -121 l 322 -121 l 242 -40 l 233 -40 l 208 567 l 149 626 l 139 626 l 182 874 l 578 874 l 578 865 l 594 847 l 600 874 l 978 874 m 635 833 l 606 667 l 663 667 l 569 383 l 517 224 l 522 383 l 536 833 l 217 833 l 188 667 l 244 667 l 272 0 l 554 0 l 651 243 l 722 458 l 717 243 l 726 0 l 982 0 l 1217 667 l 1317 667 l 1346 833 l 1039 833 l 1010 667 l 1076 667 l 981 383 l 929 224 l 933 383 l 933 833 l 635 833 z "},"x":{"ha":863,"x_min":15,"x_max":994,"o":"m 186 626 l 176 626 l 219 874 l 557 874 l 560 863 l 629 793 l 689 874 l 915 874 l 914 865 l 994 785 l 953 546 l 843 546 l 779 457 l 903 457 l 901 449 l 982 368 l 926 47 q 739 -121 896 -121 l 657 -121 q 533 -72 582 -121 l 475 -15 q 461 -5 468 -10 q 447 6 454 0 l 356 -121 l 108 -121 l 28 -40 l 15 -40 l 322 374 l 279 546 l 267 546 l 186 626 m 614 489 l 740 667 l 838 667 l 867 833 l 708 833 l 571 646 l 525 833 l 254 833 l 225 667 l 292 667 l 367 367 l 94 0 l 253 0 l 401 206 l 419 139 q 572 0 461 0 l 654 0 q 806 139 781 0 l 854 417 l 772 417 l 728 163 q 710 139 724 139 q 683 163 694 139 l 614 489 z "},"y":{"ha":928,"x_min":139,"x_max":1133,"o":"m 226 -290 q 149 -125 149 -246 q 151 -80 149 -106 q 160 -19 153 -54 l 336 -19 l 301 15 l 293 15 l 218 557 l 149 626 l 139 626 l 182 874 l 575 874 l 575 864 l 656 785 l 657 761 l 676 874 l 1054 874 l 1053 865 l 1133 785 l 1092 546 l 1011 546 l 729 -182 q 436 -399 639 -399 q 285 -349 335 -399 l 226 -290 m 499 56 l 438 -72 q 383 -118 418 -118 q 354 -83 354 -118 q 355 -72 354 -78 q 357 -60 356 -67 l 194 -60 q 190 -94 192 -78 q 189 -125 189 -110 q 351 -278 189 -278 q 611 -83 529 -278 l 903 667 l 976 667 l 1006 833 l 711 833 l 682 667 l 742 667 l 613 342 l 563 201 l 563 342 l 536 833 l 217 833 l 188 667 l 244 667 l 329 56 l 499 56 z "},"z":{"ha":796,"x_min":72,"x_max":957,"o":"m 878 874 l 876 865 l 957 785 l 919 569 l 740 318 l 779 318 l 778 310 l 858 229 l 797 -121 l 163 -121 l 82 -40 l 72 -40 l 110 172 l 289 435 l 261 435 l 181 515 l 171 515 l 233 874 l 878 874 m 268 833 l 219 556 l 328 556 l 349 681 l 506 681 l 149 160 l 121 0 l 682 0 l 731 278 l 621 278 l 599 146 l 429 146 l 800 667 l 829 833 l 268 833 z "},"{":{"ha":510,"x_min":154,"x_max":749,"o":"m 431 -58 l 511 -139 l 488 -274 l 454 -274 q 319 -224 369 -274 l 261 -165 q 167 13 183 -117 q 163 88 163 47 q 225 383 163 231 l 154 558 l 292 743 l 292 786 q 365 1136 292 1000 q 600 1290 450 1290 q 612 1290 603 1290 q 632 1289 621 1289 l 669 1289 l 668 1281 l 749 1200 l 724 1071 l 690 1071 q 586 989 635 1071 l 588 989 q 540 697 540 904 l 540 635 l 413 464 l 482 290 q 426 143 446 211 q 407 15 407 75 q 407 -4 407 6 q 408 -25 407 -14 l 410 -26 q 411 -36 411 -32 q 413 -47 411 -42 q 421 -49 417 -49 q 432 -50 426 -49 l 431 -58 m 383 -87 q 289 53 306 -81 q 287 76 288 64 q 286 100 286 89 q 304 231 286 163 q 358 376 322 300 l 288 556 l 419 732 l 419 782 q 471 1092 419 1001 q 606 1192 529 1192 l 608 1192 l 619 1249 q 610 1249 614 1249 q 600 1250 606 1250 q 401 1118 472 1250 q 332 786 332 990 q 332 758 332 772 q 333 732 332 746 l 200 553 l 271 382 q 203 88 203 229 q 207 17 203 51 q 369 -153 231 -153 l 372 -153 l 383 -87 z "},"|":{"ha":386,"x_min":50,"x_max":589,"o":"m 510 1342 l 508 1333 l 589 1253 l 299 -399 l 140 -399 l 60 -318 l 50 -318 l 342 1342 l 510 1342 m 376 1301 l 99 -278 l 183 -278 l 461 1301 l 376 1301 z "},"}":{"ha":510,"x_min":33,"x_max":631,"o":"m 296 1296 l 333 1296 q 496 1213 443 1296 l 553 1157 q 617 1006 604 1106 q 621 966 619 986 q 622 925 622 946 q 557 639 622 789 l 631 465 l 493 279 l 493 253 q 418 -118 493 13 q 188 -268 336 -268 q 175 -268 185 -268 q 156 -267 167 -268 q 136 -267 146 -267 q 124 -267 126 -267 l 44 -186 l 33 -186 l 60 -49 l 97 -49 q 196 31 151 -49 q 246 328 246 115 l 246 388 l 372 557 l 304 732 q 378 1000 378 888 q 377 1021 378 1010 q 375 1043 376 1032 q 368 1071 374 1056 q 361 1072 367 1072 l 281 1151 q 271 1153 278 1153 l 296 1296 m 319 1190 q 415 1049 396 1183 q 417 1025 417 1038 q 418 1000 418 1013 q 347 731 418 878 l 417 551 l 286 375 l 286 328 q 232 11 286 103 q 97 -89 175 -89 l 94 -89 l 83 -146 q 94 -147 89 -146 q 103 -147 99 -147 q 301 -15 229 -147 q 372 338 372 110 l 372 375 l 504 554 l 433 725 q 501 1010 501 874 q 500 1047 501 1029 q 496 1085 499 1065 q 333 1256 475 1256 l 331 1256 l 319 1190 z "},"~":{"ha":1964,"x_min":86,"x_max":1878,"o":"m 86 407 l 88 407 l 88 472 l 181 472 l 181 511 l 156 511 l 156 633 l 181 633 l 181 676 l 156 676 l 156 728 l 765 728 l 765 664 q 732 682 756 682 q 668 575 668 682 q 735 469 668 469 q 778 496 756 469 l 778 472 l 811 472 l 811 728 l 1331 728 l 1331 692 l 1378 692 l 1378 728 l 1878 728 l 1878 0 l 86 0 l 86 407 m 1303 472 l 1303 603 q 1238 678 1303 678 q 1194 644 1204 678 q 1156 678 1182 678 q 1118 644 1132 678 l 1118 676 l 1074 676 l 1074 511 l 1047 511 l 1047 472 l 1144 472 l 1144 511 l 1118 511 l 1118 596 q 1144 628 1118 628 q 1165 596 1165 628 l 1165 472 l 1236 472 l 1236 511 l 1210 511 l 1210 596 q 1236 626 1210 626 q 1257 596 1257 626 l 1257 472 l 1303 472 m 1369 371 l 1292 371 l 1292 108 l 1336 108 l 1336 278 l 1340 278 l 1353 108 l 1433 108 l 1433 371 l 1389 371 l 1389 201 l 1385 201 l 1369 371 m 667 371 l 667 108 l 776 108 l 792 138 l 792 224 l 781 243 l 781 247 l 792 267 l 792 343 l 776 371 l 667 371 m 1147 343 l 1147 138 l 1161 108 l 1254 108 l 1271 138 l 1271 343 l 1256 371 l 1161 371 l 1147 343 m 376 371 l 376 108 l 429 108 l 429 224 l 444 224 l 444 108 l 501 108 l 501 214 l 481 243 l 481 247 l 501 275 l 501 343 l 486 371 l 376 371 m 356 407 l 401 407 l 401 485 q 435 468 411 468 q 499 574 499 468 q 432 679 499 679 q 389 651 413 679 l 389 676 l 356 676 l 356 407 m 660 572 q 583 681 660 681 q 508 572 508 681 q 583 467 508 467 q 660 572 660 467 m 1644 290 l 1697 290 l 1697 343 l 1683 371 l 1592 371 l 1576 343 l 1576 251 l 1593 224 l 1644 211 l 1644 158 l 1631 158 l 1631 197 l 1576 197 l 1576 138 l 1592 108 l 1682 108 l 1697 138 l 1697 238 l 1679 267 l 1631 278 l 1631 324 l 1644 324 l 1644 290 m 356 108 l 356 204 l 319 371 l 263 371 l 231 204 l 231 108 l 282 108 l 282 158 l 300 158 l 300 108 l 356 108 m 644 108 l 644 204 l 611 371 l 554 371 l 522 204 l 522 108 l 575 108 l 575 158 l 592 158 l 592 108 l 644 108 m 235 407 l 264 407 q 340 506 340 415 l 340 676 l 294 676 l 294 550 q 267 514 294 514 q 240 550 240 514 l 240 676 l 196 676 l 196 558 q 260 469 196 469 q 294 481 279 469 q 256 449 294 449 l 235 449 l 235 407 m 942 221 l 978 221 l 978 267 l 942 267 l 942 315 l 978 315 l 978 371 l 889 371 l 889 108 l 978 108 l 978 167 l 942 167 l 942 221 m 1092 217 l 1125 217 l 1125 263 l 1092 263 l 1092 315 l 1125 315 l 1125 371 l 1038 371 l 1038 108 l 1092 108 l 1092 217 m 1478 315 l 1478 108 l 1532 108 l 1532 315 l 1561 315 l 1561 371 l 1449 371 l 1449 315 l 1478 315 m 951 676 l 931 676 l 931 644 q 885 681 915 681 q 825 621 825 681 q 856 571 825 583 q 824 525 824 558 q 886 467 825 467 q 934 485 917 467 q 951 540 951 503 l 931 540 q 896 514 926 514 q 868 533 868 514 q 896 558 868 558 l 910 558 l 910 583 l 896 583 q 868 607 868 583 q 896 629 868 629 q 931 601 919 629 l 951 601 l 951 676 m 1522 674 l 1500 674 l 1500 644 q 1458 681 1483 681 q 1389 572 1389 681 q 1460 468 1389 468 q 1522 549 1510 468 l 1500 549 q 1465 517 1496 517 q 1433 572 1433 517 q 1465 629 1433 629 q 1500 592 1497 629 l 1522 592 l 1522 674 m 210 167 l 179 167 l 179 371 l 126 371 l 126 108 l 210 108 l 210 167 m 868 108 l 868 371 l 814 371 l 814 108 l 868 108 m 1028 511 l 1008 511 l 1008 601 q 1028 629 1008 629 q 1044 621 1036 629 l 1060 667 q 1036 678 1049 676 q 993 644 1007 678 l 993 676 l 967 676 l 967 472 l 1028 472 l 1028 511 m 1310 676 l 1310 633 l 1331 633 l 1331 472 l 1378 472 l 1378 676 l 1310 676 m 397 607 q 426 628 406 628 q 456 575 456 628 q 425 515 456 515 q 397 538 406 515 l 397 607 m 614 572 q 583 517 614 517 q 554 572 554 517 q 583 629 554 629 q 614 572 614 629 m 768 540 q 740 521 760 521 q 711 574 711 521 q 742 633 711 633 q 768 611 760 633 l 768 540 m 88 511 l 88 633 l 114 633 l 114 511 l 88 511 m 1200 158 l 1200 324 l 1215 324 l 1215 158 l 1200 158 m 88 676 l 88 728 l 114 728 l 114 676 l 88 676 m 282 197 l 282 224 l 290 293 l 293 293 l 300 224 l 300 197 l 282 197 m 575 197 l 575 224 l 582 293 l 586 293 l 592 224 l 592 197 l 575 197 m 721 224 l 736 224 l 736 158 l 721 158 l 721 224 m 721 267 l 721 324 l 736 324 l 736 267 l 721 267 m 429 267 l 429 324 l 444 324 l 444 267 l 429 267 z "},"":{"ha":482,"x_min":131,"x_max":531,"o":"m 133 156 q 271 285 156 285 l 347 285 q 438 236 413 285 l 499 174 l 497 174 l 497 175 l 503 171 q 531 85 531 143 q 526 33 531 58 q 328 -169 490 -169 l 231 -169 l 150 -89 l 140 -89 l 163 39 q 131 122 131 65 q 131 138 131 133 q 133 150 132 143 l 133 156 m 174 149 q 172 135 172 142 q 171 122 171 129 q 250 54 171 54 l 311 54 q 247 0 300 0 l 197 0 l 189 -49 l 243 -49 q 406 125 374 -49 q 410 169 410 150 q 347 244 410 244 l 271 244 q 174 149 190 244 z "},"":{"ha":1238,"x_min":76,"x_max":1393,"o":"m 351 71 q 357 120 351 96 q 374 169 363 144 l 476 411 l 401 488 l 392 488 l 435 735 l 613 735 l 696 932 q 1085 1151 790 1151 l 1110 1151 q 1296 1078 1254 1151 l 1358 1015 l 1357 1015 l 1360 1014 q 1393 922 1393 981 q 1368 818 1393 876 l 1324 713 l 1089 713 l 1156 646 l 1115 407 l 946 407 l 697 -182 q 390 -399 606 -399 l 365 -399 q 200 -350 249 -399 l 139 -289 q 76 -174 76 -254 q 83 -124 76 -150 q 101 -68 90 -97 l 133 13 l 361 13 q 360 15 361 14 q 360 17 360 15 q 358 21 358 19 q 351 71 351 46 m 569 528 l 411 154 q 392 71 392 108 q 393 50 392 60 q 397 31 394 40 q 404 -17 404 3 q 393 -72 404 -46 q 339 -118 374 -118 q 315 -99 315 -118 q 322 -72 315 -90 l 340 -28 l 161 -28 l 139 -83 q 117 -174 117 -139 q 281 -278 117 -278 l 306 -278 q 579 -83 497 -278 l 838 528 l 1000 528 l 1028 694 l 908 694 l 997 906 q 1051 951 1015 951 q 1075 932 1075 951 q 1068 906 1075 924 l 1038 833 l 1215 833 l 1250 917 q 1272 1007 1272 967 q 1110 1111 1272 1111 l 1085 1111 q 733 917 817 1111 l 640 694 l 468 694 l 440 528 l 569 528 z "},"":{"ha":744,"x_min":131,"x_max":790,"o":"m 133 156 q 271 285 156 285 l 347 285 q 432 246 406 285 q 531 285 467 285 l 607 285 q 697 236 672 285 l 758 174 l 757 174 l 757 175 l 763 171 q 790 85 790 143 q 786 33 790 58 q 588 -169 750 -169 l 490 -169 l 449 -128 q 328 -169 400 -169 l 231 -169 l 150 -89 l 140 -89 l 163 39 q 131 122 131 65 q 131 138 131 133 q 133 150 132 143 l 133 156 m 433 149 q 431 135 432 142 q 431 122 431 129 q 510 54 431 54 l 571 54 q 507 0 560 0 l 457 0 l 449 -49 l 503 -49 q 665 125 633 -49 q 669 169 669 150 q 607 244 669 244 l 531 244 q 433 149 450 244 m 174 149 q 172 135 172 142 q 171 122 171 129 q 250 54 171 54 l 311 54 q 247 0 300 0 l 197 0 l 189 -49 l 243 -49 q 406 125 374 -49 q 410 169 410 150 q 347 244 410 244 l 271 244 q 174 149 190 244 z "},"":{"ha":2314,"x_min":114,"x_max":2322,"o":"m 126 154 q 264 285 149 285 l 339 285 q 433 236 411 285 l 500 171 q 525 96 525 146 q 524 77 525 85 q 522 61 524 69 l 513 0 q 381 -122 490 -122 l 306 -122 q 228 -97 253 -122 l 161 -31 q 114 63 114 -8 q 115 78 114 72 q 117 92 115 85 l 117 96 l 126 154 m 157 92 q 155 76 156 83 q 154 63 154 69 q 221 -1 154 -1 l 296 -1 q 392 92 375 -1 l 401 151 q 403 167 403 160 q 404 181 404 174 q 339 244 404 244 l 264 244 q 167 149 183 244 l 157 92 m 1025 154 q 1163 285 1047 285 l 1238 285 q 1332 236 1310 285 l 1399 171 q 1424 96 1424 146 q 1423 77 1424 85 q 1421 61 1422 69 l 1411 0 q 1279 -122 1389 -122 l 1204 -122 q 1126 -97 1151 -122 l 1060 -31 q 1013 63 1013 -8 q 1013 78 1013 72 q 1015 92 1014 85 l 1015 96 l 1025 154 m 1056 92 q 1053 76 1054 83 q 1053 63 1053 69 q 1119 -1 1053 -1 l 1194 -1 q 1290 92 1274 -1 l 1300 151 q 1302 167 1301 160 q 1303 181 1303 174 q 1238 244 1303 244 l 1163 244 q 1065 149 1082 244 l 1056 92 m 1924 154 q 2061 285 1946 285 l 2136 285 q 2231 236 2208 285 l 2297 171 q 2322 96 2322 146 q 2322 77 2322 85 q 2319 61 2321 69 l 2310 0 q 2178 -122 2288 -122 l 2103 -122 q 2025 -97 2050 -122 l 1958 -31 q 1911 63 1911 -8 q 1912 78 1911 72 q 1914 92 1913 85 l 1914 96 l 1924 154 m 1954 92 q 1952 76 1953 83 q 1951 63 1951 69 q 2018 -1 1951 -1 l 2093 -1 q 2189 92 2172 -1 l 2199 151 q 2201 167 2200 160 q 2201 181 2201 174 q 2136 244 2201 244 l 2061 244 q 1964 149 1981 244 l 1954 92 z "},"":{"ha":768,"x_min":185,"x_max":936,"o":"m 696 1143 l 776 1063 l 739 851 l 857 851 l 856 843 l 936 763 l 911 618 l 696 618 l 526 -121 l 396 -121 l 315 -40 l 307 -40 l 389 618 l 275 618 l 194 699 l 185 699 l 211 851 l 424 851 l 476 1151 l 697 1151 l 696 1143 m 649 1111 l 511 1111 l 458 811 l 246 811 l 233 739 l 446 739 l 353 0 l 414 0 l 583 739 l 796 739 l 808 811 l 596 811 l 649 1111 z "},"":{"ha":768,"x_min":107,"x_max":936,"o":"m 644 413 l 779 413 l 778 404 l 858 324 l 833 179 l 621 179 l 568 -121 l 357 -121 l 276 -40 l 267 -40 l 306 179 l 197 179 l 117 260 l 107 260 l 133 413 l 350 413 l 394 563 l 397 618 l 275 618 l 194 699 l 185 699 l 211 851 l 424 851 l 476 1151 l 697 1151 l 696 1143 l 776 1063 l 739 851 l 857 851 l 856 843 l 936 763 l 911 618 l 694 618 l 647 463 l 644 413 m 368 300 l 315 0 l 453 0 l 506 300 l 718 300 l 731 372 l 518 372 l 528 556 l 583 739 l 796 739 l 808 811 l 596 811 l 649 1111 l 511 1111 l 458 811 l 246 811 l 233 739 l 446 739 l 435 556 l 381 372 l 168 372 l 156 300 l 368 300 z "},"":{"ha":617,"x_min":224,"x_max":858,"o":"m 617 1356 l 633 1333 l 700 1267 l 858 1056 l 667 1056 l 629 1092 l 590 1056 l 319 1056 l 239 1136 l 224 1136 l 467 1356 l 617 1356 m 481 1315 l 328 1176 l 490 1176 l 556 1238 l 601 1176 l 701 1176 l 597 1315 l 481 1315 z "},"":{"ha":1489,"x_min":119,"x_max":1564,"o":"m 1204 1151 l 1199 1144 l 1281 1063 l 872 535 l 932 535 q 1064 478 1038 535 l 1099 444 q 1267 535 1133 535 l 1342 535 q 1472 478 1446 535 l 1539 413 q 1564 342 1564 388 q 1564 331 1564 336 q 1561 315 1564 325 l 1563 315 l 1507 -4 q 1338 -121 1488 -121 l 1263 -121 q 1147 -86 1182 -121 l 1092 -31 q 929 -121 1060 -121 l 853 -121 q 739 -86 774 -121 l 675 -22 q 625 68 625 4 q 625 75 625 71 q 626 89 625 81 l 625 89 l 653 249 l 369 -121 l 213 -121 l 132 -40 l 119 -40 l 533 497 l 450 497 q 336 532 371 497 l 272 596 q 222 686 222 619 q 222 693 222 689 q 224 707 222 699 l 222 707 l 281 1036 q 454 1153 301 1153 l 529 1153 q 663 1094 633 1153 l 728 1029 q 754 957 754 1003 q 754 947 754 953 q 751 933 754 943 l 753 932 l 718 738 l 1038 1151 l 1204 1151 m 632 1024 q 633 1042 633 1031 q 529 1113 633 1113 l 454 1113 q 321 1026 336 1113 l 264 704 q 263 686 263 697 q 365 618 263 618 l 442 618 q 575 704 560 618 l 632 1024 m 1033 406 q 1035 426 1035 413 q 932 494 1035 494 l 857 494 q 724 408 739 494 l 667 86 q 665 68 665 79 q 768 0 665 0 l 844 0 q 978 86 963 0 l 1033 406 m 1442 406 q 1443 426 1443 413 q 1342 494 1443 494 l 1267 494 q 1132 408 1147 494 l 1075 86 q 1074 68 1074 79 q 1178 0 1074 0 l 1253 0 q 1386 86 1371 0 l 1442 406 m 1057 1111 l 201 0 l 267 0 l 1122 1111 l 1057 1111 m 861 92 q 819 71 857 71 q 786 88 786 71 l 786 92 l 840 401 q 882 422 844 422 q 915 406 915 422 l 915 401 l 861 92 m 458 710 q 417 689 454 689 q 383 706 383 689 l 383 710 l 438 1019 q 479 1040 442 1040 q 513 1024 513 1040 l 513 1019 l 458 710 m 1269 92 q 1228 71 1265 71 q 1196 88 1196 71 l 1196 92 l 1250 401 q 1290 422 1254 422 q 1324 406 1324 422 l 1324 401 l 1269 92 z "},"":{"ha":499,"x_min":140,"x_max":672,"o":"m 594 1003 l 592 988 l 672 907 l 632 683 l 393 465 l 554 249 l 518 42 l 436 122 l 436 117 l 140 514 l 157 607 l 594 1003 m 196 589 l 183 522 l 411 215 l 431 325 l 260 556 l 513 786 l 532 894 l 196 589 z "},"":{"ha":1265,"x_min":136,"x_max":1450,"o":"m 215 1 q 136 151 136 49 q 140 203 136 179 l 268 928 q 604 1151 308 1151 l 1371 1151 l 1369 1143 l 1450 1063 l 1372 631 l 1158 631 l 1118 407 l 1240 407 l 1239 399 l 1319 318 l 1240 -121 l 496 -121 q 271 -54 335 -121 l 215 1 m 888 481 l 860 325 l 967 325 l 1050 793 l 943 793 l 914 631 l 828 631 l 885 950 l 1153 950 l 1117 751 l 1257 751 l 1321 1111 l 604 1111 q 308 918 342 1111 l 181 194 q 176 151 176 171 q 411 0 176 0 l 1125 0 l 1190 367 l 1050 367 l 1013 160 l 744 160 l 801 481 l 888 481 m 592 206 q 513 160 583 160 q 449 196 449 160 q 449 201 449 199 q 450 206 450 203 l 574 904 q 653 950 582 950 q 717 914 717 950 q 716 909 717 911 q 715 904 715 907 l 592 206 z "},"":{"ha":500,"x_min":256,"x_max":654,"o":"m 306 786 q 256 892 256 811 q 260 942 256 917 q 463 1150 299 1150 l 564 1150 l 563 1142 l 643 1061 l 622 940 l 617 940 l 628 929 q 654 854 654 900 q 653 836 654 843 q 651 822 653 829 q 518 696 629 696 l 443 696 q 372 721 397 696 l 306 786 m 531 913 q 533 926 532 919 q 533 939 533 932 q 456 1007 533 1007 l 394 1007 q 457 1061 404 1061 l 507 1061 l 515 1110 l 463 1110 q 300 936 332 1110 q 296 892 296 911 q 358 817 296 817 l 433 817 q 531 913 514 817 z "},"":{"ha":499,"x_min":264,"x_max":664,"o":"m 267 1022 q 404 1151 289 1151 l 481 1151 q 571 1103 546 1151 l 632 1040 l 631 1040 l 631 1042 l 636 1038 q 664 951 664 1010 q 660 900 664 925 q 461 697 624 697 l 364 697 l 283 778 l 274 778 l 296 906 q 264 989 264 932 q 265 1005 264 1000 q 267 1017 265 1010 l 267 1022 m 307 1015 q 305 1002 306 1008 q 304 989 304 996 q 383 921 304 921 l 444 921 q 381 867 433 867 l 331 867 l 322 818 l 376 818 q 539 992 507 818 q 543 1036 543 1017 q 481 1111 543 1111 l 404 1111 q 307 1015 324 1111 z "},"":{"ha":775,"x_min":263,"x_max":921,"o":"m 313 786 q 263 892 263 811 q 267 942 263 917 q 468 1150 306 1150 l 571 1150 l 569 1142 l 604 1107 q 728 1150 654 1150 l 831 1150 l 829 1142 l 910 1061 l 889 940 l 883 940 l 894 929 q 921 854 921 900 q 920 836 921 843 q 918 822 919 829 q 785 696 896 696 l 708 696 q 638 721 663 696 l 622 736 q 525 696 588 696 l 450 696 q 379 721 404 696 l 313 786 m 797 913 q 799 926 799 919 q 800 939 800 932 q 721 1007 800 1007 l 660 1007 q 724 1061 669 1061 l 774 1061 l 782 1110 l 728 1110 q 565 936 597 1110 q 561 892 561 911 q 624 817 561 817 l 700 817 q 797 913 781 817 m 538 913 q 540 926 539 919 q 540 939 540 932 q 463 1007 540 1007 l 400 1007 q 464 1061 410 1061 l 514 1061 l 522 1110 l 468 1110 q 307 936 339 1110 q 303 892 303 911 q 365 817 303 817 l 440 817 q 538 913 521 817 z "},"":{"ha":772,"x_min":274,"x_max":932,"o":"m 276 1022 q 414 1151 299 1151 l 489 1151 q 574 1111 549 1151 q 672 1151 610 1151 l 749 1151 q 839 1103 814 1151 l 904 1038 q 932 951 932 1010 q 928 900 932 925 q 729 697 892 697 l 632 697 l 590 738 q 469 697 544 697 l 374 697 l 293 778 l 283 778 l 306 906 q 274 989 274 932 q 274 1005 274 1000 q 276 1017 275 1010 l 276 1022 m 576 1015 q 574 1002 575 1008 q 574 989 574 996 q 651 921 574 921 l 713 921 q 649 867 701 867 l 599 867 l 590 818 l 644 818 q 807 992 775 818 q 811 1036 811 1017 q 749 1111 811 1111 l 672 1111 q 576 1015 593 1111 m 317 1015 q 315 1002 315 1008 q 314 989 314 996 q 392 921 314 921 l 453 921 q 390 867 442 867 l 340 867 l 332 818 l 385 818 q 547 992 515 818 q 551 1036 551 1017 q 489 1111 551 1111 l 414 1111 q 317 1015 333 1111 z "},"":{"ha":682,"x_min":174,"x_max":779,"o":"m 226 692 q 364 818 251 818 l 593 818 q 688 769 665 818 l 754 704 q 779 629 779 679 q 778 610 779 618 q 776 594 778 603 l 726 311 q 594 189 704 189 l 367 189 q 288 215 314 189 l 222 281 q 174 374 174 304 q 174 391 174 385 q 176 404 175 397 l 176 410 l 226 692 m 217 403 q 215 388 215 394 q 214 374 214 381 q 282 310 214 310 l 510 310 q 606 403 589 310 l 656 685 q 658 700 657 693 q 658 714 658 707 q 593 778 658 778 l 364 778 q 267 682 283 778 l 217 403 z "},"":{"ha":832,"x_min":183,"x_max":922,"o":"m 843 671 l 842 663 l 922 582 l 883 360 l 274 360 l 193 440 l 183 440 l 224 671 l 843 671 m 258 631 l 232 481 l 768 481 l 794 631 l 258 631 z "},"":{"ha":1106,"x_min":183,"x_max":1196,"o":"m 1117 671 l 1115 663 l 1196 582 l 1157 360 l 274 360 l 193 440 l 183 440 l 224 671 l 1117 671 m 258 631 l 232 481 l 1042 481 l 1068 631 l 258 631 z "},"":{"ha":589,"x_min":267,"x_max":839,"o":"m 758 1347 l 839 1267 l 817 1149 l 817 1147 q 696 1050 800 1050 q 550 1088 606 1050 q 499 1114 510 1113 l 500 1113 q 501 1111 500 1111 q 501 1110 501 1111 q 500 1108 501 1108 l 500 1107 l 490 1056 l 357 1056 l 276 1136 l 267 1136 l 290 1261 q 436 1360 310 1360 q 564 1321 507 1360 l 564 1322 q 611 1296 597 1300 l 611 1300 l 621 1356 l 760 1356 l 758 1347 m 710 1315 l 656 1315 l 651 1293 q 617 1256 644 1256 q 542 1288 590 1256 q 436 1319 493 1319 q 331 1253 343 1319 l 317 1176 l 375 1176 l 379 1199 q 413 1235 386 1235 q 485 1203 436 1235 q 611 1171 533 1171 q 696 1239 686 1171 l 710 1315 z "},"":{"ha":1185,"x_min":258,"x_max":1401,"o":"m 654 721 l 658 721 l 682 856 l 678 856 l 654 721 m 268 936 l 258 936 l 304 1197 l 983 1197 l 983 1188 l 1043 1126 l 1076 1197 l 1322 1197 l 1321 1189 l 1401 1108 l 1375 956 l 1339 956 l 1286 661 l 1317 632 l 1290 481 l 1025 481 l 1017 489 l 1013 481 l 904 481 l 890 493 l 889 481 l 686 481 l 653 514 l 647 481 l 369 481 l 289 561 l 279 561 l 307 721 l 342 721 l 365 856 l 349 856 l 268 936 m 1103 1157 l 963 856 l 944 1157 l 742 1157 l 728 1076 l 764 1076 l 693 681 l 658 681 l 644 601 l 774 601 l 788 681 l 750 681 l 810 1018 l 853 601 l 904 601 l 1092 1018 l 1032 681 l 997 681 l 983 601 l 1175 601 l 1189 681 l 1153 681 l 1224 1076 l 1260 1076 l 1274 1157 l 1103 1157 m 546 681 l 511 681 l 581 1076 l 632 1076 l 614 976 l 685 976 l 717 1157 l 339 1157 l 307 976 l 378 976 l 396 1076 l 447 1076 l 376 681 l 342 681 l 328 601 l 532 601 l 546 681 z "},"":{"ha":521,"x_min":122,"x_max":656,"o":"m 132 114 l 122 106 l 165 342 l 403 557 l 242 774 l 279 992 l 300 964 l 367 897 l 656 510 l 640 418 l 214 32 l 132 114 m 521 519 l 532 586 l 304 893 l 285 783 l 457 553 l 204 322 l 185 214 l 521 519 z "},"":{"ha":1131,"x_min":133,"x_max":1225,"o":"m 547 18 q 550 15 547 15 l 547 18 m 213 1 q 133 151 133 49 q 138 204 133 181 l 215 646 q 560 874 257 874 q 707 844 650 874 q 869 874 769 874 q 1118 781 1058 874 l 1179 719 q 1225 594 1225 674 q 1221 543 1225 565 l 1169 257 l 1168 257 l 1143 103 q 803 -121 1103 -121 q 656 -85 711 -121 q 493 -121 586 -121 q 268 -54 332 -121 l 213 1 m 803 335 l 781 208 q 725 163 774 163 q 685 197 685 163 l 685 201 l 715 378 l 1054 378 l 1100 635 q 1104 679 1104 657 q 869 833 1104 833 q 706 799 749 833 q 560 833 667 833 q 256 639 292 833 l 178 194 q 174 151 174 171 q 408 0 174 0 q 572 44 507 0 q 718 0 621 0 q 929 49 853 0 q 1022 194 1006 97 l 1046 335 l 803 335 m 518 206 q 474 160 510 160 q 447 189 447 160 q 449 206 447 200 l 522 625 q 564 671 531 671 q 593 640 593 671 q 592 625 593 631 l 518 206 m 739 514 l 758 625 q 801 671 767 671 q 829 642 829 671 q 829 633 829 639 q 828 625 829 629 l 808 514 l 739 514 z "},"":{"ha":1067,"x_min":186,"x_max":1271,"o":"m 722 829 l 732 796 l 751 829 l 722 829 m 563 1290 q 651 1371 579 1371 l 726 1371 q 793 1335 779 1371 l 813 1315 q 894 1371 836 1371 l 969 1371 q 1036 1335 1022 1371 l 1107 1265 q 1124 1214 1124 1249 q 1124 1204 1124 1210 q 1121 1192 1124 1199 l 1122 1192 l 1114 1151 l 1192 1151 l 1190 1143 l 1271 1063 l 1231 829 l 1131 829 l 846 342 l 817 172 l 878 111 l 838 -121 l 353 -121 l 272 -40 l 263 -40 l 304 200 l 374 200 l 414 433 l 286 829 l 276 829 l 196 910 l 186 910 l 228 1151 l 561 1151 q 549 1200 549 1168 l 549 1211 l 547 1210 l 563 1290 m 678 607 l 660 714 l 590 950 l 683 950 l 711 1111 l 263 1111 l 235 950 l 292 950 l 457 436 l 408 160 l 339 160 l 311 0 l 722 0 l 750 160 l 678 160 l 726 436 l 1026 950 l 1115 950 l 1143 1111 l 817 1111 l 789 950 l 872 950 l 731 714 l 678 607 m 833 1215 q 832 1200 832 1210 q 865 1167 832 1167 l 940 1167 q 989 1215 981 1167 l 1001 1283 q 1003 1299 1003 1289 q 969 1331 1003 1331 l 894 1331 q 846 1281 854 1331 l 833 1215 m 590 1215 q 589 1200 589 1210 q 624 1167 589 1167 l 697 1167 q 746 1215 738 1167 l 758 1283 q 760 1299 760 1289 q 726 1331 760 1331 l 651 1331 q 603 1281 611 1331 l 590 1215 z "},"":{"ha":533,"x_min":24,"x_max":615,"o":"m 33 -318 l 24 -318 l 117 208 l 260 551 l 251 558 q 204 653 204 582 q 205 669 204 663 q 207 682 206 675 l 207 686 l 217 747 q 353 875 239 875 l 426 875 q 524 825 500 875 l 590 760 q 615 686 615 735 q 615 667 615 675 q 613 651 614 660 l 603 594 q 497 469 582 483 l 521 113 l 431 -399 l 114 -399 l 33 -318 m 400 201 l 379 519 l 289 519 l 157 200 l 72 -278 l 315 -278 l 400 201 m 492 742 q 494 757 493 750 q 494 771 494 764 q 426 835 494 835 l 353 835 q 257 742 274 835 l 247 682 q 245 667 246 674 q 244 653 244 660 q 310 589 244 589 l 385 589 q 482 685 465 589 l 492 742 z "},"":{"ha":915,"x_min":169,"x_max":1101,"o":"m 617 1088 l 699 1007 l 688 874 l 721 874 q 1010 785 964 874 l 1074 722 q 1101 654 1101 694 q 1100 636 1101 646 q 1096 615 1099 626 l 1057 497 l 1058 497 l 1010 344 q 638 200 961 200 l 635 200 l 617 -31 l 522 -31 l 442 50 l 433 50 l 446 206 q 286 264 328 218 l 226 324 q 169 414 169 356 q 175 451 169 433 l 261 726 q 494 865 296 836 l 514 1096 l 618 1096 l 617 1088 m 575 1056 l 551 1056 l 533 829 q 300 714 331 810 l 214 440 q 210 414 210 425 q 471 321 210 321 l 494 321 l 476 90 l 499 90 l 517 321 l 553 321 q 890 440 850 321 l 924 546 l 625 546 l 593 449 q 544 421 585 421 q 525 424 533 421 l 531 503 l 596 706 q 644 733 607 733 q 676 715 676 733 q 675 706 676 710 l 646 613 l 944 613 l 976 711 q 981 739 981 725 q 721 833 981 833 l 638 833 q 596 833 615 833 q 557 831 576 832 l 575 1056 z "},"":{"ha":990,"x_min":81,"x_max":1119,"o":"m 729 407 l 678 233 q 690 225 685 229 q 701 217 696 221 q 703 225 701 221 q 707 246 704 233 l 736 407 l 729 407 m 851 407 l 961 407 l 960 399 l 1040 318 l 1008 133 q 788 -121 964 -121 q 508 -71 622 -121 l 507 -69 q 476 -60 492 -62 q 446 -57 461 -57 q 322 -121 386 -57 l 169 -121 l 89 -40 l 81 -40 q 219 231 101 142 l 282 443 l 239 488 l 229 488 l 308 735 l 372 735 l 435 929 q 803 1151 504 1151 l 829 1151 q 1017 1074 971 1151 l 1079 1011 q 1119 896 1119 971 q 1110 826 1119 864 l 1111 826 l 1092 713 l 858 713 l 925 646 l 851 407 m 771 367 l 747 239 q 706 171 735 171 q 675 186 693 171 q 536 251 622 232 l 618 528 l 740 528 l 792 694 l 671 694 l 739 906 q 789 951 757 951 q 814 922 814 951 q 813 906 814 911 l 800 833 l 976 833 l 990 917 q 999 981 999 951 q 829 1111 999 1111 l 803 1111 q 474 917 535 1111 l 403 694 l 338 694 l 285 528 l 350 528 l 254 204 q 125 0 139 126 l 224 0 q 363 64 290 64 q 439 47 399 64 q 703 0 546 0 q 888 225 847 0 l 913 367 l 771 367 z "},"":{"ha":1067,"x_min":189,"x_max":1274,"o":"m 725 829 l 735 796 l 754 829 l 725 829 m 965 542 l 1099 542 l 1096 535 l 1178 453 l 1122 303 l 1088 303 l 1114 276 l 1058 126 l 865 126 l 881 111 l 840 -121 l 356 -121 l 275 -40 l 265 -40 l 300 158 l 251 207 l 240 207 l 303 365 l 336 365 l 318 383 l 308 383 l 367 542 l 383 542 l 290 829 l 279 829 l 199 910 l 189 910 l 231 1151 l 763 1151 l 761 1143 l 779 1122 l 785 1151 l 1194 1151 l 1193 1143 l 1274 1063 l 1233 829 l 1133 829 l 965 542 m 978 325 l 710 325 l 726 424 l 1013 424 l 1042 501 l 767 501 l 1029 950 l 1118 950 l 1146 1111 l 819 1111 l 792 950 l 875 950 l 733 714 l 681 607 l 663 714 l 593 950 l 686 950 l 714 1111 l 265 1111 l 238 950 l 294 950 l 439 501 l 394 501 l 365 424 l 457 424 l 440 325 l 331 325 l 300 247 l 426 247 l 411 160 l 342 160 l 314 0 l 725 0 l 753 160 l 681 160 l 696 247 l 949 247 l 978 325 z "},"":{"ha":881,"x_min":131,"x_max":1026,"o":"m 204 -11 q 131 142 131 32 q 131 169 131 154 q 136 201 132 183 l 135 201 l 157 325 l 247 325 q 189 468 189 371 q 190 496 189 482 q 194 528 190 510 l 193 528 l 210 619 q 293 744 224 694 q 256 856 256 790 q 256 869 256 863 q 257 886 256 878 l 267 940 q 556 1151 304 1151 l 740 1151 q 922 1072 876 1151 l 979 1015 l 978 1015 l 978 1017 l 983 1013 q 1026 890 1026 969 q 1022 835 1026 860 l 1003 731 l 883 731 l 928 686 q 969 567 969 644 q 968 538 969 551 q 964 510 967 524 l 950 429 q 865 294 936 347 q 892 244 883 271 q 901 185 901 218 q 901 165 901 175 q 897 142 900 156 l 899 142 l 892 103 q 606 -121 851 -121 l 419 -121 q 264 -71 314 -121 l 204 -11 m 778 233 q 781 251 781 243 q 781 269 781 261 q 722 385 781 340 q 829 521 813 433 l 843 600 q 847 627 846 614 q 849 651 849 640 q 683 785 849 785 l 608 785 q 539 860 539 801 q 540 870 539 865 q 542 882 540 875 q 615 960 557 960 q 663 894 663 960 q 658 851 663 876 l 888 851 l 901 926 q 906 975 906 951 q 740 1111 906 1111 l 556 1111 q 307 931 338 1111 l 300 892 q 296 856 296 872 q 361 736 296 781 q 250 611 267 692 l 235 525 q 229 468 229 497 q 392 326 229 326 l 518 326 q 542 279 542 307 q 540 267 542 271 q 463 163 521 163 q 408 200 408 163 l 408 208 l 422 285 l 192 285 l 176 199 q 172 169 174 183 q 171 142 171 154 q 335 0 171 0 l 521 0 q 771 194 735 0 l 778 233 m 485 556 q 553 631 497 631 q 594 582 594 631 q 594 569 594 575 q 592 556 593 563 q 526 481 576 481 q 482 528 482 481 q 483 542 482 535 q 485 556 483 549 z "},"":{"ha":692,"x_min":317,"x_max":893,"o":"m 332 1290 q 421 1371 349 1371 l 496 1371 q 563 1335 549 1371 l 582 1315 q 664 1371 606 1371 l 739 1371 q 806 1335 792 1371 l 876 1265 q 893 1214 893 1249 q 893 1204 893 1210 q 890 1192 893 1199 l 892 1192 l 879 1124 q 794 1046 864 1046 l 719 1046 q 668 1064 686 1046 l 629 1101 q 551 1046 610 1046 l 478 1046 q 424 1064 442 1046 l 354 1132 q 318 1200 318 1149 l 318 1211 l 317 1210 l 332 1290 m 603 1215 q 601 1200 601 1210 q 635 1167 601 1167 l 710 1167 q 758 1215 750 1167 l 771 1283 q 772 1299 772 1289 q 739 1331 772 1331 l 664 1331 q 615 1281 624 1331 l 603 1215 m 360 1215 q 358 1200 358 1210 q 393 1167 358 1167 l 467 1167 q 515 1215 507 1167 l 528 1283 q 529 1299 529 1289 q 496 1331 529 1331 l 421 1331 q 372 1281 381 1331 l 360 1215 z "},"":{"ha":1283,"x_min":178,"x_max":1407,"o":"m 532 294 q 472 406 472 328 q 473 424 472 417 q 475 439 474 432 l 526 729 q 546 788 531 761 q 407 497 435 668 l 407 496 q 396 394 396 436 q 453 189 396 278 q 658 125 538 125 q 911 201 797 125 q 797 186 867 186 l 749 186 q 594 232 640 186 l 532 294 m 1029 342 q 1022 310 1026 325 q 1010 282 1017 296 q 1169 597 1135 411 q 1178 689 1178 647 q 1107 919 1178 824 q 1065 945 1104 922 q 919 968 1026 968 q 625 863 760 968 q 763 888 679 888 l 811 888 q 986 815 946 888 l 1049 753 q 1082 663 1082 719 q 1081 642 1082 651 q 1079 626 1081 633 l 1063 535 l 969 535 l 1050 454 l 1029 342 m 178 467 q 180 526 178 496 q 189 590 182 556 l 188 590 q 422 1021 231 840 q 849 1200 614 1200 q 1056 1156 967 1200 q 1217 1024 1146 1113 l 1217 1026 q 1220 1021 1219 1024 q 1224 1015 1221 1018 l 1257 983 q 1279 960 1268 972 q 1301 932 1290 947 l 1306 929 q 1407 617 1407 793 q 1405 556 1407 586 q 1397 496 1403 525 q 1315 265 1374 369 q 1158 74 1256 161 q 733 -100 965 -100 q 410 24 533 -100 l 361 72 q 276 160 313 110 q 178 467 178 289 m 229 588 q 220 526 222 556 q 218 467 218 496 q 308 185 218 304 q 649 21 431 21 q 1050 185 869 21 q 1276 588 1233 349 q 1284 645 1282 617 q 1286 701 1286 674 q 1192 992 1286 867 q 849 1160 1067 1160 q 450 992 631 1160 q 229 588 271 822 m 286 588 q 353 783 304 696 q 482 943 401 869 q 835 1089 640 1089 q 1139 943 1032 1089 q 1218 689 1218 835 q 1210 588 1218 639 q 1013 229 1171 375 q 658 85 856 85 q 356 229 467 85 q 275 479 275 338 q 286 588 275 528 m 747 503 l 736 442 q 708 413 729 413 q 689 431 689 413 q 690 442 689 438 l 738 713 q 767 742 743 742 q 785 724 785 742 q 783 713 785 717 l 774 656 l 947 656 l 958 718 q 960 733 960 725 q 961 747 961 740 q 811 847 961 847 l 763 847 q 567 721 589 847 l 515 433 q 513 419 514 426 q 513 406 513 413 q 664 307 513 307 l 713 307 q 908 433 886 307 l 921 503 l 747 503 z "},"":{"ha":722,"x_min":179,"x_max":904,"o":"m 231 399 q 181 489 181 426 l 181 503 l 179 501 l 265 994 q 489 1151 293 1151 q 560 1140 526 1151 l 563 1151 l 825 1151 l 824 1143 l 904 1063 l 768 292 l 644 292 q 567 315 594 292 q 512 297 542 303 q 450 292 482 292 q 296 333 338 292 l 231 399 m 653 413 l 776 1111 l 597 1111 l 592 1078 q 489 1111 560 1111 q 306 988 329 1111 l 222 508 q 221 497 221 503 q 221 489 221 493 q 365 413 221 413 q 492 447 444 413 q 560 413 506 413 l 653 413 m 501 569 q 454 551 497 551 q 415 569 415 551 l 415 574 l 488 982 q 532 1000 489 1000 q 575 985 575 1000 l 501 569 z "},"":{"ha":739,"x_min":156,"x_max":904,"o":"m 610 1003 l 607 988 l 688 907 l 681 871 l 826 1003 l 824 988 l 904 907 l 864 683 l 626 465 l 786 249 l 750 42 l 668 122 l 668 117 l 408 465 l 569 249 l 533 42 l 451 122 l 451 117 l 156 514 l 172 607 l 610 1003 m 428 589 l 415 522 l 643 215 l 663 325 l 493 556 l 744 786 l 764 894 l 428 589 m 211 589 l 199 522 l 426 215 l 446 325 l 275 556 l 528 786 l 547 894 l 211 589 z "},"":{"ha":872,"x_min":183,"x_max":997,"o":"m 918 671 l 917 663 l 997 582 l 932 210 l 742 210 l 661 290 l 651 290 l 664 360 l 274 360 l 193 440 l 183 440 l 224 671 l 918 671 m 258 631 l 232 481 l 726 481 l 700 331 l 817 331 l 869 631 l 258 631 z "},"":{"ha":949,"x_min":181,"x_max":1117,"o":"m 985 1053 l 997 1040 l 985 1053 m 189 771 q 249 942 206 864 q 363 1085 293 1019 q 681 1218 504 1218 q 951 1089 849 1218 l 951 1090 q 960 1079 957 1082 l 1003 1036 q 1019 1017 1011 1025 q 1035 997 1028 1008 l 1040 993 q 1117 761 1117 892 q 1108 671 1117 717 q 932 361 1075 488 l 933 361 q 619 233 797 233 q 375 326 468 233 l 325 376 q 288 408 306 390 q 254 447 269 426 q 181 678 181 546 q 189 771 181 726 m 229 763 q 221 678 221 718 q 286 472 221 561 q 535 354 375 354 q 824 472 696 354 q 988 763 957 590 q 996 846 996 806 q 926 1056 996 963 q 681 1178 838 1178 q 390 1056 521 1178 q 229 763 260 936 m 306 761 q 432 994 329 900 q 664 1090 533 1090 q 860 994 790 1090 q 911 828 911 925 q 906 761 911 793 q 861 634 894 692 q 778 529 828 576 q 549 436 676 436 q 350 529 418 436 q 299 692 299 600 q 306 761 299 722 m 571 619 l 544 619 l 567 749 l 607 749 q 618 738 618 749 l 618 733 l 596 611 q 594 596 594 606 q 639 556 594 556 l 696 556 q 757 611 747 556 l 776 724 l 743 724 l 725 621 q 714 611 724 611 q 708 617 708 611 l 708 621 l 726 728 q 727 733 726 731 q 728 738 728 735 q 689 779 728 772 q 744 831 738 786 l 765 946 q 767 958 767 950 q 700 1003 767 1003 l 475 1003 l 464 938 l 493 938 l 436 619 l 408 619 l 397 556 l 560 556 l 571 619 m 578 810 l 601 938 l 640 938 q 651 925 651 938 l 651 919 l 635 825 q 618 810 632 810 l 578 810 z "},"":{"ha":538,"x_min":246,"x_max":808,"o":"m 729 1324 l 728 1315 l 808 1235 l 781 1074 l 336 1074 l 256 1154 l 246 1154 l 275 1324 l 729 1324 m 310 1283 l 294 1194 l 665 1194 l 681 1283 l 310 1283 z "},"":{"ha":499,"x_min":224,"x_max":707,"o":"m 488 992 q 443 940 456 974 q 488 992 474 958 m 226 1011 q 299 1150 238 1090 q 454 1219 372 1219 q 540 1198 503 1219 q 600 1139 578 1176 l 657 1083 q 707 954 707 1033 q 706 933 707 942 q 704 915 706 924 q 678 837 699 872 q 624 772 657 801 q 479 713 556 713 q 414 725 443 713 q 363 760 385 738 l 307 815 q 245 878 267 838 q 224 972 224 919 q 224 992 224 983 q 226 1010 225 1001 l 226 1011 m 267 1006 q 265 989 265 997 q 264 972 264 981 q 300 873 264 913 q 394 833 336 833 q 515 883 458 833 q 583 1006 574 935 q 585 1022 585 1014 q 586 1039 586 1031 q 550 1140 586 1100 q 454 1179 514 1179 q 333 1128 389 1179 q 267 1006 276 1078 m 317 1006 q 361 1090 324 1056 q 444 1124 399 1124 q 510 1096 485 1124 q 536 1025 536 1068 q 535 1006 536 1013 q 486 922 524 956 q 403 888 449 888 q 338 914 363 888 q 314 981 314 940 q 315 993 314 988 q 317 1006 315 999 z "},"":{"ha":768,"x_min":139,"x_max":904,"o":"m 640 210 l 721 129 l 682 -93 l 238 -93 l 157 -12 l 147 -12 l 188 218 l 313 218 l 338 360 l 229 360 l 149 440 l 139 440 l 179 671 l 392 671 l 432 901 l 653 901 l 651 893 l 732 813 l 706 671 l 825 671 l 824 663 l 904 582 l 865 360 l 653 360 l 626 218 l 642 218 l 640 210 m 564 631 l 604 861 l 467 861 l 426 631 l 214 631 l 188 481 l 400 481 l 360 250 l 497 250 l 538 481 l 750 481 l 776 631 l 564 631 m 593 178 l 222 178 l 196 28 l 567 28 l 593 178 z "},"":{"ha":607,"x_min":222,"x_max":856,"o":"m 238 1136 l 222 1136 l 471 1356 l 761 1356 l 763 1344 l 842 1267 l 856 1203 l 529 1056 l 318 1056 l 238 1136 m 742 1315 l 485 1315 l 328 1176 l 435 1176 l 742 1315 z "},"":{"ha":1042,"x_min":100,"x_max":1133,"o":"m 1021 457 l 1054 457 l 1053 449 l 1133 368 l 1078 47 q 892 -121 1049 -121 l 749 -121 q 639 -85 675 -121 l 631 -76 q 496 -119 575 -112 l 447 -399 l 190 -399 l 110 -318 l 100 -318 l 260 585 l 219 626 l 210 626 l 253 874 l 1000 874 l 999 865 l 1079 785 l 1021 457 m 807 0 q 957 139 932 0 l 1006 417 l 924 417 l 879 163 q 853 139 875 139 q 833 157 833 139 l 833 163 l 951 833 l 683 833 l 581 250 q 536 204 572 204 q 508 233 508 204 q 508 240 508 236 q 510 250 508 246 l 613 833 l 288 833 l 258 667 l 315 667 l 149 -278 l 332 -278 l 381 0 q 558 67 497 0 q 664 0 572 0 l 807 0 z "},"":{"ha":808,"x_min":182,"x_max":1018,"o":"m 286 678 q 211 836 211 719 q 213 872 211 856 q 218 908 215 889 q 469 1151 257 1151 l 939 1151 l 938 1143 l 1018 1063 l 978 829 l 904 829 l 788 172 l 850 111 l 810 -121 l 558 -121 l 526 -89 l 521 -121 l 272 -121 l 192 -40 l 182 -40 l 224 200 l 294 200 l 365 601 q 344 619 351 611 l 286 678 m 722 160 l 649 160 l 789 950 l 863 950 l 890 1111 l 469 1111 q 258 903 293 1111 q 253 867 256 883 q 251 836 251 851 q 396 694 251 694 l 424 694 l 329 160 l 258 160 l 231 0 l 406 0 l 574 950 l 685 950 l 517 0 l 694 0 l 722 160 z "},"":{"ha":526,"x_min":196,"x_max":607,"o":"m 208 585 q 346 715 231 715 l 421 715 q 515 667 493 715 l 582 601 q 607 526 607 576 q 606 508 607 515 q 604 492 606 500 l 594 431 q 463 308 572 308 l 388 308 q 310 333 335 308 l 243 400 q 196 493 196 422 q 197 509 196 503 q 199 522 197 515 l 199 526 l 208 585 m 239 522 q 237 507 238 514 q 236 493 236 500 q 303 429 236 429 l 378 429 q 474 522 457 429 l 483 582 q 485 597 485 590 q 486 611 486 604 q 421 675 486 675 l 346 675 q 249 579 265 675 l 239 522 z "},"":{"ha":536,"x_min":60,"x_max":493,"o":"m 317 57 l 315 50 l 397 -32 l 396 -36 q 401 -44 399 -40 q 404 -51 403 -47 l 471 -118 q 493 -176 493 -140 q 493 -187 493 -183 q 490 -200 493 -193 l 467 -331 q 319 -433 447 -433 l 269 -433 q 172 -404 201 -433 l 106 -337 q 61 -256 61 -314 q 63 -242 61 -247 l 60 -244 l 78 -139 l 161 -139 l 156 -133 l 146 -133 l 179 57 l 317 57 m 214 17 l 194 -93 l 250 -93 q 271 -107 271 -93 l 271 -110 l 249 -235 q 222 -253 247 -253 q 200 -237 200 -253 l 200 -235 l 210 -179 l 113 -179 l 103 -237 q 101 -256 101 -244 q 185 -312 101 -312 l 235 -312 q 347 -239 332 -312 l 371 -104 q 372 -92 372 -100 q 268 -35 372 -35 l 261 -35 l 269 17 l 214 17 z "},"":{"ha":743,"x_min":203,"x_max":885,"o":"m 261 400 q 203 511 203 435 q 203 530 203 522 q 206 544 204 538 l 285 993 q 521 1151 311 1151 l 611 1151 q 789 1078 749 1151 l 851 1015 q 885 925 885 982 q 884 906 885 914 q 882 890 883 897 l 803 447 q 571 292 776 292 l 481 292 q 325 338 371 292 l 261 400 m 761 982 q 763 996 763 989 q 764 1010 764 1003 q 611 1111 764 1111 l 521 1111 q 325 985 347 1111 l 246 539 q 244 525 244 532 q 243 511 243 518 q 396 413 243 413 l 486 413 q 682 539 660 413 l 761 982 m 504 546 q 461 524 500 524 q 428 542 428 524 l 428 546 l 504 976 q 546 999 508 999 q 581 981 581 999 l 581 976 l 504 546 z "},"":{"ha":754,"x_min":122,"x_max":874,"o":"m 367 897 l 618 556 l 619 557 l 460 775 l 497 992 l 518 964 l 585 897 l 874 510 l 858 418 l 432 32 l 350 114 l 340 106 l 349 156 l 214 32 l 132 114 l 122 106 l 165 342 l 403 557 l 242 774 l 279 992 l 300 964 l 367 897 m 739 519 l 750 586 l 522 893 l 503 783 l 674 553 l 422 322 l 403 214 l 739 519 m 521 519 l 532 586 l 304 893 l 285 783 l 457 553 l 204 322 l 185 214 l 521 519 z "},"":{"ha":858,"x_min":42,"x_max":864,"o":"m 467 -74 q 529 -49 522 -69 l 542 21 q 521 11 531 15 q 501 3 511 7 q 472 -36 479 -3 l 474 -37 l 467 -74 m 118 -265 q 42 -121 42 -214 q 42 -106 42 -114 q 44 -87 42 -97 l 43 -89 l 71 68 q 264 335 101 238 q 431 510 407 389 l 438 560 l 475 560 q 428 653 428 582 q 428 669 428 663 q 431 682 429 675 l 431 686 l 440 747 q 576 875 463 875 l 650 875 q 747 825 724 875 l 814 760 q 839 686 839 735 q 838 667 839 675 q 836 651 838 660 l 826 594 q 757 482 810 508 l 768 471 l 732 258 q 669 122 718 181 l 785 122 l 783 114 l 864 33 l 825 -179 q 450 -399 785 -399 q 176 -324 251 -399 l 118 -265 m 640 519 l 474 519 l 471 500 q 285 300 446 361 q 111 58 138 214 l 86 -83 q 82 -121 82 -103 q 365 -278 82 -278 q 704 -87 671 -278 l 735 82 l 594 82 l 569 -56 q 440 -115 560 -115 q 332 -65 332 -115 q 333 -60 332 -62 q 333 -56 333 -58 l 353 54 q 407 122 364 108 q 611 350 585 200 l 640 519 m 715 742 q 717 757 717 750 q 718 771 718 764 q 650 835 718 835 l 576 835 q 481 742 497 835 l 471 682 q 469 667 469 674 q 468 653 468 660 q 533 589 468 589 l 608 589 q 706 685 689 589 l 715 742 z "},"":{"ha":1104,"x_min":60,"x_max":1144,"o":"m 551 150 l 561 139 l 564 157 l 554 157 l 551 150 m 472 1279 l 454 1289 l 472 1356 l 768 1356 l 788 1329 l 851 1267 l 1017 1056 l 1006 1056 l 1071 186 l 1144 113 l 1104 -121 l 621 -121 l 558 -58 l 549 -121 l 150 -121 l 69 -40 l 60 -40 l 101 201 l 208 201 l 563 1151 l 647 1151 l 544 1207 l 472 1279 m 108 0 l 433 0 l 461 161 l 401 161 l 444 278 l 669 278 l 669 161 l 607 161 l 579 0 l 989 0 l 1017 161 l 958 161 l 888 1111 l 590 1111 l 236 161 l 136 161 l 108 0 m 669 417 l 496 417 l 625 769 l 674 915 l 674 769 l 669 417 m 857 1176 l 749 1315 l 492 1315 l 750 1176 l 857 1176 z "},"":{"ha":1104,"x_min":60,"x_max":1153,"o":"m 551 150 l 561 139 l 564 157 l 554 157 l 551 150 m 101 201 l 208 201 l 550 1119 l 535 1136 l 519 1136 l 768 1356 l 1058 1356 l 1060 1344 l 1139 1267 l 1153 1203 l 954 1114 l 1006 1063 l 1071 186 l 1144 113 l 1104 -121 l 621 -121 l 558 -58 l 549 -121 l 150 -121 l 69 -40 l 60 -40 l 101 201 m 108 0 l 433 0 l 461 161 l 401 161 l 444 278 l 669 278 l 669 161 l 607 161 l 579 0 l 989 0 l 1017 161 l 958 161 l 888 1111 l 590 1111 l 236 161 l 136 161 l 108 0 m 669 417 l 496 417 l 625 769 l 674 915 l 674 769 l 669 417 m 732 1176 l 1039 1315 l 782 1315 l 625 1176 l 732 1176 z "},"":{"ha":1104,"x_min":60,"x_max":1144,"o":"m 551 150 l 561 139 l 564 157 l 554 157 l 551 150 m 879 1333 l 946 1267 l 1104 1056 l 1006 1056 l 1071 186 l 1144 113 l 1104 -121 l 621 -121 l 558 -58 l 549 -121 l 150 -121 l 69 -40 l 60 -40 l 101 201 l 208 201 l 538 1083 l 485 1136 l 469 1136 l 713 1356 l 863 1356 l 879 1333 m 108 0 l 433 0 l 461 161 l 401 161 l 444 278 l 669 278 l 669 161 l 607 161 l 579 0 l 989 0 l 1017 161 l 958 161 l 888 1111 l 590 1111 l 236 161 l 136 161 l 108 0 m 669 417 l 496 417 l 625 769 l 674 915 l 674 769 l 669 417 m 843 1315 l 726 1315 l 574 1176 l 736 1176 l 801 1238 l 847 1176 l 947 1176 l 843 1315 z "},"":{"ha":1104,"x_min":60,"x_max":1144,"o":"m 551 150 l 561 139 l 564 157 l 554 157 l 551 150 m 1022 1347 l 1103 1267 l 1081 1147 q 1006 1056 1068 1075 l 1071 186 l 1144 113 l 1104 -121 l 621 -121 l 558 -58 l 549 -121 l 150 -121 l 69 -40 l 60 -40 l 101 201 l 208 201 l 551 1124 l 540 1136 l 531 1136 l 554 1261 q 700 1360 574 1360 q 828 1321 771 1360 l 828 1322 q 875 1296 861 1300 l 875 1300 l 885 1356 l 1024 1356 l 1022 1347 m 108 0 l 433 0 l 461 161 l 401 161 l 444 278 l 669 278 l 669 161 l 607 161 l 579 0 l 989 0 l 1017 161 l 958 161 l 888 1111 l 590 1111 l 236 161 l 136 161 l 108 0 m 669 417 l 496 417 l 625 769 l 674 915 l 674 769 l 669 417 m 974 1315 l 919 1315 l 915 1293 q 881 1256 908 1256 q 806 1288 854 1256 q 700 1319 757 1319 q 594 1253 607 1319 l 581 1176 l 639 1176 l 643 1199 q 676 1235 650 1235 q 749 1203 700 1235 q 875 1171 797 1171 q 960 1239 950 1171 l 974 1315 z "},"":{"ha":1104,"x_min":60,"x_max":1144,"o":"m 551 150 l 561 139 l 564 157 l 554 157 l 551 150 m 69 -40 l 60 -40 l 101 201 l 208 201 l 560 1144 q 532 1207 532 1160 l 532 1218 l 531 1217 l 546 1297 q 635 1378 563 1378 l 710 1378 q 776 1342 763 1378 l 796 1322 q 878 1378 819 1378 l 953 1378 q 1019 1342 1006 1378 l 1090 1272 q 1107 1221 1107 1256 q 1107 1211 1107 1217 q 1104 1199 1107 1206 l 1106 1199 l 1093 1131 q 1008 1053 1078 1053 l 1006 1053 l 1071 186 l 1144 113 l 1104 -121 l 621 -121 l 558 -58 l 549 -121 l 150 -121 l 69 -40 m 108 0 l 433 0 l 461 161 l 401 161 l 444 278 l 669 278 l 669 161 l 607 161 l 579 0 l 989 0 l 1017 161 l 958 161 l 888 1111 l 590 1111 l 236 161 l 136 161 l 108 0 m 669 417 l 496 417 l 625 769 l 674 915 l 674 769 l 669 417 m 817 1222 q 815 1207 815 1217 q 849 1174 815 1174 l 924 1174 q 972 1222 964 1174 l 985 1290 q 986 1306 986 1296 q 953 1338 986 1338 l 878 1338 q 829 1288 838 1338 l 817 1222 m 574 1222 q 572 1207 572 1217 q 607 1174 572 1174 l 681 1174 q 729 1222 721 1174 l 742 1290 q 743 1306 743 1296 q 710 1338 743 1338 l 635 1338 q 586 1288 594 1338 l 574 1222 z "},"":{"ha":1104,"x_min":60,"x_max":1144,"o":"m 551 150 l 561 139 l 564 157 l 554 157 l 551 150 m 631 1257 q 652 1317 636 1289 q 692 1367 668 1346 q 744 1400 715 1388 q 801 1413 772 1413 q 869 1395 840 1413 q 915 1347 899 1378 l 975 1288 q 1003 1244 993 1269 q 1014 1189 1014 1219 q 1014 1176 1014 1183 q 1011 1161 1014 1171 l 1013 1161 q 981 1086 1004 1121 l 1006 1063 l 1071 186 l 1144 113 l 1104 -121 l 621 -121 l 558 -58 l 549 -121 l 150 -121 l 69 -40 l 60 -40 l 101 201 l 208 201 l 563 1151 l 649 1151 q 633 1187 638 1167 q 629 1229 629 1207 q 629 1243 629 1236 q 631 1257 629 1250 m 108 0 l 433 0 l 461 161 l 401 161 l 444 278 l 669 278 l 669 161 l 607 161 l 579 0 l 989 0 l 1017 161 l 958 161 l 888 1111 l 590 1111 l 236 161 l 136 161 l 108 0 m 669 417 l 496 417 l 625 769 l 674 915 l 674 769 l 669 417 m 671 1251 q 669 1239 669 1244 q 669 1229 669 1235 q 694 1160 669 1188 q 760 1132 719 1132 q 844 1167 806 1132 q 892 1251 883 1201 q 893 1263 893 1257 q 893 1274 893 1268 q 867 1344 893 1317 q 801 1372 842 1372 q 717 1337 756 1372 q 671 1251 679 1301 m 706 1251 q 737 1310 711 1286 q 794 1333 763 1333 q 841 1314 824 1333 q 858 1265 858 1294 q 857 1251 858 1257 q 824 1193 850 1217 q 765 1169 797 1169 q 721 1188 738 1169 q 704 1233 704 1206 q 706 1251 704 1244 z "},"":{"ha":1475,"x_min":76,"x_max":1660,"o":"m 1100 213 l 1097 200 l 1186 200 l 1186 204 l 1110 204 l 1100 213 m 651 200 l 671 314 l 608 200 l 651 200 m 86 -40 l 76 -40 l 118 201 l 215 201 l 579 863 l 533 910 l 524 910 l 565 1151 l 1581 1151 l 1579 1143 l 1660 1063 l 1582 631 l 1368 631 l 1328 407 l 1450 407 l 1449 399 l 1529 318 l 1450 -121 l 631 -121 l 575 -65 l 565 -121 l 167 -121 l 86 -40 m 1097 481 l 1069 325 l 1176 325 l 1260 793 l 1153 793 l 1124 631 l 1038 631 l 1094 950 l 1363 950 l 1326 751 l 1467 751 l 1531 1111 l 600 1111 l 572 950 l 675 950 l 240 161 l 153 161 l 125 0 l 450 0 l 478 161 l 418 161 l 590 481 l 743 481 l 686 160 l 617 160 l 589 0 l 1335 0 l 1400 367 l 1260 367 l 1222 160 l 954 160 l 1011 481 l 1097 481 m 671 631 l 768 811 l 822 932 l 769 631 l 671 631 z "},"":{"ha":921,"x_min":143,"x_max":1124,"o":"m 760 828 q 701 811 703 824 l 592 203 q 653 214 650 204 l 688 407 l 913 407 l 911 399 l 992 318 l 954 103 q 679 -110 922 -72 l 688 -118 q 710 -176 710 -140 q 710 -187 710 -183 q 707 -200 710 -193 l 683 -331 q 536 -433 664 -433 l 486 -433 q 389 -404 418 -433 l 322 -337 q 278 -256 278 -314 l 278 -242 l 276 -244 l 294 -139 l 376 -139 l 371 -133 l 361 -133 l 367 -101 q 278 -51 308 -82 l 218 8 q 143 153 143 56 q 147 204 143 181 l 274 924 q 617 1151 315 1151 q 808 1110 742 1151 l 817 1151 l 1044 1151 l 1043 1143 l 1124 1063 l 1046 631 l 829 631 l 749 711 l 739 711 l 760 828 m 789 751 l 931 751 l 994 1111 l 851 1111 l 835 1018 q 617 1111 808 1111 q 407 1063 483 1111 q 314 917 331 1014 l 188 194 q 183 154 183 174 q 428 0 183 1 l 411 -93 l 467 -93 q 488 -107 488 -93 l 488 -110 l 465 -235 q 439 -253 464 -253 q 417 -237 417 -253 l 417 -235 l 426 -179 l 329 -179 l 319 -237 q 318 -256 318 -244 q 401 -312 318 -312 l 451 -312 q 564 -239 549 -312 l 588 -104 q 589 -92 589 -100 q 485 -35 589 -35 l 478 -35 l 483 1 q 833 194 800 11 l 864 367 l 722 367 l 693 208 q 568 163 686 163 q 457 204 457 163 l 457 208 l 581 903 q 706 949 586 949 q 817 907 817 949 l 817 903 l 789 751 z "},"":{"ha":1018,"x_min":104,"x_max":1224,"o":"m 665 211 l 663 200 l 750 200 l 750 204 l 674 204 l 665 211 m 865 1267 l 954 1151 l 1144 1151 l 1143 1143 l 1224 1063 l 1146 631 l 933 631 l 893 407 l 1014 407 l 1013 399 l 1093 318 l 1014 -121 l 194 -121 l 114 -40 l 104 -40 l 146 200 l 217 200 l 333 857 l 282 910 l 272 910 l 314 1151 l 661 1151 l 558 1207 l 486 1279 l 468 1289 l 486 1356 l 782 1356 l 801 1329 l 865 1267 m 576 481 l 661 481 l 633 325 l 742 325 l 825 793 l 717 793 l 688 631 l 603 631 l 660 950 l 926 950 l 890 751 l 1031 751 l 1094 1111 l 349 1111 l 321 950 l 392 950 l 251 160 l 181 160 l 153 0 l 899 0 l 964 367 l 824 367 l 786 160 l 519 160 l 576 481 m 871 1176 l 763 1315 l 506 1315 l 764 1176 l 871 1176 z "},"":{"ha":1018,"x_min":104,"x_max":1224,"o":"m 665 211 l 663 200 l 750 200 l 750 204 l 674 204 l 665 211 m 993 1151 l 1144 1151 l 1143 1143 l 1224 1063 l 1146 631 l 933 631 l 893 407 l 1014 407 l 1013 399 l 1093 318 l 1014 -121 l 194 -121 l 114 -40 l 104 -40 l 146 200 l 217 200 l 333 857 l 282 910 l 272 910 l 314 1151 l 492 1151 l 724 1356 l 1014 1356 l 1015 1344 l 1094 1267 l 1108 1203 l 993 1151 m 576 481 l 661 481 l 633 325 l 742 325 l 825 793 l 717 793 l 688 631 l 603 631 l 660 950 l 926 950 l 890 751 l 1031 751 l 1094 1111 l 349 1111 l 321 950 l 392 950 l 251 160 l 181 160 l 153 0 l 899 0 l 964 367 l 824 367 l 786 160 l 519 160 l 576 481 m 688 1176 l 994 1315 l 738 1315 l 581 1176 l 688 1176 z "},"":{"ha":1018,"x_min":104,"x_max":1224,"o":"m 842 1333 l 908 1267 l 994 1151 l 1144 1151 l 1143 1143 l 1224 1063 l 1146 631 l 933 631 l 893 407 l 1014 407 l 1013 399 l 1093 318 l 1014 -121 l 194 -121 l 114 -40 l 104 -40 l 146 200 l 217 200 l 333 857 l 282 910 l 272 910 l 314 1151 l 449 1151 l 675 1356 l 825 1356 l 842 1333 m 576 481 l 661 481 l 633 325 l 742 325 l 825 793 l 717 793 l 688 631 l 603 631 l 660 950 l 926 950 l 890 751 l 1031 751 l 1094 1111 l 349 1111 l 321 950 l 392 950 l 251 160 l 181 160 l 153 0 l 899 0 l 964 367 l 824 367 l 786 160 l 519 160 l 576 481 m 806 1315 l 689 1315 l 536 1176 l 699 1176 l 764 1238 l 810 1176 l 910 1176 l 806 1315 z "},"":{"ha":1018,"x_min":104,"x_max":1224,"o":"m 665 211 l 663 200 l 750 200 l 750 204 l 674 204 l 665 211 m 1083 1151 l 1144 1151 l 1143 1143 l 1224 1063 l 1146 631 l 933 631 l 893 407 l 1014 407 l 1013 399 l 1093 318 l 1014 -121 l 194 -121 l 114 -40 l 104 -40 l 146 200 l 217 200 l 333 857 l 282 910 l 272 910 l 314 1151 l 531 1151 q 518 1200 518 1168 l 518 1211 l 517 1210 l 532 1290 q 621 1371 549 1371 l 696 1371 q 763 1335 749 1371 l 782 1315 q 864 1371 806 1371 l 939 1371 q 1006 1335 992 1371 l 1076 1265 q 1093 1214 1093 1249 q 1093 1204 1093 1210 q 1090 1192 1093 1199 l 1092 1192 l 1083 1151 m 576 481 l 661 481 l 633 325 l 742 325 l 825 793 l 717 793 l 688 631 l 603 631 l 660 950 l 926 950 l 890 751 l 1031 751 l 1094 1111 l 349 1111 l 321 950 l 392 950 l 251 160 l 181 160 l 153 0 l 899 0 l 964 367 l 824 367 l 786 160 l 519 160 l 576 481 m 803 1215 q 801 1200 801 1210 q 835 1167 801 1167 l 910 1167 q 958 1215 950 1167 l 971 1283 q 972 1299 972 1289 q 939 1331 972 1331 l 864 1331 q 815 1281 824 1331 l 803 1215 m 560 1215 q 558 1200 558 1210 q 593 1167 558 1167 l 667 1167 q 715 1215 707 1167 l 728 1283 q 729 1299 729 1289 q 696 1331 729 1331 l 621 1331 q 572 1281 581 1331 l 560 1215 z "},"":{"ha":678,"x_min":104,"x_max":888,"o":"m 646 1267 l 735 1151 l 808 1151 l 807 1143 l 888 1063 l 847 829 l 775 829 l 658 171 l 719 111 l 679 -121 l 194 -121 l 114 -40 l 104 -40 l 146 200 l 217 200 l 333 857 l 282 910 l 272 910 l 314 1151 l 442 1151 l 339 1207 l 267 1279 l 249 1289 l 267 1356 l 563 1356 l 582 1329 l 646 1267 m 592 160 l 519 160 l 660 950 l 732 950 l 760 1111 l 349 1111 l 321 950 l 392 950 l 251 160 l 181 160 l 153 0 l 564 0 l 592 160 m 651 1176 l 564 1315 l 286 1315 l 544 1176 l 651 1176 z "},"":{"ha":678,"x_min":104,"x_max":981,"o":"m 114 -40 l 104 -40 l 146 200 l 217 200 l 333 857 l 282 910 l 272 910 l 314 1151 l 364 1151 l 596 1356 l 886 1356 l 888 1344 l 967 1267 l 981 1203 l 819 1131 l 888 1063 l 847 829 l 775 829 l 658 171 l 719 111 l 679 -121 l 194 -121 l 114 -40 m 592 160 l 519 160 l 660 950 l 732 950 l 760 1111 l 349 1111 l 321 950 l 392 950 l 251 160 l 181 160 l 153 0 l 564 0 l 592 160 m 560 1176 l 867 1315 l 610 1315 l 453 1176 l 560 1176 z "},"":{"ha":678,"x_min":104,"x_max":903,"o":"m 678 1333 l 744 1267 l 903 1056 l 886 1056 l 847 829 l 775 829 l 658 171 l 719 111 l 679 -121 l 194 -121 l 114 -40 l 104 -40 l 146 200 l 217 200 l 333 857 l 282 910 l 272 910 l 307 1113 l 283 1136 l 268 1136 l 511 1356 l 661 1356 l 678 1333 m 592 160 l 519 160 l 660 950 l 732 950 l 760 1111 l 349 1111 l 321 950 l 392 950 l 251 160 l 181 160 l 153 0 l 564 0 l 592 160 m 642 1315 l 525 1315 l 372 1176 l 535 1176 l 600 1238 l 646 1176 l 746 1176 l 642 1315 z "},"":{"ha":678,"x_min":104,"x_max":906,"o":"m 114 -40 l 104 -40 l 146 200 l 217 200 l 333 857 l 282 910 l 272 910 l 314 1151 l 349 1151 q 331 1207 331 1169 l 331 1218 l 329 1217 l 344 1297 q 433 1378 361 1378 l 508 1378 q 575 1342 561 1378 l 594 1322 q 676 1378 618 1378 l 751 1378 q 818 1342 804 1378 l 889 1272 q 906 1221 906 1256 q 906 1211 906 1217 q 903 1199 906 1206 l 904 1199 l 892 1132 l 892 1131 q 869 1081 886 1101 l 888 1063 l 847 829 l 775 829 l 658 171 l 719 111 l 679 -121 l 194 -121 l 114 -40 m 592 160 l 519 160 l 660 950 l 732 950 l 760 1111 l 349 1111 l 321 950 l 392 950 l 251 160 l 181 160 l 153 0 l 564 0 l 592 160 m 615 1222 q 614 1207 614 1217 q 647 1174 614 1174 l 722 1174 q 771 1222 763 1174 l 783 1290 q 785 1306 785 1296 q 751 1338 785 1338 l 676 1338 q 628 1288 636 1338 l 615 1222 m 372 1222 q 371 1207 371 1217 q 406 1174 371 1174 l 479 1174 q 528 1222 519 1174 l 540 1290 q 542 1306 542 1296 q 508 1338 542 1338 l 433 1338 q 385 1288 393 1338 l 372 1222 z "},"":{"ha":1074,"x_min":104,"x_max":1271,"o":"m 715 1056 l 847 739 l 867 847 l 807 908 l 797 908 l 825 1071 q 811 1078 818 1075 q 797 1088 804 1082 q 746 1114 757 1113 l 747 1113 q 748 1111 747 1111 q 749 1110 749 1111 q 747 1108 749 1108 l 747 1107 l 738 1056 l 715 1056 m 1006 1347 l 1086 1267 l 1064 1151 l 1192 1151 l 1190 1143 l 1271 1063 l 1231 829 l 1158 829 l 1042 171 l 1103 111 l 1063 -121 l 763 -121 l 682 -40 l 675 -40 l 531 322 l 504 172 l 567 111 l 526 -121 l 194 -121 l 114 -40 l 104 -40 l 146 200 l 217 200 l 333 857 l 282 910 l 272 910 l 314 1151 l 517 1151 l 538 1261 q 683 1360 557 1360 q 811 1321 754 1360 l 811 1322 q 858 1296 844 1300 l 858 1300 l 868 1356 l 1007 1356 l 1006 1347 m 439 160 l 365 160 l 450 636 l 703 0 l 947 0 l 975 160 l 903 160 l 1043 950 l 1115 950 l 1143 1111 l 874 1111 l 846 950 l 928 950 l 851 522 l 604 1111 l 349 1111 l 321 950 l 392 950 l 251 160 l 181 160 l 153 0 l 411 0 l 439 160 m 957 1315 l 903 1315 l 899 1293 q 864 1256 892 1256 q 789 1288 838 1256 q 683 1319 740 1319 q 578 1253 590 1319 l 564 1176 l 622 1176 l 626 1199 q 660 1235 633 1235 q 732 1203 683 1235 q 858 1171 781 1171 q 943 1239 933 1171 l 957 1315 z "},"":{"ha":993,"x_min":131,"x_max":1129,"o":"m 844 1267 l 963 1114 q 1022 1060 1003 1092 l 1083 999 q 1129 874 1129 953 q 1125 822 1129 844 l 999 103 q 660 -121 958 -121 l 489 -121 q 265 -54 329 -121 l 210 1 q 131 151 131 49 q 135 203 131 179 l 263 928 q 604 1153 304 1153 l 638 1153 l 538 1207 l 465 1279 l 447 1289 l 465 1356 l 761 1356 l 781 1329 l 844 1267 m 1004 914 q 1008 958 1008 936 q 774 1113 1008 1113 l 604 1113 q 303 918 336 1113 l 175 194 q 171 151 171 171 q 404 0 171 0 l 575 0 q 878 194 842 0 l 1004 914 m 611 206 q 519 160 603 160 q 443 197 443 160 q 444 201 443 200 q 444 206 444 203 l 568 904 q 660 950 576 950 q 736 913 736 950 q 735 908 736 910 q 735 904 735 907 l 611 206 m 850 1176 l 742 1315 l 485 1315 l 743 1176 l 850 1176 z "},"":{"ha":993,"x_min":131,"x_max":1129,"o":"m 928 1131 q 1022 1060 990 1108 l 1083 999 q 1129 874 1129 953 q 1125 822 1129 844 l 999 103 q 660 -121 958 -121 l 489 -121 q 265 -54 329 -121 l 210 1 q 131 151 131 49 q 135 203 131 179 l 263 928 q 460 1136 292 1089 l 454 1136 l 703 1356 l 993 1356 l 994 1344 l 1074 1267 l 1088 1203 l 928 1131 m 1004 914 q 1008 958 1008 936 q 774 1113 1008 1113 l 604 1113 q 303 918 336 1113 l 175 194 q 171 151 171 171 q 404 0 171 0 l 575 0 q 878 194 842 0 l 1004 914 m 611 206 q 519 160 603 160 q 443 197 443 160 q 444 201 443 200 q 444 206 444 203 l 568 904 q 660 950 576 950 q 736 913 736 950 q 735 908 736 910 q 735 904 735 907 l 611 206 m 667 1176 l 974 1315 l 717 1315 l 560 1176 l 667 1176 z "},"":{"ha":993,"x_min":131,"x_max":1129,"o":"m 838 1333 l 904 1267 l 1063 1056 l 1026 1056 l 1083 999 q 1129 874 1129 953 q 1125 822 1129 844 l 999 103 q 660 -121 958 -121 l 489 -121 q 265 -54 329 -121 l 210 1 q 131 151 131 49 q 135 203 131 179 l 263 928 q 446 1132 292 1083 l 443 1136 l 428 1136 l 671 1356 l 821 1356 l 838 1333 m 1004 914 q 1008 958 1008 936 q 774 1113 1008 1113 l 604 1113 q 303 918 336 1113 l 175 194 q 171 151 171 171 q 404 0 171 0 l 575 0 q 878 194 842 0 l 1004 914 m 611 206 q 519 160 603 160 q 443 197 443 160 q 444 201 443 200 q 444 206 444 203 l 568 904 q 660 950 576 950 q 736 913 736 950 q 735 908 736 910 q 735 904 735 907 l 611 206 m 801 1315 l 685 1315 l 532 1176 l 694 1176 l 760 1238 l 806 1176 l 906 1176 l 801 1315 z "},"":{"ha":993,"x_min":131,"x_max":1129,"o":"m 976 1347 l 1057 1267 l 1035 1149 q 1006 1081 1028 1103 q 1014 1071 1010 1076 q 1021 1060 1018 1065 l 1024 1057 l 1083 999 q 1129 874 1129 953 q 1125 822 1129 844 l 999 103 q 660 -121 958 -121 l 489 -121 q 265 -54 329 -121 l 210 1 q 131 151 131 49 q 135 203 131 179 l 263 928 q 486 1142 296 1103 l 508 1261 q 654 1360 528 1360 q 782 1321 725 1360 l 782 1322 q 829 1296 815 1300 l 829 1300 l 839 1356 l 978 1356 l 976 1347 m 1004 914 q 1008 958 1008 936 q 774 1113 1008 1113 l 604 1113 q 303 918 336 1113 l 175 194 q 171 151 171 171 q 404 0 171 0 l 575 0 q 878 194 842 0 l 1004 914 m 611 206 q 519 160 603 160 q 443 197 443 160 q 444 201 443 200 q 444 206 444 203 l 568 904 q 660 950 576 950 q 736 913 736 950 q 735 908 736 910 q 735 904 735 907 l 611 206 m 928 1315 l 874 1315 l 869 1293 q 835 1256 863 1256 q 760 1288 808 1256 q 654 1319 711 1319 q 549 1253 561 1319 l 535 1176 l 593 1176 l 597 1199 q 631 1235 604 1235 q 703 1203 654 1235 q 829 1171 751 1171 q 914 1239 904 1171 l 928 1315 z "},"":{"ha":993,"x_min":131,"x_max":1129,"o":"m 210 1 q 131 151 131 49 q 135 203 131 179 l 263 928 q 510 1146 299 1115 q 486 1207 486 1164 l 486 1218 l 485 1217 l 500 1297 q 589 1378 517 1378 l 664 1378 q 731 1342 717 1378 l 750 1322 q 832 1378 774 1378 l 907 1378 q 974 1342 960 1378 l 1044 1272 q 1061 1221 1061 1256 q 1061 1211 1061 1217 q 1058 1199 1061 1206 l 1060 1199 l 1047 1132 l 1047 1131 q 1015 1069 1039 1090 l 1024 1057 l 1083 999 q 1081 1000 1082 1000 l 1079 1001 l 1083 999 q 1129 874 1129 953 q 1125 822 1129 844 l 999 103 q 660 -121 958 -121 l 489 -121 q 265 -54 329 -121 l 210 1 m 1004 914 q 1008 958 1008 936 q 774 1113 1008 1113 l 604 1113 q 303 918 336 1113 l 175 194 q 171 151 171 171 q 404 0 171 0 l 575 0 q 878 194 842 0 l 1004 914 m 611 206 q 519 160 603 160 q 443 197 443 160 q 444 201 443 200 q 444 206 444 203 l 568 904 q 660 950 576 950 q 736 913 736 950 q 735 908 736 910 q 735 904 735 907 l 611 206 m 771 1222 q 769 1207 769 1217 q 803 1174 769 1174 l 878 1174 q 926 1222 918 1174 l 939 1290 q 940 1306 940 1296 q 907 1338 940 1338 l 832 1338 q 783 1288 792 1338 l 771 1222 m 528 1222 q 526 1207 526 1217 q 561 1174 526 1174 l 635 1174 q 683 1222 675 1174 l 696 1290 q 697 1306 697 1296 q 664 1338 697 1338 l 589 1338 q 540 1288 549 1338 l 528 1222 z "},"":{"ha":993,"x_min":131,"x_max":1129,"o":"m 1083 996 q 1076 1001 1081 997 l 1083 996 m 1013 1144 l 1094 1063 l 1067 1011 l 1076 1001 q 1075 1002 1075 1001 q 1083 996 1075 1003 q 1129 875 1129 950 q 1125 824 1129 849 l 999 103 q 660 -121 958 -121 l 489 -121 q 465 -120 476 -121 q 442 -119 453 -119 l 442 -121 l 294 -121 l 214 -40 l 203 -40 l 219 -10 l 200 8 q 131 150 131 57 q 135 203 131 179 l 263 928 q 604 1153 304 1153 l 774 1153 q 815 1151 794 1153 q 856 1146 836 1149 l 858 1151 l 1017 1151 l 1013 1144 m 949 1111 l 883 1111 l 878 1101 q 774 1113 831 1113 l 604 1113 q 303 918 336 1113 l 175 194 q 171 150 171 171 q 279 15 171 49 l 271 0 l 335 0 l 336 3 q 368 1 351 1 q 404 0 385 0 l 575 0 q 878 194 842 0 l 1004 914 q 1008 960 1008 939 q 933 1083 1008 1046 l 949 1111 m 718 811 l 472 367 l 568 904 q 660 950 576 950 q 736 913 736 950 q 735 908 736 910 q 735 904 735 907 l 718 811 m 688 639 l 611 206 q 519 160 603 160 q 443 197 444 160 l 688 639 z "},"":{"ha":1121,"x_min":215,"x_max":1329,"o":"m 664 200 q 765 254 754 201 l 871 856 l 865 863 l 860 829 l 778 829 l 664 200 m 314 1151 l 669 1151 l 567 1207 l 494 1279 l 476 1289 l 494 1356 l 790 1356 l 810 1329 l 874 1267 l 963 1151 l 1250 1151 l 1249 1143 l 1329 1063 l 1289 829 l 1211 829 l 1083 103 q 744 -121 1043 -121 l 575 -121 q 350 -54 414 -121 l 294 1 q 215 151 215 49 q 219 203 215 179 l 335 857 l 282 910 l 272 910 l 314 1151 m 858 950 l 931 950 l 806 247 q 656 160 790 160 q 536 231 536 160 q 538 247 536 242 l 663 950 l 744 950 l 772 1111 l 349 1111 l 321 950 l 393 950 l 260 194 q 256 151 256 171 q 490 0 256 0 l 660 0 q 963 194 926 0 l 1096 950 l 1174 950 l 1201 1111 l 886 1111 l 858 950 m 879 1176 l 771 1315 l 514 1315 l 772 1176 l 879 1176 z "},"":{"ha":1121,"x_min":215,"x_max":1329,"o":"m 664 200 q 765 254 754 201 l 871 856 l 865 863 l 860 829 l 778 829 l 664 200 m 294 1 q 215 151 215 49 q 219 203 215 179 l 335 857 l 282 910 l 272 910 l 314 1151 l 544 1151 l 776 1356 l 1067 1356 l 1068 1344 l 1147 1267 l 1161 1203 l 1046 1151 l 1250 1151 l 1249 1143 l 1329 1063 l 1289 829 l 1211 829 l 1083 103 q 744 -121 1043 -121 l 575 -121 q 350 -54 414 -121 l 294 1 m 858 950 l 931 950 l 806 247 q 656 160 790 160 q 536 231 536 160 q 538 247 536 242 l 663 950 l 744 950 l 772 1111 l 349 1111 l 321 950 l 393 950 l 260 194 q 256 151 256 171 q 490 0 256 0 l 660 0 q 963 194 926 0 l 1096 950 l 1174 950 l 1201 1111 l 886 1111 l 858 950 m 740 1176 l 1047 1315 l 790 1315 l 633 1176 l 740 1176 z "},"":{"ha":1121,"x_min":215,"x_max":1329,"o":"m 664 200 q 765 254 754 201 l 871 856 l 865 863 l 860 829 l 778 829 l 664 200 m 925 1333 l 992 1267 l 1078 1151 l 1250 1151 l 1249 1143 l 1329 1063 l 1289 829 l 1211 829 l 1083 103 q 744 -121 1043 -121 l 575 -121 q 350 -54 414 -121 l 294 1 q 215 151 215 49 q 219 203 215 179 l 335 857 l 282 910 l 272 910 l 314 1151 l 532 1151 l 758 1356 l 908 1356 l 925 1333 m 858 950 l 931 950 l 806 247 q 656 160 790 160 q 536 231 536 160 q 538 247 536 242 l 663 950 l 744 950 l 772 1111 l 349 1111 l 321 950 l 393 950 l 260 194 q 256 151 256 171 q 490 0 256 0 l 660 0 q 963 194 926 0 l 1096 950 l 1174 950 l 1201 1111 l 886 1111 l 858 950 m 889 1315 l 772 1315 l 619 1176 l 782 1176 l 847 1238 l 893 1176 l 993 1176 l 889 1315 z "},"":{"ha":1121,"x_min":215,"x_max":1329,"o":"m 664 200 q 765 254 754 201 l 871 856 l 865 863 l 860 829 l 778 829 l 664 200 m 593 1290 q 682 1371 610 1371 l 757 1371 q 824 1335 810 1371 l 843 1315 q 925 1371 867 1371 l 1000 1371 q 1067 1335 1053 1371 l 1138 1265 q 1154 1214 1154 1249 q 1154 1204 1154 1210 q 1151 1192 1154 1199 l 1153 1192 l 1144 1151 l 1250 1151 l 1249 1143 l 1329 1063 l 1289 829 l 1211 829 l 1083 103 q 744 -121 1043 -121 l 575 -121 q 350 -54 414 -121 l 294 1 q 215 151 215 49 q 219 203 215 179 l 335 857 l 282 910 l 272 910 l 314 1151 l 592 1151 q 579 1200 579 1168 l 579 1211 l 578 1210 l 593 1290 m 858 950 l 931 950 l 806 247 q 656 160 790 160 q 536 231 536 160 q 538 247 536 242 l 663 950 l 744 950 l 772 1111 l 349 1111 l 321 950 l 393 950 l 260 194 q 256 151 256 171 q 490 0 256 0 l 660 0 q 963 194 926 0 l 1096 950 l 1174 950 l 1201 1111 l 886 1111 l 858 950 m 864 1215 q 863 1200 863 1210 q 896 1167 863 1167 l 971 1167 q 1019 1215 1011 1167 l 1032 1283 q 1033 1299 1033 1289 q 1000 1331 1033 1331 l 925 1331 q 876 1281 885 1331 l 864 1215 m 621 1215 q 619 1200 619 1210 q 654 1167 619 1167 l 728 1167 q 776 1215 768 1167 l 789 1283 q 790 1299 790 1289 q 757 1331 790 1331 l 682 1331 q 633 1281 642 1331 l 621 1215 z "},"":{"ha":1032,"x_min":76,"x_max":1179,"o":"m 721 681 q 739 724 732 692 l 756 821 q 740 803 743 814 l 742 803 l 721 681 m 636 210 q 654 240 650 218 l 675 360 l 663 360 l 636 210 m 86 -40 l 76 -40 l 118 200 l 188 200 l 315 921 q 442 1087 335 1029 q 744 1151 550 1144 q 1075 1042 1006 1151 l 1135 982 q 1179 867 1179 938 q 1178 849 1179 857 q 1175 826 1178 840 l 1176 826 l 1144 642 q 1032 468 1124 524 l 1043 458 q 1086 339 1086 415 q 1082 288 1086 313 l 1050 103 q 706 -121 1010 -121 l 167 -121 l 86 -40 m 608 481 l 669 481 q 728 432 728 481 q 726 417 728 422 l 694 233 q 610 163 682 163 l 553 163 l 524 0 l 621 0 q 929 194 893 0 l 961 378 q 965 424 965 403 q 843 556 965 536 q 1024 733 997 582 l 1056 917 q 1058 935 1058 926 q 1058 951 1058 943 q 746 1111 1058 1111 q 468 1055 564 1104 q 356 911 372 1006 l 222 160 l 153 160 l 125 0 l 463 0 l 621 894 q 721 949 633 949 q 811 900 811 949 q 810 894 811 897 q 810 889 810 892 l 779 717 q 696 631 764 631 l 635 631 l 608 481 z "},"":{"ha":951,"x_min":122,"x_max":1078,"o":"m 943 865 l 1024 785 l 965 457 l 999 457 l 997 449 l 1078 368 l 1022 47 q 836 -121 993 -121 l 693 -121 q 583 -86 618 -121 l 575 -78 q 408 -121 510 -121 q 247 -72 296 -121 l 185 -10 q 122 111 122 25 q 123 131 122 122 q 125 149 124 140 l 214 651 q 471 874 254 874 q 589 851 544 874 l 590 864 l 443 943 l 371 1015 l 353 1025 l 371 1092 l 667 1092 l 686 1065 l 750 1003 l 850 874 l 944 874 l 943 865 m 896 833 l 628 833 l 615 767 q 471 833 594 833 q 254 643 288 833 l 165 143 q 163 126 164 135 q 163 111 163 118 q 324 0 163 0 q 504 64 440 0 q 608 0 518 0 l 751 0 q 901 139 876 0 l 950 417 l 868 417 l 824 163 q 796 139 819 139 q 778 156 778 139 l 778 163 l 896 833 m 524 243 q 482 204 515 204 q 453 235 453 204 q 454 250 453 244 l 521 633 q 564 674 529 674 q 594 649 594 674 q 594 644 594 646 q 593 639 593 642 l 524 243 m 756 913 l 647 1051 l 390 1051 l 649 913 l 756 913 z "},"":{"ha":951,"x_min":122,"x_max":1078,"o":"m 185 -10 q 122 111 122 25 q 123 131 122 122 q 125 149 124 140 l 214 651 q 381 861 243 821 l 372 872 l 357 872 l 606 1092 l 896 1092 l 897 1081 l 976 1003 l 990 939 l 844 874 l 944 874 l 943 865 l 1024 785 l 965 457 l 999 457 l 997 449 l 1078 368 l 1022 47 q 836 -121 993 -121 l 693 -121 q 583 -86 618 -121 l 575 -78 q 408 -121 510 -121 q 247 -72 296 -121 l 185 -10 m 896 833 l 628 833 l 615 767 q 471 833 594 833 q 254 643 288 833 l 165 143 q 163 126 164 135 q 163 111 163 118 q 324 0 163 0 q 504 64 440 0 q 608 0 518 0 l 751 0 q 901 139 876 0 l 950 417 l 868 417 l 824 163 q 796 139 819 139 q 778 156 778 139 l 778 163 l 896 833 m 524 243 q 482 204 515 204 q 453 235 453 204 q 454 250 453 244 l 521 633 q 564 674 529 674 q 594 649 594 674 q 594 644 594 646 q 593 639 593 642 l 524 243 m 569 913 l 876 1051 l 619 1051 l 463 913 l 569 913 z "},"":{"ha":951,"x_min":122,"x_max":1078,"o":"m 731 1069 l 797 1003 l 893 874 l 944 874 l 943 865 l 1024 785 l 965 457 l 999 457 l 997 449 l 1078 368 l 1022 47 q 836 -121 993 -121 l 693 -121 q 583 -86 618 -121 l 575 -78 q 408 -121 510 -121 q 247 -72 296 -121 l 185 -10 q 122 111 122 25 q 123 131 122 122 q 125 149 124 140 l 214 651 q 354 853 240 806 l 336 872 l 321 872 l 564 1092 l 714 1092 l 731 1069 m 896 833 l 628 833 l 615 767 q 471 833 594 833 q 254 643 288 833 l 165 143 q 163 126 164 135 q 163 111 163 118 q 324 0 163 0 q 504 64 440 0 q 608 0 518 0 l 751 0 q 901 139 876 0 l 950 417 l 868 417 l 824 163 q 796 139 819 139 q 778 156 778 139 l 778 163 l 896 833 m 524 243 q 482 204 515 204 q 453 235 453 204 q 454 250 453 244 l 521 633 q 564 674 529 674 q 594 649 594 674 q 594 644 594 646 q 593 639 593 642 l 524 243 m 694 1051 l 578 1051 l 425 913 l 588 913 l 653 974 l 699 913 l 799 913 l 694 1051 z "},"":{"ha":951,"x_min":122,"x_max":1078,"o":"m 869 1083 l 950 1003 l 928 883 q 926 874 926 879 l 944 874 l 943 865 l 1024 785 l 965 457 l 999 457 l 997 449 l 1078 368 l 1022 47 q 836 -121 993 -121 l 693 -121 q 583 -86 618 -121 l 575 -78 q 408 -121 510 -121 q 247 -72 296 -121 l 185 -10 q 122 111 122 25 q 123 131 122 122 q 125 149 124 140 l 214 651 q 393 865 246 831 l 386 872 l 378 872 l 401 997 q 547 1096 421 1096 q 675 1057 618 1096 l 675 1058 q 722 1032 708 1036 l 722 1036 l 732 1092 l 871 1092 l 869 1083 m 896 833 l 628 833 l 615 767 q 471 833 594 833 q 254 643 288 833 l 165 143 q 163 126 164 135 q 163 111 163 118 q 324 0 163 0 q 504 64 440 0 q 608 0 518 0 l 751 0 q 901 139 876 0 l 950 417 l 868 417 l 824 163 q 796 139 819 139 q 778 156 778 139 l 778 163 l 896 833 m 821 1051 l 778 1051 l 763 1029 q 728 992 756 992 q 653 1024 701 992 q 547 1056 604 1056 q 442 989 454 1056 l 428 913 l 486 913 l 490 935 q 524 971 497 971 q 596 939 547 971 q 722 907 644 907 q 807 975 797 907 l 821 1051 m 524 243 q 482 204 515 204 q 453 235 453 204 q 454 250 453 244 l 521 633 q 564 674 529 674 q 594 649 594 674 q 594 644 594 646 q 593 639 593 642 l 524 243 z "},"":{"ha":951,"x_min":122,"x_max":1078,"o":"m 185 -10 q 122 111 122 25 q 123 131 122 122 q 125 149 124 140 l 214 651 q 415 869 247 843 l 410 875 q 374 943 374 889 l 374 954 l 372 953 l 388 1033 q 476 1114 404 1114 l 551 1114 q 618 1078 604 1114 l 638 1058 q 719 1114 661 1114 l 794 1114 q 861 1078 847 1114 l 932 1008 q 949 957 949 992 q 949 947 949 953 q 946 935 949 942 l 947 935 l 935 874 l 944 874 l 943 865 l 1024 785 l 965 457 l 999 457 l 997 449 l 1078 368 l 1022 47 q 836 -121 993 -121 l 693 -121 q 583 -86 618 -121 l 575 -78 q 408 -121 510 -121 q 247 -72 296 -121 l 185 -10 m 896 833 l 628 833 l 615 767 q 471 833 594 833 q 254 643 288 833 l 165 143 q 163 126 164 135 q 163 111 163 118 q 324 0 163 0 q 504 64 440 0 q 608 0 518 0 l 751 0 q 901 139 876 0 l 950 417 l 868 417 l 824 163 q 796 139 819 139 q 778 156 778 139 l 778 163 l 896 833 m 524 243 q 482 204 515 204 q 453 235 453 204 q 454 250 453 244 l 521 633 q 564 674 529 674 q 594 649 594 674 q 594 644 594 646 q 593 639 593 642 l 524 243 m 658 958 q 657 943 657 953 q 690 910 657 910 l 765 910 q 814 958 806 910 l 826 1026 q 828 1042 828 1032 q 794 1074 828 1074 l 719 1074 q 671 1024 679 1074 l 658 958 m 415 958 q 414 943 414 953 q 449 910 414 910 l 522 910 q 571 958 563 910 l 583 1026 q 585 1042 585 1032 q 551 1074 585 1074 l 476 1074 q 428 1024 436 1074 l 415 958 z "},"":{"ha":951,"x_min":122,"x_max":1078,"o":"m 479 993 q 501 1053 485 1025 q 540 1103 517 1082 q 592 1136 564 1124 q 650 1149 621 1149 q 718 1131 689 1149 q 764 1083 747 1114 l 824 1024 q 852 981 842 1006 q 863 925 863 956 q 863 913 863 919 q 860 897 863 907 l 861 897 q 854 874 860 886 l 944 874 l 943 865 l 1024 785 l 965 457 l 999 457 l 997 449 l 1078 368 l 1022 47 q 836 -121 993 -121 l 693 -121 q 583 -86 618 -121 l 575 -78 q 408 -121 510 -121 q 247 -72 296 -121 l 185 -10 q 122 111 122 25 q 123 131 122 122 q 125 149 124 140 l 214 651 q 471 874 254 874 q 490 874 481 874 q 508 872 500 874 q 478 965 478 910 q 478 979 478 972 q 479 993 478 986 m 896 833 l 628 833 l 615 767 q 471 833 594 833 q 254 643 288 833 l 165 143 q 163 126 164 135 q 163 111 163 118 q 324 0 163 0 q 504 64 440 0 q 608 0 518 0 l 751 0 q 901 139 876 0 l 950 417 l 868 417 l 824 163 q 796 139 819 139 q 778 156 778 139 l 778 163 l 896 833 m 519 988 q 518 975 518 981 q 518 965 518 971 q 543 896 518 924 q 608 868 568 868 q 693 903 654 868 q 740 988 732 938 q 742 999 742 993 q 742 1010 742 1004 q 716 1081 742 1053 q 650 1108 690 1108 q 566 1073 604 1108 q 519 988 528 1038 m 524 243 q 482 204 515 204 q 453 235 453 204 q 454 250 453 244 l 521 633 q 564 674 529 674 q 594 649 594 674 q 594 644 594 646 q 593 639 593 642 l 524 243 m 554 988 q 585 1046 560 1022 q 643 1069 611 1069 q 690 1050 672 1069 q 707 1001 707 1031 q 706 988 707 993 q 672 929 699 953 q 614 906 646 906 q 569 924 586 906 q 553 969 553 942 q 554 988 553 981 z "},"":{"ha":1171,"x_min":126,"x_max":1265,"o":"m 192 1 q 126 119 126 42 q 127 135 126 129 q 129 149 128 142 l 218 651 q 476 874 258 874 q 593 851 544 874 l 597 874 l 846 874 l 844 865 l 846 864 q 911 874 874 874 q 1158 781 1099 874 l 1219 719 q 1265 594 1265 674 q 1261 543 1265 565 l 1210 257 l 1208 257 l 1183 103 q 844 -121 1143 -121 q 672 -72 725 -121 q 497 -121 603 -121 q 251 -57 315 -121 l 192 1 m 843 335 l 821 208 q 765 163 814 163 q 724 197 724 163 q 724 203 724 200 q 725 208 725 206 l 756 378 l 1094 378 l 1140 635 q 1144 679 1144 657 q 911 833 1144 833 q 794 796 846 833 l 800 833 l 632 833 l 619 767 q 476 833 599 833 q 258 643 292 833 l 169 143 q 167 131 168 136 q 167 119 167 125 q 413 0 167 0 q 594 64 526 0 q 760 0 629 0 q 969 49 893 0 q 1063 194 1046 97 l 1086 335 l 843 335 m 528 243 q 486 204 519 204 q 457 235 457 204 q 458 250 457 244 l 525 633 q 568 674 533 674 q 599 649 599 674 q 598 644 599 646 q 597 639 597 642 l 528 243 m 779 514 l 799 625 q 842 671 807 671 q 871 640 871 671 q 869 625 871 631 l 850 514 l 779 514 z "},"":{"ha":867,"x_min":156,"x_max":1010,"o":"m 221 11 q 156 150 156 60 q 160 204 156 181 l 238 646 q 581 874 279 874 l 656 874 q 903 781 843 874 l 964 719 q 1010 594 1010 674 q 1006 543 1010 565 l 971 353 l 931 353 l 965 318 l 928 103 q 663 -117 892 -92 l 664 -118 q 686 -176 686 -140 q 686 -187 686 -183 q 683 -200 686 -193 l 660 -331 q 513 -433 640 -433 l 463 -433 q 365 -404 394 -433 l 299 -337 q 254 -256 254 -314 l 254 -242 l 253 -244 l 271 -139 l 353 -139 l 347 -133 l 338 -133 l 344 -93 q 289 -56 313 -79 l 221 11 m 838 367 l 569 367 l 540 208 q 497 163 533 163 q 468 194 468 163 q 469 201 468 197 q 469 208 469 204 l 543 625 q 586 671 551 671 q 615 640 615 671 q 614 625 615 631 l 588 474 l 856 474 l 885 635 q 889 679 889 657 q 656 833 889 833 l 581 833 q 278 639 314 833 l 200 194 q 196 150 196 171 q 404 0 196 8 l 388 -93 l 443 -93 q 464 -107 464 -93 l 464 -110 l 442 -235 q 415 -253 440 -253 q 393 -237 393 -253 l 393 -235 l 403 -179 l 306 -179 l 296 -237 q 294 -256 294 -244 q 378 -312 294 -312 l 428 -312 q 540 -239 525 -312 l 564 -104 q 565 -92 565 -100 q 461 -35 565 -35 l 454 -35 l 460 0 l 504 0 q 807 194 771 0 l 838 367 z "},"":{"ha":835,"x_min":111,"x_max":965,"o":"m 317 1015 l 299 1025 l 317 1092 l 613 1092 l 632 1065 l 696 1003 l 861 792 l 850 792 q 857 782 853 786 l 919 719 q 917 721 918 721 l 915 722 l 919 719 q 965 594 965 674 q 961 543 965 565 l 910 257 l 908 257 l 883 103 q 544 -121 843 -121 l 469 -121 q 246 -54 310 -121 l 190 1 q 111 151 111 49 q 115 204 111 181 l 193 646 q 517 874 233 865 l 389 943 l 317 1015 m 786 335 l 543 335 l 521 208 q 465 163 514 163 q 424 197 424 163 q 424 203 424 200 q 425 208 425 206 l 456 378 l 794 378 l 840 635 q 844 679 844 657 q 610 833 844 833 l 536 833 q 233 639 269 833 l 156 194 q 151 151 151 171 q 385 0 151 0 l 460 0 q 763 194 726 0 l 786 335 m 701 913 l 593 1051 l 336 1051 l 594 913 l 701 913 m 550 514 l 479 514 l 499 625 q 542 671 507 671 q 571 640 571 671 q 569 625 571 631 l 550 514 z "},"":{"ha":835,"x_min":111,"x_max":965,"o":"m 754 854 q 858 781 824 832 l 919 719 q 965 594 965 674 q 961 543 965 565 l 910 257 l 908 257 l 883 103 q 544 -121 843 -121 l 469 -121 q 246 -54 310 -121 l 190 1 q 111 151 111 49 q 115 204 111 181 l 193 646 q 350 843 218 789 l 322 872 l 307 872 l 556 1092 l 846 1092 l 847 1081 l 926 1003 l 940 939 l 754 854 m 786 335 l 543 335 l 521 208 q 465 163 514 163 q 424 197 424 163 q 424 203 424 200 q 425 208 425 206 l 456 378 l 794 378 l 840 635 q 844 679 844 657 q 610 833 844 833 l 536 833 q 233 639 269 833 l 156 194 q 151 151 151 171 q 385 0 151 0 l 460 0 q 763 194 726 0 l 786 335 m 519 913 l 826 1051 l 569 1051 l 413 913 l 519 913 m 550 514 l 479 514 l 499 625 q 542 671 507 671 q 571 640 571 671 q 569 625 571 631 l 550 514 z "},"":{"ha":835,"x_min":111,"x_max":965,"o":"m 701 1069 l 768 1003 l 926 792 l 850 792 q 857 782 853 786 l 919 719 q 965 594 965 674 q 961 543 965 565 l 910 257 l 908 257 l 883 103 q 544 -121 843 -121 l 469 -121 q 246 -54 310 -121 l 190 1 q 111 151 111 49 q 115 204 111 181 l 193 646 q 339 838 218 783 l 307 872 l 292 872 l 535 1092 l 685 1092 l 701 1069 m 786 335 l 543 335 l 521 208 q 465 163 514 163 q 424 197 424 163 q 424 203 424 200 q 425 208 425 206 l 456 378 l 794 378 l 840 635 q 844 679 844 657 q 610 833 844 833 l 536 833 q 233 639 269 833 l 156 194 q 151 151 151 171 q 385 0 151 0 l 460 0 q 763 194 726 0 l 786 335 m 665 1051 l 549 1051 l 396 913 l 558 913 l 624 974 l 669 913 l 769 913 l 665 1051 m 550 514 l 479 514 l 499 625 q 542 671 507 671 q 571 640 571 671 q 569 625 571 631 l 550 514 z "},"":{"ha":835,"x_min":111,"x_max":965,"o":"m 190 1 q 111 151 111 49 q 115 204 111 181 l 193 646 q 397 858 222 814 l 379 876 q 344 943 344 890 l 344 954 l 343 953 l 358 1033 q 447 1114 375 1114 l 522 1114 q 589 1078 575 1114 l 608 1058 q 690 1114 632 1114 l 765 1114 q 832 1078 818 1114 l 903 1008 q 919 957 919 992 q 919 947 919 953 q 917 935 919 942 l 918 935 l 906 867 q 850 793 893 808 q 856 785 853 789 q 861 776 858 781 l 919 719 q 965 594 965 674 q 961 543 965 565 l 910 257 l 908 257 l 883 103 q 544 -121 843 -121 l 469 -121 q 246 -54 310 -121 l 190 1 m 786 335 l 543 335 l 521 208 q 465 163 514 163 q 424 197 424 163 q 424 203 424 200 q 425 208 425 206 l 456 378 l 794 378 l 840 635 q 844 679 844 657 q 610 833 844 833 l 536 833 q 233 639 269 833 l 156 194 q 151 151 151 171 q 385 0 151 0 l 460 0 q 763 194 726 0 l 786 335 m 629 958 q 628 943 628 953 q 661 910 628 910 l 736 910 q 785 958 776 910 l 797 1026 q 799 1042 799 1032 q 765 1074 799 1074 l 690 1074 q 642 1024 650 1074 l 629 958 m 386 958 q 385 943 385 953 q 419 910 385 910 l 493 910 q 542 958 533 910 l 554 1026 q 556 1042 556 1032 q 522 1074 556 1074 l 447 1074 q 399 1024 407 1074 l 386 958 m 550 514 l 479 514 l 499 625 q 542 671 507 671 q 571 640 571 671 q 569 625 571 631 l 550 514 z "},"":{"ha":638,"x_min":125,"x_max":743,"o":"m 183 -21 q 125 99 125 13 q 126 118 125 108 q 129 140 126 128 l 128 140 l 204 576 l 156 626 l 146 626 l 189 874 l 390 874 l 263 943 l 190 1015 l 172 1025 l 190 1092 l 486 1092 l 506 1065 l 569 1003 l 735 792 l 682 792 l 689 785 l 631 457 l 664 457 l 663 449 l 743 368 l 688 47 q 501 -121 658 -121 l 358 -121 q 247 -85 283 -121 l 183 -21 m 561 833 l 224 833 l 194 667 l 264 667 l 169 138 q 165 99 165 117 q 274 0 165 0 l 417 0 q 567 139 542 0 l 615 417 l 535 417 l 490 163 q 463 139 486 139 q 443 157 443 139 l 443 163 l 561 833 m 575 913 l 467 1051 l 210 1051 l 468 913 l 575 913 z "},"":{"ha":638,"x_min":125,"x_max":800,"o":"m 183 -21 q 125 99 125 13 q 126 118 125 108 q 129 140 126 128 l 128 140 l 204 576 l 156 626 l 146 626 l 188 865 l 182 872 l 167 872 l 415 1092 l 706 1092 l 707 1081 l 786 1003 l 800 939 l 617 856 l 689 785 l 631 457 l 664 457 l 663 449 l 743 368 l 688 47 q 501 -121 658 -121 l 358 -121 q 247 -85 283 -121 l 183 -21 m 561 833 l 224 833 l 194 667 l 264 667 l 169 138 q 165 99 165 117 q 274 0 165 0 l 417 0 q 567 139 542 0 l 615 417 l 535 417 l 490 163 q 463 139 486 139 q 443 157 443 139 l 443 163 l 561 833 m 379 913 l 686 1051 l 429 1051 l 272 913 l 379 913 z "},"":{"ha":638,"x_min":125,"x_max":765,"o":"m 540 1069 l 607 1003 l 765 792 l 682 792 l 689 785 l 631 457 l 664 457 l 663 449 l 743 368 l 688 47 q 501 -121 658 -121 l 358 -121 q 247 -85 283 -121 l 183 -21 q 125 99 125 13 q 126 118 125 108 q 129 140 126 128 l 128 140 l 204 576 l 156 626 l 146 626 l 182 835 l 146 872 l 131 872 l 374 1092 l 524 1092 l 540 1069 m 561 833 l 224 833 l 194 667 l 264 667 l 169 138 q 165 99 165 117 q 274 0 165 0 l 417 0 q 567 139 542 0 l 615 417 l 535 417 l 490 163 q 463 139 486 139 q 443 157 443 139 l 443 163 l 561 833 m 504 1051 l 388 1051 l 235 913 l 397 913 l 463 974 l 508 913 l 608 913 l 504 1051 z "},"":{"ha":638,"x_min":125,"x_max":758,"o":"m 183 -21 q 125 99 125 13 q 126 118 125 108 q 129 140 126 128 l 128 140 l 204 576 l 156 626 l 146 626 l 189 874 l 222 874 l 221 875 q 183 943 183 888 l 183 954 l 182 953 l 197 1033 q 286 1114 214 1114 l 361 1114 q 428 1078 414 1114 l 447 1058 q 529 1114 471 1114 l 604 1114 q 671 1078 657 1114 l 742 1008 q 758 957 758 992 q 758 947 758 953 q 756 935 758 942 l 757 935 l 744 867 q 682 792 732 803 l 689 785 l 631 457 l 664 457 l 663 449 l 743 368 l 688 47 q 501 -121 658 -121 l 358 -121 q 247 -85 283 -121 l 183 -21 m 561 833 l 224 833 l 194 667 l 264 667 l 169 138 q 165 99 165 117 q 274 0 165 0 l 417 0 q 567 139 542 0 l 615 417 l 535 417 l 490 163 q 463 139 486 139 q 443 157 443 139 l 443 163 l 561 833 m 468 958 q 467 943 467 953 q 500 910 467 910 l 575 910 q 624 958 615 910 l 636 1026 q 638 1042 638 1032 q 604 1074 638 1074 l 529 1074 q 481 1024 489 1074 l 468 958 m 225 958 q 224 943 224 953 q 258 910 224 910 l 332 910 q 381 958 372 910 l 393 1026 q 394 1042 394 1032 q 361 1074 394 1074 l 286 1074 q 238 1024 246 1074 l 225 958 z "},"":{"ha":976,"x_min":97,"x_max":1082,"o":"m 858 1083 l 939 1003 l 917 883 q 886 817 908 842 q 894 808 890 813 q 900 797 897 803 l 963 736 q 999 638 999 700 q 998 617 999 626 q 996 600 997 608 l 969 457 l 1003 457 l 1001 449 l 1082 368 l 1026 47 q 840 -121 997 -121 l 697 -121 q 586 -85 622 -121 l 543 -42 l 529 -121 l 188 -121 l 107 -40 l 97 -40 l 206 575 l 156 626 l 146 626 l 189 874 l 367 874 l 390 997 q 536 1096 410 1096 q 664 1057 607 1096 l 664 1058 q 711 1032 697 1036 l 711 1036 l 721 1092 l 860 1092 l 858 1083 m 414 0 l 517 583 q 560 629 525 629 q 589 599 589 629 q 588 583 589 589 l 508 138 q 504 99 504 117 q 613 0 504 0 l 756 0 q 906 139 881 0 l 954 417 l 872 417 l 828 163 q 801 139 824 139 q 782 157 782 139 l 782 163 l 875 690 q 877 707 876 699 q 878 722 878 715 q 718 833 878 833 q 551 778 593 833 l 561 833 l 224 833 l 194 667 l 264 667 l 146 0 l 414 0 m 810 1051 l 756 1051 l 751 1029 q 717 992 744 992 q 642 1024 690 992 q 536 1056 593 1056 q 431 989 443 1056 l 417 913 l 475 913 l 479 935 q 513 971 486 971 q 585 939 536 971 q 711 907 633 907 q 796 975 786 907 l 810 1051 z "},"":{"ha":842,"x_min":111,"x_max":965,"o":"m 338 1015 l 319 1025 l 338 1092 l 633 1092 l 653 1065 l 717 1003 l 882 792 l 850 792 q 857 782 853 786 l 919 719 q 965 594 965 674 q 961 543 965 565 l 883 103 q 544 -121 843 -121 l 469 -121 q 246 -54 310 -121 l 190 1 q 111 151 111 49 q 115 204 111 181 l 193 646 q 536 874 235 874 l 538 874 l 410 943 l 338 1015 m 840 635 q 844 679 844 657 q 610 833 844 833 l 536 833 q 233 639 269 833 l 156 194 q 151 151 151 171 q 385 0 151 0 l 460 0 q 763 194 726 0 l 840 635 m 496 206 q 451 160 488 160 q 424 189 424 160 q 424 196 424 192 q 425 206 424 201 l 499 625 q 542 671 507 671 q 571 640 571 671 q 569 625 571 631 l 496 206 m 722 913 l 614 1051 l 357 1051 l 615 913 l 722 913 z "},"":{"ha":842,"x_min":111,"x_max":965,"o":"m 756 854 q 858 781 824 832 l 919 719 q 917 721 918 721 l 915 722 l 919 719 q 965 594 965 674 q 961 543 965 565 l 883 103 q 544 -121 843 -121 l 469 -121 q 246 -54 310 -121 l 190 1 q 111 151 111 49 q 115 204 111 181 l 193 646 q 351 843 218 790 l 324 872 l 308 872 l 557 1092 l 847 1092 l 849 1081 l 928 1003 l 942 939 l 756 854 m 840 635 q 844 679 844 657 q 610 833 844 833 l 536 833 q 233 639 269 833 l 156 194 q 151 151 151 171 q 385 0 151 0 l 460 0 q 763 194 726 0 l 840 635 m 496 206 q 451 160 488 160 q 424 189 424 160 q 424 196 424 192 q 425 206 424 201 l 499 625 q 542 671 507 671 q 571 640 571 671 q 569 625 571 631 l 496 206 m 521 913 l 828 1051 l 571 1051 l 414 913 l 521 913 z "},"":{"ha":842,"x_min":111,"x_max":965,"o":"m 690 1069 l 757 1003 l 915 792 l 850 792 q 857 782 853 786 l 919 719 q 965 594 965 674 q 961 543 965 565 l 883 103 q 544 -121 843 -121 l 469 -121 q 246 -54 310 -121 l 190 1 q 111 151 111 49 q 115 204 111 181 l 193 646 q 333 835 215 778 l 296 872 l 281 872 l 524 1092 l 674 1092 l 690 1069 m 840 635 q 844 679 844 657 q 610 833 844 833 l 536 833 q 233 639 269 833 l 156 194 q 151 151 151 171 q 385 0 151 0 l 460 0 q 763 194 726 0 l 840 635 m 496 206 q 451 160 488 160 q 424 189 424 160 q 424 196 424 192 q 425 206 424 201 l 499 625 q 542 671 507 671 q 571 640 571 671 q 569 625 571 631 l 496 206 m 654 1051 l 538 1051 l 385 913 l 547 913 l 613 974 l 658 913 l 758 913 l 654 1051 z "},"":{"ha":842,"x_min":111,"x_max":965,"o":"m 832 1083 l 913 1003 l 890 885 l 890 883 q 842 801 881 825 q 860 776 850 793 l 919 719 q 917 721 918 721 l 915 722 l 919 719 q 965 594 965 674 q 961 543 965 565 l 883 103 q 544 -121 843 -121 l 469 -121 q 246 -54 310 -121 l 190 1 q 111 151 111 49 q 115 204 111 181 l 193 646 q 371 850 221 801 l 350 872 l 340 872 l 364 997 q 510 1096 383 1096 q 638 1057 581 1096 l 638 1058 q 685 1032 671 1036 l 685 1036 l 694 1092 l 833 1092 l 832 1083 m 840 635 q 844 679 844 657 q 610 833 844 833 l 536 833 q 233 639 269 833 l 156 194 q 151 151 151 171 q 385 0 151 0 l 460 0 q 763 194 726 0 l 840 635 m 783 1051 l 729 1051 l 725 1029 q 690 992 718 992 q 615 1024 664 992 q 510 1056 567 1056 q 404 989 417 1056 l 390 913 l 449 913 l 453 935 q 486 971 460 971 q 558 939 510 971 q 685 907 607 907 q 769 975 760 907 l 783 1051 m 496 206 q 451 160 488 160 q 424 189 424 160 q 424 196 424 192 q 425 206 424 201 l 499 625 q 542 671 507 671 q 571 640 571 671 q 569 625 571 631 l 496 206 z "},"":{"ha":842,"x_min":111,"x_max":965,"o":"m 190 1 q 111 151 111 49 q 115 204 111 181 l 193 646 q 396 857 222 813 l 385 869 q 350 936 350 883 l 350 947 l 349 946 l 364 1026 q 453 1107 381 1107 l 528 1107 q 594 1071 581 1107 l 614 1051 q 696 1107 638 1107 l 771 1107 q 838 1071 824 1107 l 908 1001 q 925 950 925 985 q 925 940 925 946 q 922 928 925 935 l 924 928 l 911 860 q 854 785 899 801 q 860 778 858 781 l 919 719 q 965 594 965 674 q 961 543 965 565 l 883 103 q 544 -121 843 -121 l 469 -121 q 246 -54 310 -121 l 190 1 m 840 635 q 844 679 844 657 q 610 833 844 833 l 536 833 q 233 639 269 833 l 156 194 q 151 151 151 171 q 385 0 151 0 l 460 0 q 763 194 726 0 l 840 635 m 496 206 q 451 160 488 160 q 424 189 424 160 q 424 196 424 192 q 425 206 424 201 l 499 625 q 542 671 507 671 q 571 640 571 671 q 569 625 571 631 l 496 206 m 635 951 q 633 936 633 946 q 667 903 633 903 l 742 903 q 790 951 782 903 l 803 1019 q 804 1035 804 1025 q 771 1067 804 1067 l 696 1067 q 647 1017 656 1067 l 635 951 m 392 951 q 390 936 390 946 q 425 903 390 903 l 499 903 q 547 951 539 903 l 560 1019 q 561 1035 561 1025 q 528 1067 561 1067 l 453 1067 q 404 1017 413 1067 l 392 951 z "},"":{"ha":760,"x_min":183,"x_max":857,"o":"m 411 811 q 515 904 428 904 l 564 904 q 636 867 619 904 l 706 797 q 725 738 725 779 q 725 728 725 733 q 722 713 725 722 l 724 711 l 717 675 l 717 674 q 715 671 715 672 l 778 671 l 776 663 l 857 582 l 818 360 l 586 360 l 622 324 q 642 265 642 304 q 642 256 642 261 q 639 242 642 251 l 640 240 l 633 203 q 538 113 619 113 l 489 113 q 428 133 449 113 l 360 201 q 319 275 319 218 q 319 282 319 278 q 321 296 319 288 l 319 296 l 328 340 q 330 350 329 346 q 332 360 331 354 l 274 360 l 193 440 l 183 440 l 224 671 l 443 671 l 442 671 q 403 747 403 689 q 403 754 403 750 q 404 768 403 760 l 403 768 l 411 811 m 258 631 l 232 481 l 703 481 l 729 631 l 258 631 m 444 765 q 443 747 443 758 q 486 704 443 704 l 535 704 q 596 765 585 704 l 603 803 q 604 813 604 808 q 604 822 604 818 q 564 864 604 864 l 515 864 q 451 801 461 864 l 444 765 m 361 293 q 360 275 360 286 q 404 233 360 233 l 453 233 q 513 293 503 233 l 519 332 q 521 350 521 339 q 481 392 521 392 l 432 392 q 368 331 379 392 l 361 293 z "},"":{"ha":842,"x_min":26,"x_max":1097,"o":"m 1015 867 l 1097 785 l 961 632 q 965 593 965 613 q 961 543 965 565 l 883 103 q 544 -121 843 -121 l 469 -121 q 314 -97 376 -121 l 293 -121 l 121 -121 l 40 -40 l 26 -40 l 128 72 q 111 150 111 107 q 115 204 111 181 l 193 646 q 536 874 235 874 l 610 874 q 799 831 725 874 l 839 874 l 1021 874 l 1015 867 m 933 833 l 856 833 l 806 778 q 610 833 750 833 l 536 833 q 233 639 269 833 l 156 194 q 151 150 151 171 q 176 67 151 100 l 117 0 l 193 0 l 221 31 q 385 0 278 0 l 460 0 q 763 194 726 0 l 840 635 q 844 678 844 657 q 838 725 844 701 l 933 833 m 544 483 l 456 382 l 499 625 q 542 671 507 671 q 571 640 571 671 q 569 625 571 631 l 544 483 m 436 274 l 525 374 l 496 206 q 451 160 488 160 q 424 189 424 160 q 424 196 424 192 q 425 206 424 201 l 436 274 z "},"":{"ha":963,"x_min":115,"x_max":1069,"o":"m 957 457 l 990 457 l 989 449 l 1069 368 l 1014 47 q 828 -121 985 -121 l 685 -121 q 575 -85 611 -121 l 567 -76 q 401 -121 499 -121 q 240 -72 289 -121 l 178 -10 q 115 111 115 25 q 116 131 115 122 q 118 149 117 140 l 194 585 l 156 626 l 146 626 l 189 874 l 557 874 l 429 943 l 357 1015 l 339 1025 l 357 1092 l 653 1092 l 672 1065 l 736 1003 l 836 874 l 936 874 l 935 865 l 1015 785 l 957 457 m 743 0 q 893 139 868 0 l 942 417 l 860 417 l 815 163 q 789 139 811 139 q 769 157 769 139 l 769 163 l 888 833 l 619 833 l 517 250 q 472 204 508 204 q 444 233 444 204 q 444 240 444 236 q 446 250 444 246 l 549 833 l 224 833 l 194 667 l 251 667 l 158 143 q 156 126 157 135 q 156 111 156 118 q 317 0 156 0 q 494 67 433 0 q 600 0 508 0 l 743 0 m 742 913 l 633 1051 l 376 1051 l 635 913 l 742 913 z "},"":{"ha":963,"x_min":115,"x_max":1069,"o":"m 957 457 l 990 457 l 989 449 l 1069 368 l 1014 47 q 828 -121 985 -121 l 685 -121 q 575 -85 611 -121 l 567 -76 q 401 -121 499 -121 q 240 -72 289 -121 l 178 -10 q 115 111 115 25 q 116 131 115 122 q 118 149 117 140 l 194 585 l 156 626 l 146 626 l 189 874 l 319 874 l 567 1092 l 857 1092 l 858 1081 l 938 1003 l 951 939 l 806 874 l 936 874 l 935 865 l 1015 785 l 957 457 m 743 0 q 893 139 868 0 l 942 417 l 860 417 l 815 163 q 789 139 811 139 q 769 157 769 139 l 769 163 l 888 833 l 619 833 l 517 250 q 472 204 508 204 q 444 233 444 204 q 444 240 444 236 q 446 250 444 246 l 549 833 l 224 833 l 194 667 l 251 667 l 158 143 q 156 126 157 135 q 156 111 156 118 q 317 0 156 0 q 494 67 433 0 q 600 0 508 0 l 743 0 m 531 913 l 838 1051 l 581 1051 l 424 913 l 531 913 z "},"":{"ha":963,"x_min":115,"x_max":1069,"o":"m 711 1069 l 778 1003 l 874 874 l 936 874 l 935 865 l 1015 785 l 957 457 l 990 457 l 989 449 l 1069 368 l 1014 47 q 828 -121 985 -121 l 685 -121 q 575 -85 611 -121 l 567 -76 q 401 -121 499 -121 q 240 -72 289 -121 l 178 -10 q 115 111 115 25 q 116 131 115 122 q 118 149 117 140 l 194 585 l 156 626 l 146 626 l 189 874 l 303 874 l 544 1092 l 694 1092 l 711 1069 m 743 0 q 893 139 868 0 l 942 417 l 860 417 l 815 163 q 789 139 811 139 q 769 157 769 139 l 769 163 l 888 833 l 619 833 l 517 250 q 472 204 508 204 q 444 233 444 204 q 444 240 444 236 q 446 250 444 246 l 549 833 l 224 833 l 194 667 l 251 667 l 158 143 q 156 126 157 135 q 156 111 156 118 q 317 0 156 0 q 494 67 433 0 q 600 0 508 0 l 743 0 m 675 1051 l 558 1051 l 406 913 l 568 913 l 633 974 l 679 913 l 779 913 l 675 1051 z "},"":{"ha":963,"x_min":115,"x_max":1069,"o":"m 957 457 l 990 457 l 989 449 l 1069 368 l 1014 47 q 828 -121 985 -121 l 685 -121 q 575 -85 611 -121 l 567 -76 q 401 -121 499 -121 q 240 -72 289 -121 l 178 -10 q 115 111 115 25 q 116 131 115 122 q 118 149 117 140 l 194 585 l 156 626 l 146 626 l 189 874 l 400 874 l 399 875 q 361 943 361 888 l 361 954 l 360 953 l 375 1033 q 464 1114 392 1114 l 539 1114 q 606 1078 592 1114 l 625 1058 q 707 1114 649 1114 l 782 1114 q 849 1078 835 1114 l 919 1008 q 936 957 936 992 q 936 947 936 953 q 933 935 936 942 l 935 935 l 922 874 l 936 874 l 935 865 l 1015 785 l 957 457 m 743 0 q 893 139 868 0 l 942 417 l 860 417 l 815 163 q 789 139 811 139 q 769 157 769 139 l 769 163 l 888 833 l 619 833 l 517 250 q 472 204 508 204 q 444 233 444 204 q 444 240 444 236 q 446 250 444 246 l 549 833 l 224 833 l 194 667 l 251 667 l 158 143 q 156 126 157 135 q 156 111 156 118 q 317 0 156 0 q 494 67 433 0 q 600 0 508 0 l 743 0 m 646 958 q 644 943 644 953 q 678 910 644 910 l 753 910 q 801 958 793 910 l 814 1026 q 815 1042 815 1032 q 782 1074 815 1074 l 707 1074 q 658 1024 667 1074 l 646 958 m 403 958 q 401 943 401 953 q 436 910 401 910 l 510 910 q 558 958 550 910 l 571 1026 q 572 1042 572 1032 q 539 1074 572 1074 l 464 1074 q 415 1024 424 1074 l 403 958 z "},"":{"ha":946,"x_min":139,"x_max":1133,"o":"m 665 603 l 665 586 l 671 597 l 665 603 m 656 785 l 657 764 l 668 832 q 640 800 657 811 l 656 785 m 226 -290 q 149 -125 149 -246 q 151 -80 149 -106 q 160 -19 153 -54 l 336 -19 l 301 15 l 293 15 l 218 557 l 149 626 l 139 626 l 182 874 l 401 874 l 400 875 q 363 943 363 888 l 363 954 l 361 953 l 376 1033 q 465 1114 393 1114 l 540 1114 q 607 1078 593 1114 l 626 1058 q 708 1114 650 1114 l 783 1114 q 850 1078 836 1114 l 921 1008 q 938 957 938 992 q 938 947 938 953 q 935 935 938 942 l 936 935 l 924 874 l 1054 874 l 1053 865 l 1133 785 l 1092 546 l 1011 546 l 729 -182 q 436 -399 639 -399 q 285 -349 335 -399 l 226 -290 m 329 56 l 499 56 l 438 -72 q 383 -118 418 -118 q 354 -83 354 -118 q 355 -72 354 -78 q 357 -60 356 -67 l 194 -60 q 190 -94 192 -78 q 189 -125 189 -110 q 351 -278 189 -278 q 611 -83 529 -278 l 903 667 l 976 667 l 1006 833 l 711 833 l 682 667 l 742 667 l 613 342 l 563 201 l 563 342 l 536 833 l 217 833 l 188 667 l 244 667 l 329 56 m 647 958 q 646 943 646 953 q 679 910 646 910 l 754 910 q 803 958 794 910 l 815 1026 q 817 1042 817 1032 q 783 1074 817 1074 l 708 1074 q 660 1024 668 1074 l 647 958 m 404 958 q 403 943 403 953 q 438 910 403 910 l 511 910 q 560 958 551 910 l 572 1026 q 574 1042 574 1032 q 540 1074 574 1074 l 465 1074 q 417 1024 425 1074 l 404 958 z "},"":{"ha":536,"x_min":60,"x_max":485,"o":"m 106 -337 q 61 -257 61 -315 q 63 -243 61 -249 l 60 -246 l 86 -97 q 228 4 106 -1 l 236 57 l 374 57 l 372 49 l 453 -32 l 428 -171 l 485 -228 l 468 -329 q 322 -433 447 -433 l 272 -433 q 172 -404 201 -433 l 106 -337 m 306 -93 l 325 17 l 271 17 l 263 -35 l 256 -35 q 126 -104 139 -35 l 103 -239 q 101 -257 101 -246 q 188 -312 101 -312 l 238 -312 q 347 -237 332 -312 l 357 -179 l 260 -179 l 250 -235 q 224 -253 249 -253 q 201 -237 201 -253 l 201 -235 l 224 -110 q 251 -93 225 -93 l 306 -93 z "},"":{"ha":610,"x_min":267,"x_max":900,"o":"m 438 1136 l 432 1136 l 267 1356 l 469 1356 l 485 1335 l 503 1317 l 546 1356 l 825 1356 l 818 1349 l 900 1267 l 668 1056 l 518 1056 l 438 1136 m 571 1176 l 724 1315 l 561 1315 l 494 1254 l 450 1315 l 349 1315 l 453 1176 l 571 1176 z "},"":{"ha":626,"x_min":315,"x_max":874,"o":"m 796 1356 l 792 1347 l 874 1267 q 597 1049 768 1049 q 464 1096 511 1049 l 401 1158 q 315 1356 321 1211 l 503 1356 q 502 1351 503 1353 q 501 1347 501 1350 l 528 1321 q 531 1337 531 1328 q 535 1356 532 1346 l 796 1356 m 569 1315 q 500 1228 554 1228 q 456 1283 456 1228 q 456 1298 456 1290 q 458 1315 457 1306 l 357 1315 q 513 1169 363 1169 q 732 1315 661 1169 l 569 1315 z "},"":{"ha":447,"x_min":314,"x_max":649,"o":"m 329 1290 q 418 1371 346 1371 l 493 1371 q 563 1335 549 1371 l 632 1265 q 649 1214 649 1249 q 649 1204 649 1210 q 646 1192 649 1199 l 647 1192 l 635 1124 q 549 1046 619 1046 l 475 1046 q 421 1064 439 1046 l 351 1132 q 315 1200 315 1149 l 315 1211 l 314 1210 l 329 1290 m 357 1215 q 356 1200 356 1210 q 390 1167 356 1167 l 464 1167 q 514 1215 506 1167 l 526 1283 q 528 1299 528 1289 q 493 1331 528 1331 l 418 1331 q 369 1281 378 1331 l 357 1215 z "},"":{"ha":482,"x_min":308,"x_max":693,"o":"m 310 1257 q 331 1317 315 1289 q 371 1367 347 1346 q 423 1400 394 1388 q 481 1413 451 1413 q 549 1395 519 1413 q 594 1347 578 1378 l 650 1290 l 649 1290 l 649 1292 l 654 1288 q 683 1244 672 1269 q 693 1189 693 1219 q 693 1176 693 1183 q 690 1161 693 1171 l 692 1161 q 670 1102 686 1129 q 631 1055 654 1075 q 581 1023 608 1035 q 524 1011 553 1011 q 435 1046 469 1011 l 372 1108 q 325 1157 342 1125 q 308 1229 308 1189 q 308 1243 308 1236 q 310 1257 308 1250 m 350 1251 q 349 1239 349 1244 q 349 1229 349 1235 q 374 1160 349 1188 q 439 1132 399 1132 q 524 1167 485 1132 q 571 1251 563 1201 q 572 1263 572 1257 q 572 1274 572 1268 q 547 1344 572 1317 q 481 1372 521 1372 q 397 1337 435 1372 q 350 1251 358 1301 m 385 1251 q 416 1310 390 1286 q 474 1333 442 1333 q 520 1314 503 1333 q 538 1265 538 1294 q 536 1251 538 1257 q 503 1193 529 1217 q 444 1169 476 1169 q 400 1188 417 1169 q 383 1233 383 1206 q 385 1251 383 1244 z "},"":{"ha":743,"x_min":175,"x_max":1083,"o":"m 1001 1347 l 1083 1267 l 718 1056 l 276 1056 l 196 1136 l 175 1136 l 550 1356 l 1015 1356 l 1001 1347 m 671 1315 l 561 1315 l 324 1176 l 431 1176 l 671 1315 m 863 1315 l 753 1315 l 515 1176 l 622 1176 l 863 1315 z "},"":{"ha":638,"x_min":125,"x_max":743,"o":"m 610 874 l 608 865 l 689 785 l 631 457 l 664 457 l 663 449 l 743 368 l 688 47 q 501 -121 658 -121 l 358 -121 q 247 -85 283 -121 l 183 -21 q 125 99 125 13 q 126 118 125 108 q 129 140 126 128 l 128 140 l 204 576 l 156 626 l 146 626 l 189 874 l 610 874 m 224 833 l 194 667 l 264 667 l 169 138 q 165 99 165 117 q 274 0 165 0 l 417 0 q 567 139 542 0 l 615 417 l 535 417 l 490 163 q 463 139 486 139 q 443 157 443 139 l 443 163 l 561 833 l 224 833 z "},"":{"ha":1015,"x_min":99,"x_max":1115,"o":"m 1003 457 l 1036 457 l 1035 449 l 1115 368 l 1060 47 q 874 -121 1031 -121 l 731 -121 q 619 -85 656 -121 l 556 -21 q 551 -18 553 -19 q 547 -15 550 -17 l 531 -121 l 189 -121 l 108 -40 l 99 -40 l 183 439 l 136 488 l 126 488 l 169 735 l 235 735 l 268 924 q 611 1151 310 1151 l 911 1151 q 1006 1103 983 1151 l 1072 1038 q 1097 963 1097 1013 q 1097 944 1097 951 q 1094 928 1096 936 l 1085 867 q 953 744 1063 744 l 826 744 q 746 771 772 744 l 701 815 q 692 794 694 808 l 692 793 l 681 735 l 957 735 l 956 726 l 1036 646 l 1003 457 m 415 0 l 508 528 l 611 528 l 542 138 q 538 99 538 117 q 646 0 538 0 l 789 0 q 939 139 914 0 l 988 417 l 906 417 l 861 163 q 835 139 857 139 q 815 157 815 139 l 815 163 l 908 694 l 538 694 l 571 885 q 654 951 583 951 l 676 950 q 674 938 675 943 q 674 926 674 932 q 742 865 674 865 l 868 865 q 964 958 947 865 l 974 1018 q 976 1033 975 1026 q 976 1047 976 1040 q 911 1111 976 1111 l 611 1111 q 308 917 344 1111 l 269 694 l 204 694 l 175 528 l 240 528 l 147 0 l 415 0 z "},"":{"ha":1042,"x_min":99,"x_max":1142,"o":"m 235 735 l 268 924 q 611 1151 310 1151 l 1057 1151 l 1056 1143 l 1136 1063 l 1029 457 l 1063 457 l 1061 449 l 1142 368 l 1086 47 q 899 -121 1056 -121 l 756 -121 q 644 -85 681 -121 l 581 -21 q 551 3 565 -11 l 531 -121 l 189 -121 l 108 -40 l 99 -40 l 183 439 l 136 488 l 126 488 l 169 735 l 235 735 m 204 694 l 175 528 l 240 528 l 147 0 l 415 0 l 508 528 l 592 528 l 621 694 l 538 694 l 575 906 q 617 944 581 944 l 710 944 l 567 138 q 563 99 563 117 q 671 0 563 0 l 814 0 q 965 139 940 0 l 1014 417 l 932 417 l 888 163 q 860 139 883 139 q 842 156 842 139 l 842 163 l 1008 1111 l 611 1111 q 308 917 344 1111 l 269 694 l 204 694 z "},"":{"ha":935,"x_min":90,"x_max":1110,"o":"m 401 206 l 403 206 l 364 244 l 401 206 m 650 733 q 649 728 649 731 l 714 710 q 734 701 725 706 q 753 693 743 697 l 736 711 l 726 711 l 749 828 q 661 797 668 824 l 650 733 m 513 338 q 394 404 439 365 l 394 399 l 475 318 l 451 203 q 544 242 538 204 l 554 299 l 554 297 q 556 310 556 304 q 557 318 557 315 l 557 322 l 513 338 m 100 -40 l 90 -40 l 171 407 l 392 407 l 379 419 l 326 471 q 222 672 222 547 q 226 725 222 700 l 261 925 q 604 1151 301 1151 l 607 1151 l 454 1356 l 657 1356 l 672 1335 l 690 1317 l 733 1356 l 1013 1356 l 1006 1349 l 1088 1267 l 961 1151 l 1031 1151 l 1029 1143 l 1110 1063 l 1032 631 l 843 631 q 856 615 850 624 q 868 600 863 607 l 921 547 q 985 389 985 483 q 981 338 985 360 l 940 103 q 601 -121 900 -121 q 404 -78 468 -121 l 397 -121 l 181 -121 l 100 -40 m 346 367 l 206 367 l 140 0 l 282 0 l 299 93 q 517 0 325 0 q 726 49 650 0 q 819 194 803 97 l 860 429 q 864 474 864 451 q 707 669 864 610 l 618 694 q 526 800 526 728 q 527 811 526 806 q 529 824 528 817 l 540 888 q 679 949 551 949 q 796 871 796 949 q 794 850 796 857 l 776 751 l 917 751 l 981 1111 l 839 1111 l 822 1018 q 604 1111 796 1111 q 301 917 338 1111 l 267 719 q 263 672 263 694 q 440 457 263 525 l 508 433 q 597 318 597 396 q 597 305 597 311 q 594 292 596 299 l 585 236 q 440 163 572 163 q 324 238 324 163 q 325 256 324 249 l 346 367 m 640 1176 l 758 1176 l 911 1315 l 749 1315 l 682 1254 l 638 1315 l 536 1315 l 640 1176 z "},"":{"ha":831,"x_min":110,"x_max":969,"o":"m 797 846 q 850 794 832 826 l 911 735 q 956 607 956 690 q 954 579 956 594 q 949 544 953 564 l 950 543 l 925 408 l 817 408 l 851 374 q 893 261 893 332 q 889 211 893 233 l 871 103 q 583 -121 831 -121 l 399 -121 q 243 -71 293 -121 l 183 -11 q 110 142 110 32 q 110 169 110 154 q 115 201 111 183 l 114 201 l 140 344 l 246 344 l 243 347 q 171 489 171 388 q 172 509 171 497 q 175 533 172 521 l 174 533 l 194 647 q 485 874 235 874 l 500 874 l 336 1092 l 539 1092 l 554 1071 l 572 1053 l 615 1092 l 894 1092 l 888 1085 l 969 1003 l 797 846 m 768 303 q 772 346 772 325 q 600 481 772 472 l 565 481 q 461 542 461 492 q 462 547 461 544 q 463 551 463 549 l 475 625 q 543 671 483 671 q 597 635 597 671 q 597 630 597 632 q 596 625 596 628 l 579 529 l 810 529 l 829 635 q 833 665 832 650 q 835 692 835 679 q 671 833 835 833 l 485 833 q 235 639 271 833 l 215 531 q 211 489 211 510 q 383 353 211 361 l 418 353 q 524 292 524 340 q 523 287 524 289 q 522 282 522 285 l 508 208 q 442 163 501 163 q 386 200 386 163 l 386 208 l 404 304 l 175 304 l 156 199 q 151 169 153 183 q 150 142 150 154 q 314 0 150 0 l 499 0 q 750 194 714 0 l 768 303 m 522 913 l 640 913 l 793 1051 l 631 1051 l 564 990 l 519 1051 l 418 1051 l 522 913 z "},"":{"ha":386,"x_min":50,"x_max":589,"o":"m 508 1333 l 589 1253 l 490 690 l 332 690 l 251 771 l 242 771 l 342 1342 l 510 1342 l 508 1333 m 154 279 l 322 279 l 321 271 l 401 190 l 299 -399 l 140 -399 l 60 -318 l 50 -318 l 154 279 m 99 -278 l 183 -278 l 274 239 l 189 239 l 99 -278 m 461 1301 l 376 1301 l 290 811 l 375 811 l 461 1301 z "},"":{"ha":722,"x_min":179,"x_max":861,"o":"m 189 372 l 179 372 l 228 638 q 306 807 247 744 l 279 835 l 269 835 l 297 994 q 558 1151 326 1151 q 765 1072 724 1151 l 828 1011 q 861 925 861 978 q 860 908 861 914 q 858 894 860 901 l 839 781 q 763 650 825 701 l 808 604 l 782 461 q 625 292 750 292 q 532 299 572 292 q 464 326 492 307 q 457 329 460 328 q 451 331 454 331 q 411 292 442 331 l 269 292 l 189 372 m 578 653 l 563 567 q 540 536 557 536 q 507 553 525 536 q 457 571 485 571 q 367 532 410 571 l 374 572 q 472 678 388 653 l 564 714 q 718 871 699 761 l 738 985 q 740 997 739 992 q 740 1010 740 1003 q 558 1111 740 1111 q 338 988 361 1111 l 318 875 l 418 875 l 435 967 q 510 997 440 997 q 569 972 569 997 l 569 967 l 558 907 q 514 865 553 878 l 432 838 q 268 629 300 794 l 229 413 l 310 413 q 367 451 340 451 q 383 449 375 451 q 397 443 390 446 q 540 413 444 413 q 661 553 636 413 l 679 653 l 578 653 z "},"":{"ha":743,"x_min":215,"x_max":863,"o":"m 243 689 l 364 689 l 375 754 l 360 754 l 279 835 l 269 835 l 297 994 q 558 1151 326 1151 q 768 1071 724 1151 l 829 1010 q 863 924 863 976 q 862 908 863 914 q 860 894 861 901 l 840 781 q 782 672 828 710 q 804 597 804 644 q 803 577 804 586 q 801 561 803 568 l 781 447 q 519 292 754 292 q 338 343 392 292 l 275 404 q 215 513 215 439 q 216 528 215 522 q 218 542 217 535 l 243 689 m 428 814 l 410 708 l 489 708 q 513 667 513 708 q 507 617 513 643 l 497 557 q 426 526 492 526 q 364 551 364 526 l 364 557 l 379 649 l 278 649 l 258 536 q 256 524 257 529 q 256 513 256 518 q 435 413 256 413 q 660 539 638 413 l 681 653 q 683 667 682 660 q 683 682 683 675 q 628 761 683 743 q 719 871 706 789 l 739 985 q 741 997 740 992 q 742 1008 742 1003 q 558 1111 742 1111 q 338 988 361 1111 l 318 875 l 419 875 l 436 967 q 510 997 442 997 q 569 972 569 997 l 569 967 l 558 907 q 507 814 542 814 l 428 814 z "},"":{"ha":607,"x_min":144,"x_max":694,"o":"m 614 1143 l 694 1063 l 600 528 l 654 475 l 622 292 l 235 292 l 154 372 l 144 372 l 178 564 l 246 564 l 294 838 l 246 886 l 236 886 l 265 1051 q 397 1151 376 1051 l 615 1151 l 614 1143 m 463 524 l 567 1111 l 431 1111 q 299 1011 410 1011 l 285 926 l 353 926 l 281 524 l 213 524 l 193 413 l 507 413 l 526 524 l 463 524 z "},"":{"ha":1435,"x_min":193,"x_max":1521,"o":"m 1339 1144 l 1421 1063 l 931 425 l 1207 739 l 1442 739 l 1440 731 l 1521 650 l 1486 465 l 1442 465 l 1411 292 l 1451 253 l 1419 68 l 1410 68 l 1415 63 l 1383 -121 l 1040 -121 l 960 -40 l 950 -40 l 968 68 l 896 68 l 815 149 l 806 149 l 833 300 l 510 -121 l 353 -121 l 272 -40 l 260 -40 l 515 292 l 283 292 l 203 372 l 193 372 l 226 564 l 294 564 l 343 838 l 294 886 l 285 886 l 314 1051 q 446 1151 425 1051 l 664 1151 l 663 1143 l 743 1063 l 649 528 l 676 501 l 1178 1151 l 1344 1151 l 1339 1144 m 1326 586 l 1371 586 l 1392 699 l 1224 699 l 876 306 l 856 189 l 1076 189 l 1063 111 l 1018 111 l 999 0 l 1268 0 l 1288 111 l 1243 111 l 1257 189 l 1304 189 l 1324 301 l 1276 301 l 1326 586 m 511 524 l 615 1111 l 479 1111 q 347 1011 458 1011 l 333 926 l 401 926 l 329 524 l 261 524 l 242 413 l 556 413 l 575 524 l 511 524 m 1263 1111 l 1197 1111 l 342 0 l 407 0 l 1263 1111 m 1096 301 l 975 301 l 1126 472 l 1096 301 z "},"":{"ha":1522,"x_min":204,"x_max":1560,"o":"m 1358 1144 l 1440 1063 l 1188 735 q 1256 739 1218 739 q 1465 658 1421 739 l 1526 597 q 1560 511 1560 564 q 1559 494 1560 500 q 1557 481 1558 488 l 1536 367 q 1460 238 1521 289 l 1507 192 l 1481 49 q 1324 -121 1449 -121 q 1230 -112 1271 -121 q 1161 -85 1189 -104 l 1150 -82 q 1110 -121 1140 -82 l 967 -121 l 886 -40 l 876 -40 l 925 225 q 1004 394 944 332 l 978 422 l 968 422 l 974 457 l 529 -121 l 372 -121 l 292 -40 l 279 -40 l 535 292 l 294 292 l 214 372 l 204 372 l 238 564 l 306 564 l 354 838 l 306 886 l 296 886 l 325 1051 q 457 1151 436 1051 l 675 1151 l 674 1143 l 754 1063 l 660 528 l 692 494 l 1197 1151 l 1364 1151 l 1358 1144 m 1276 240 l 1261 154 q 1239 124 1256 124 q 1204 140 1225 124 q 1156 158 1186 158 q 1064 119 1111 158 l 1071 160 q 1171 265 1085 240 l 1261 301 q 1415 458 1396 349 l 1436 572 q 1438 585 1438 579 q 1439 596 1439 590 q 1256 699 1439 699 q 1036 575 1060 699 l 1017 463 l 1117 463 l 1132 554 q 1206 585 1138 585 q 1267 560 1267 585 l 1267 554 l 1257 494 q 1211 453 1250 465 l 1129 425 q 965 217 997 382 l 926 0 l 1008 0 q 1065 39 1039 39 q 1081 36 1074 39 q 1096 31 1088 33 q 1239 0 1143 0 q 1360 140 1335 0 l 1378 240 l 1276 240 m 522 524 l 626 1111 l 490 1111 q 358 1011 469 1011 l 344 926 l 413 926 l 340 524 l 272 524 l 253 413 l 567 413 l 586 524 l 522 524 m 1282 1111 l 1217 1111 l 361 0 l 426 0 l 1282 1111 z "},"":{"ha":1454,"x_min":188,"x_max":1550,"o":"m 844 149 l 835 149 l 867 321 l 1236 739 l 1471 739 l 1469 731 l 1550 650 l 1515 465 l 1471 465 l 1440 292 l 1481 253 l 1449 68 l 1439 68 l 1444 63 l 1413 -121 l 1069 -121 l 989 -40 l 979 -40 l 997 68 l 925 68 l 844 149 m 1349 1144 l 1431 1063 l 519 -121 l 363 -121 l 282 -40 l 269 -40 l 525 292 l 490 292 q 310 343 364 292 l 247 404 q 188 513 188 439 q 188 528 188 522 q 190 542 189 535 l 215 689 l 335 689 l 346 754 l 332 754 l 251 835 l 242 835 l 269 994 q 529 1151 299 1151 q 739 1072 694 1151 l 801 1010 q 835 924 835 976 q 834 908 835 914 q 832 894 833 901 l 813 781 q 754 672 800 710 q 775 615 771 650 l 1188 1151 l 1354 1151 l 1349 1144 m 1356 586 l 1400 586 l 1421 699 l 1253 699 l 906 306 l 885 189 l 1106 189 l 1092 111 l 1047 111 l 1028 0 l 1297 0 l 1317 111 l 1272 111 l 1286 189 l 1333 189 l 1353 301 l 1306 301 l 1356 586 m 399 814 l 381 708 l 460 708 q 485 665 485 708 q 483 644 485 656 q 479 617 482 632 l 469 557 q 399 526 464 526 q 336 551 336 526 l 336 557 l 351 649 l 250 649 l 231 536 q 228 524 229 529 q 228 513 228 518 q 406 413 228 413 q 632 539 610 413 l 653 653 q 655 667 654 660 q 656 682 656 675 q 600 761 656 743 q 692 871 678 789 l 711 985 q 713 997 713 992 q 714 1008 714 1003 q 529 1111 714 1111 q 310 988 333 1111 l 290 875 l 392 875 l 408 967 q 482 997 414 997 q 542 972 542 997 l 542 967 l 531 907 q 478 814 514 814 l 399 814 m 1272 1111 l 1207 1111 l 351 0 l 417 0 l 1272 1111 m 1125 301 l 1004 301 l 1156 472 l 1125 301 z "},"":{"ha":1024,"x_min":104,"x_max":1190,"o":"m 907 1151 q 1092 1075 1049 1151 l 1154 1014 q 1190 915 1190 978 q 1190 895 1190 904 q 1188 878 1189 886 l 1042 53 l 1042 51 q 796 -121 1008 -121 l 194 -121 l 114 -40 l 104 -40 l 146 200 l 217 200 l 251 399 l 213 440 l 203 440 l 243 671 l 300 671 l 333 857 l 282 910 l 272 910 l 314 1151 l 907 1151 m 349 1111 l 321 950 l 392 950 l 335 631 l 278 631 l 251 481 l 308 481 l 251 160 l 181 160 l 153 0 l 711 0 q 921 143 896 0 l 1067 968 q 1069 985 1068 976 q 1069 1000 1069 993 q 907 1111 1069 1111 l 349 1111 m 649 631 l 603 631 l 660 950 l 758 950 q 786 921 786 950 q 786 913 786 918 q 785 904 786 908 l 661 207 q 618 160 653 160 l 519 160 l 576 481 l 622 481 l 649 631 z "},"":{"ha":768,"x_min":153,"x_max":890,"o":"m 471 793 l 515 731 l 683 885 l 700 863 l 768 794 l 890 629 l 713 467 l 835 304 l 663 149 l 581 231 l 578 228 l 526 296 l 365 147 l 283 229 l 281 226 l 153 397 l 331 558 l 208 722 l 386 883 l 400 863 l 471 793 m 758 718 l 679 825 l 500 661 l 381 825 l 263 718 l 385 556 l 206 393 l 285 286 l 463 450 l 583 286 l 701 393 l 579 556 l 758 718 z "},"":{"ha":1124,"x_min":208,"x_max":1293,"o":"m 754 796 l 774 829 l 744 829 l 754 796 m 250 1151 l 567 1151 l 799 1356 l 1089 1356 l 1090 1344 l 1169 1267 l 1183 1203 l 1068 1151 l 1214 1151 l 1213 1143 l 1293 1063 l 1253 829 l 1153 829 l 868 342 l 839 172 l 900 111 l 860 -121 l 375 -121 l 294 -40 l 285 -40 l 326 200 l 396 200 l 436 433 l 308 829 l 299 829 l 218 910 l 208 910 l 250 1151 m 700 607 l 682 714 l 613 950 l 706 950 l 733 1111 l 285 1111 l 257 950 l 314 950 l 479 436 l 431 160 l 361 160 l 333 0 l 744 0 l 772 160 l 700 160 l 749 436 l 1049 950 l 1138 950 l 1165 1111 l 839 1111 l 811 950 l 894 950 l 753 714 l 700 607 m 763 1176 l 1069 1315 l 813 1315 l 656 1176 l 763 1176 z "},"":{"ha":993,"x_min":85,"x_max":1129,"o":"m 788 1143 l 868 1063 l 842 919 l 847 919 q 1031 844 989 919 l 1094 782 q 1129 686 1129 747 q 1128 667 1129 676 q 1125 644 1128 658 l 1126 644 l 1072 338 q 818 118 1032 118 l 693 118 l 700 111 l 660 -121 l 175 -121 l 94 -40 l 85 -40 l 126 200 l 197 200 l 314 857 l 263 910 l 253 910 l 294 1151 l 789 1151 l 788 1143 m 628 879 l 640 950 l 713 950 l 740 1111 l 329 1111 l 301 950 l 372 950 l 232 160 l 161 160 l 133 0 l 544 0 l 572 160 l 500 160 l 514 239 l 733 239 q 951 429 918 239 l 1006 736 q 1008 754 1007 746 q 1008 769 1008 763 q 847 879 1008 879 l 628 879 m 543 399 l 599 718 l 697 718 q 725 689 725 718 q 725 681 725 686 q 724 672 725 676 l 683 439 q 642 399 676 399 l 543 399 z "},"":{"ha":931,"x_min":-39,"x_max":901,"o":"m 457 401 q 433 394 433 400 l 467 203 l 492 203 l 457 401 m 351 828 q 268 822 272 828 l 288 713 l 296 713 q 404 700 356 713 l 381 828 l 351 828 m 190 29 q 92 186 108 86 l 39 488 q 37 507 38 497 q 36 531 36 517 q 75 643 36 597 l 8 711 l 0 711 l -36 914 q -38 931 -37 922 q -39 954 -39 940 q 286 1151 -39 1151 q 657 1013 568 1151 l 706 964 q 771 838 757 913 l 897 115 l 896 115 q 900 92 899 104 q 901 72 901 81 q 578 -121 901 -121 q 244 -24 342 -121 l 190 29 m 147 903 l 147 907 q 267 949 147 949 q 410 903 403 949 l 458 631 q 296 672 413 672 q 76 531 76 672 q 77 513 76 522 q 79 494 78 504 l 132 194 q 493 0 168 0 q 781 157 781 0 q 776 194 781 175 l 650 917 q 286 1111 614 1111 q 1 954 1 1111 q 2 938 1 946 q 4 921 3 929 l 35 751 l 175 751 l 147 903 m 396 522 q 486 472 478 522 l 533 208 l 533 203 q 447 163 533 163 q 360 208 365 163 l 313 472 l 313 479 q 396 522 313 522 z "},"":{"ha":946,"x_min":139,"x_max":1133,"o":"m 665 586 l 669 597 l 665 603 l 665 586 m 656 785 l 657 763 l 667 822 l 633 807 l 656 785 m 218 557 l 149 626 l 139 626 l 182 874 l 293 874 l 540 1092 l 831 1092 l 832 1081 l 911 1003 l 925 939 l 779 874 l 1054 874 l 1053 865 l 1133 785 l 1092 546 l 1011 546 l 729 -182 q 436 -399 639 -399 q 285 -349 335 -399 l 226 -290 q 149 -125 149 -246 q 151 -80 149 -106 q 160 -19 153 -54 l 336 -19 l 301 15 l 293 15 l 218 557 m 329 56 l 499 56 l 438 -72 q 383 -118 418 -118 q 354 -83 354 -118 q 355 -72 354 -78 q 357 -60 356 -67 l 194 -60 q 190 -94 192 -78 q 189 -125 189 -110 q 351 -278 189 -278 q 611 -83 529 -278 l 903 667 l 976 667 l 1006 833 l 711 833 l 682 667 l 742 667 l 613 342 l 563 201 l 563 342 l 536 833 l 217 833 l 188 667 l 244 667 l 329 56 m 504 913 l 811 1051 l 554 1051 l 397 913 l 504 913 z "},"":{"ha":863,"x_min":-21,"x_max":994,"o":"m 22 -71 l 86 -71 l 250 857 l 204 904 l 194 904 l 238 1151 l 653 1151 l 651 1143 l 732 1063 l 697 874 l 719 874 q 896 797 854 869 l 958 735 q 994 636 994 699 q 994 616 994 624 q 992 600 993 608 l 894 51 q 657 -121 863 -119 q 526 -108 574 -121 l 524 -119 l 564 -160 l 522 -399 l 69 -399 l -11 -318 l -21 -318 l 22 -71 m 121 -111 l 57 -111 l 28 -278 l 407 -278 l 436 -111 l 389 -111 l 414 28 q 572 0 438 0 q 774 143 749 1 l 871 690 q 873 706 872 699 q 874 721 874 714 q 719 833 874 829 q 546 778 588 833 l 604 1111 l 272 1111 l 243 944 l 307 944 l 121 -111 m 529 611 q 571 657 535 657 q 601 624 601 657 q 601 617 601 621 q 600 611 600 614 l 526 200 q 483 160 519 160 q 454 188 454 160 q 455 194 454 190 q 456 200 456 197 l 529 611 z "},"":{"ha":908,"x_min":10,"x_max":1171,"o":"m 1094 1151 l 1089 1144 l 1171 1063 l 260 -121 l 103 -121 l 22 -40 l 10 -40 l 928 1151 l 1094 1151 m 947 1111 l 92 0 l 157 0 l 1013 1111 l 947 1111 z "},"":{"ha":963,"x_min":92,"x_max":1150,"o":"m 710 186 l 722 265 l 669 186 l 710 186 m 517 739 l 583 838 l 535 838 l 517 739 m 1069 1143 l 1150 1063 l 1113 847 l 758 318 l 924 318 l 922 310 l 1003 229 l 942 -121 l 182 -121 l 101 -40 l 92 -40 l 129 172 l 499 713 l 331 713 l 250 793 l 240 793 l 303 1151 l 626 1151 l 474 1356 l 676 1356 l 692 1335 l 710 1317 l 753 1356 l 1032 1356 l 1025 1349 l 1107 1267 l 979 1151 l 1071 1151 l 1069 1143 m 1022 1111 l 338 1111 l 289 833 l 397 833 l 419 958 l 729 958 l 683 911 l 168 160 l 140 0 l 826 0 l 875 278 l 767 278 l 744 146 l 444 146 l 488 190 l 993 944 l 1022 1111 m 660 1176 l 778 1176 l 931 1315 l 768 1315 l 701 1254 l 657 1315 l 556 1315 l 660 1176 z "},"":{"ha":829,"x_min":21,"x_max":974,"o":"m 94 -40 l 85 -40 l 126 200 l 142 200 l 88 253 l 82 250 l 21 426 l 261 563 l 313 858 l 263 910 l 253 910 l 294 1151 l 800 1151 l 799 1143 l 879 1063 l 839 829 l 756 829 l 750 800 l 814 738 l 871 569 l 692 468 l 679 407 l 894 407 l 893 399 l 974 318 l 894 -121 l 175 -121 l 94 -40 m 665 160 l 500 160 l 574 576 l 742 671 l 708 768 l 596 704 l 640 950 l 724 950 l 751 1111 l 329 1111 l 301 950 l 372 950 l 299 536 l 71 408 l 104 311 l 275 408 l 232 160 l 161 160 l 133 0 l 779 0 l 844 367 l 703 367 l 665 160 z "},"":{"ha":638,"x_min":3,"x_max":836,"o":"m 628 1151 l 626 1143 l 707 1063 l 664 817 l 694 835 l 700 819 l 776 743 l 836 576 l 624 457 l 633 457 l 632 449 l 713 368 l 657 47 q 471 -121 628 -121 l 328 -121 q 217 -85 253 -121 l 153 -21 q 94 99 94 13 q 95 118 94 108 q 99 140 96 128 l 97 140 l 113 228 l 71 271 l 65 268 l 3 443 l 167 538 l 222 854 l 174 904 l 164 904 l 207 1151 l 628 1151 m 242 1111 l 213 944 l 282 944 l 204 511 l 53 425 l 88 328 l 182 381 l 139 138 q 135 99 135 117 q 243 0 135 0 l 386 0 q 536 139 511 0 l 585 417 l 503 417 l 458 163 q 432 139 454 139 q 413 157 413 139 l 413 163 l 481 550 l 707 678 l 672 775 l 503 679 l 579 1111 l 242 1111 z "},"":{"ha":903,"x_min":72,"x_max":1019,"o":"m 181 515 l 171 515 l 233 874 l 550 874 l 386 1092 l 589 1092 l 604 1071 l 622 1053 l 665 1092 l 944 1092 l 938 1085 l 1019 1003 l 878 872 l 876 864 l 957 785 l 919 569 l 740 318 l 779 318 l 778 310 l 858 229 l 797 -121 l 163 -121 l 82 -40 l 72 -40 l 110 172 l 289 435 l 261 435 l 181 515 m 829 833 l 261 833 l 219 556 l 328 556 l 349 681 l 506 681 l 149 160 l 121 0 l 682 0 l 731 278 l 621 278 l 599 146 l 429 146 l 800 667 l 829 833 m 572 913 l 690 913 l 843 1051 l 681 1051 l 614 990 l 569 1051 l 468 1051 l 572 913 z "},"":{"ha":935,"x_min":71,"x_max":1090,"o":"m 631 733 q 629 728 629 731 l 694 710 q 715 701 706 706 q 733 693 724 697 l 717 711 l 707 711 l 729 828 q 642 797 649 824 l 631 733 m 493 338 q 375 404 419 365 l 375 399 l 456 318 l 432 203 q 525 242 518 204 l 535 299 l 535 297 q 537 310 536 304 q 538 318 538 315 l 538 322 l 493 338 m 81 -40 l 71 -40 l 151 407 l 372 407 l 360 419 l 307 471 q 203 672 203 547 q 207 725 203 700 l 242 925 q 432 1132 269 1086 l 429 1136 l 414 1136 l 663 1356 l 953 1356 l 954 1344 l 1033 1267 l 1047 1203 l 932 1151 l 1011 1151 l 1010 1143 l 1090 1063 l 1013 631 l 824 631 q 837 615 831 624 q 849 600 843 607 l 901 547 q 965 389 965 483 q 961 339 965 361 l 961 338 l 921 103 q 582 -121 881 -121 q 385 -78 449 -121 l 378 -121 l 161 -121 l 81 -40 m 326 367 l 186 367 l 121 0 l 263 0 l 279 93 q 497 0 306 0 q 707 49 631 0 q 800 194 783 97 l 840 429 q 844 474 844 451 q 688 669 844 610 l 599 694 q 507 800 507 728 q 508 811 507 806 q 510 824 508 817 l 521 888 q 660 949 532 949 q 776 871 776 949 q 775 850 776 857 l 757 751 l 897 751 l 961 1111 l 819 1111 l 803 1018 q 585 1111 776 1111 q 282 917 318 1111 l 247 719 q 243 672 243 694 q 421 457 243 525 l 489 433 q 578 318 578 396 q 577 305 578 311 q 575 292 576 299 l 565 236 q 421 163 553 163 q 304 238 304 163 q 306 256 304 249 l 326 367 m 626 1176 l 933 1315 l 676 1315 l 519 1176 l 626 1176 z "},"":{"ha":931,"x_min":171,"x_max":1168,"o":"m 913 1151 l 1089 1151 l 1088 1143 l 1168 1063 l 1090 631 l 874 631 l 851 651 l 767 171 l 826 111 l 786 -121 l 303 -121 l 222 -40 l 213 -40 l 254 200 l 325 200 l 401 631 l 261 631 l 181 711 l 171 711 l 250 1151 l 560 1151 l 407 1356 l 610 1356 l 625 1335 l 643 1317 l 686 1356 l 965 1356 l 958 1349 l 1040 1267 l 913 1151 m 699 160 l 628 160 l 768 950 l 869 950 l 833 751 l 975 751 l 1039 1111 l 285 1111 l 221 751 l 361 751 l 397 950 l 500 950 l 360 160 l 289 160 l 261 0 l 671 0 l 699 160 m 593 1176 l 711 1176 l 864 1315 l 701 1315 l 635 1254 l 590 1315 l 489 1315 l 593 1176 z "},"":{"ha":963,"x_min":72,"x_max":1131,"o":"m 690 186 l 703 265 l 650 186 l 690 186 m 497 739 l 564 838 l 515 838 l 497 739 m 1050 1143 l 1131 1063 l 1093 847 l 739 318 l 904 318 l 903 310 l 983 229 l 922 -121 l 163 -121 l 82 -40 l 72 -40 l 110 172 l 479 713 l 311 713 l 231 793 l 221 793 l 283 1151 l 456 1151 l 688 1356 l 978 1356 l 979 1344 l 1058 1267 l 1072 1203 l 957 1151 l 1051 1151 l 1050 1143 m 1003 1111 l 318 1111 l 269 833 l 378 833 l 400 958 l 710 958 l 664 911 l 149 160 l 121 0 l 807 0 l 856 278 l 747 278 l 725 146 l 425 146 l 468 190 l 974 944 l 1003 1111 m 651 1176 l 958 1315 l 701 1315 l 544 1176 l 651 1176 z "},"":{"ha":831,"x_min":110,"x_max":956,"o":"m 771 858 q 850 794 825 838 l 907 738 l 906 738 l 906 739 l 911 735 q 956 607 956 690 q 954 579 956 594 q 949 544 953 564 l 950 543 l 925 408 l 817 408 l 851 374 q 893 261 893 332 q 889 213 893 233 l 889 211 l 871 103 q 583 -121 831 -121 l 399 -121 q 243 -71 293 -121 l 183 -11 q 110 142 110 32 q 110 169 110 154 q 115 201 111 183 l 114 201 l 140 344 l 246 344 l 243 347 q 171 489 171 388 q 172 509 171 497 q 175 533 172 521 l 174 533 l 194 647 q 350 851 219 803 l 332 872 l 317 872 l 565 1092 l 856 1092 l 857 1081 l 936 1003 l 950 939 l 771 858 m 768 303 q 772 346 772 325 q 600 481 772 472 l 565 481 q 461 542 461 492 q 462 547 461 544 q 463 551 463 549 l 475 625 q 543 671 483 671 q 597 635 597 671 q 597 630 597 632 q 596 625 596 628 l 579 529 l 810 529 l 829 635 q 833 665 832 650 q 835 692 835 679 q 671 833 835 833 l 485 833 q 235 639 271 833 l 215 531 q 211 489 211 510 q 383 353 211 361 l 418 353 q 524 292 524 340 q 523 287 524 289 q 522 282 522 285 l 508 208 q 442 163 501 163 q 386 200 386 163 l 386 208 l 404 304 l 175 304 l 156 199 q 151 169 153 183 q 150 142 150 154 q 314 0 150 0 l 499 0 q 750 194 714 0 l 768 303 m 529 913 l 836 1051 l 579 1051 l 422 913 l 529 913 z "},"":{"ha":750,"x_min":138,"x_max":993,"o":"m 268 874 q 364 908 326 874 q 413 1008 401 942 l 438 1151 l 613 1151 q 733 1224 649 1224 l 810 1224 q 900 1175 875 1224 l 961 1113 l 960 1113 l 960 1114 l 965 1110 q 993 1024 993 1082 q 989 972 993 997 q 811 771 956 783 l 772 546 l 661 546 l 644 457 l 678 457 l 676 449 l 757 368 l 701 47 q 514 -121 671 -121 l 371 -121 q 260 -85 296 -121 l 196 -21 q 138 99 138 13 q 138 118 138 108 q 142 140 139 128 l 140 140 l 215 565 l 156 626 l 146 626 l 189 874 l 268 874 m 224 833 l 194 667 l 276 667 l 182 138 q 178 99 178 117 q 286 0 178 0 l 429 0 q 581 139 556 0 l 629 417 l 547 417 l 503 163 q 475 139 499 139 q 457 156 457 139 l 457 163 l 546 667 l 657 667 l 686 833 l 575 833 l 624 1111 l 472 1111 l 453 999 q 268 833 421 833 l 224 833 m 636 1088 q 634 1074 635 1081 q 633 1061 633 1068 q 713 993 633 993 l 774 993 q 710 939 763 939 l 660 939 l 651 890 l 706 890 q 868 1064 836 890 q 872 1108 872 1089 q 810 1183 872 1183 l 733 1183 q 636 1088 653 1183 z "},"":{"ha":903,"x_min":72,"x_max":974,"o":"m 876 865 l 957 785 l 919 569 l 740 318 l 779 318 l 778 310 l 858 229 l 797 -121 l 163 -121 l 82 -40 l 72 -40 l 110 172 l 289 435 l 261 435 l 181 515 l 171 515 l 233 874 l 342 874 l 589 1092 l 879 1092 l 881 1081 l 960 1003 l 974 939 l 828 874 l 878 874 l 876 865 m 829 833 l 268 833 l 219 556 l 328 556 l 349 681 l 506 681 l 149 160 l 121 0 l 682 0 l 731 278 l 621 278 l 599 146 l 429 146 l 800 667 l 829 833 m 553 913 l 860 1051 l 603 1051 l 446 913 l 553 913 z "},"":{"ha":1057,"x_min":40,"x_max":1125,"o":"m 532 150 l 542 139 l 544 157 l 535 157 l 532 150 m 50 -40 l 40 -40 l 82 201 l 189 201 l 543 1151 l 906 1151 l 906 1142 l 986 1063 l 1051 186 l 1125 113 l 1085 -121 l 918 -121 l 908 -171 l 965 -228 l 949 -329 q 803 -433 928 -433 l 753 -433 q 653 -404 682 -433 l 586 -337 q 542 -257 542 -315 l 542 -243 l 540 -246 l 567 -97 q 567 -92 567 -94 q 568 -87 568 -90 l 539 -58 l 529 -121 l 131 -121 l 50 -40 m 786 -93 l 803 0 l 969 0 l 997 161 l 939 161 l 868 1111 l 571 1111 l 217 161 l 117 161 l 89 0 l 414 0 l 442 161 l 382 161 l 425 278 l 650 278 l 650 161 l 588 161 l 560 0 l 749 0 l 743 -35 l 736 -35 q 607 -104 619 -35 l 583 -239 q 582 -257 582 -246 q 668 -312 582 -312 l 718 -312 q 828 -237 813 -312 l 838 -179 l 740 -179 l 731 -235 q 704 -253 729 -253 q 682 -237 682 -253 l 682 -235 l 704 -110 q 732 -93 706 -93 l 786 -93 m 654 417 l 476 417 l 606 769 l 654 915 l 654 769 l 654 417 z "},"":{"ha":935,"x_min":71,"x_max":1090,"o":"m 382 206 l 383 206 l 344 244 l 382 206 m 631 733 q 629 728 629 731 l 694 710 q 715 701 706 706 q 733 693 724 697 l 717 711 l 707 711 l 729 828 q 642 797 649 824 l 631 733 m 493 338 q 375 404 419 365 l 375 399 l 456 318 l 432 203 q 525 242 518 204 l 535 299 l 535 297 q 537 310 536 304 q 538 318 538 315 l 538 322 l 493 338 m 81 -40 l 71 -40 l 151 407 l 372 407 l 360 419 l 307 471 q 203 672 203 547 q 207 725 203 700 l 242 925 q 585 1151 282 1151 q 776 1110 710 1151 l 785 1151 l 1011 1151 l 1010 1143 l 1090 1063 l 1013 631 l 824 631 q 837 615 831 624 q 849 600 843 607 l 901 547 q 965 389 965 483 q 961 338 965 360 l 921 103 q 706 -108 889 -68 l 715 -118 q 738 -176 738 -140 q 738 -187 738 -183 q 735 -200 738 -193 l 711 -331 q 564 -433 692 -433 l 514 -433 q 417 -404 446 -433 l 350 -337 q 306 -256 306 -314 l 306 -242 l 304 -244 l 322 -139 l 406 -139 l 400 -133 l 390 -133 l 397 -86 l 385 -78 l 378 -121 l 161 -121 l 81 -40 m 326 367 l 186 367 l 121 0 l 263 0 l 279 93 q 456 1 301 10 l 439 -93 l 494 -93 q 515 -107 515 -93 l 515 -110 l 493 -235 q 467 -253 492 -253 q 444 -237 444 -253 l 444 -235 l 454 -179 l 357 -179 l 347 -237 q 346 -256 346 -244 q 429 -312 346 -312 l 479 -312 q 592 -239 576 -312 l 615 -104 q 617 -92 617 -100 q 513 -35 617 -35 l 506 -35 l 511 0 q 800 194 764 4 l 840 429 q 844 474 844 451 q 688 669 844 610 l 599 694 q 507 800 507 728 q 508 811 507 806 q 510 824 508 817 l 521 888 q 660 949 532 949 q 776 871 776 949 q 775 850 776 857 l 757 751 l 897 751 l 961 1111 l 819 1111 l 803 1018 q 585 1111 776 1111 q 282 917 318 1111 l 247 719 q 243 672 243 694 q 421 457 243 525 l 489 433 q 578 318 578 396 q 577 305 578 311 q 575 292 576 299 l 565 236 q 421 163 553 163 q 304 238 304 163 q 306 256 304 249 l 326 367 z "},"":{"ha":963,"x_min":72,"x_max":1131,"o":"m 690 186 l 703 265 l 650 186 l 690 186 m 497 739 l 564 838 l 515 838 l 497 739 m 606 1290 q 694 1371 622 1371 l 769 1371 q 839 1335 825 1371 l 908 1265 q 925 1214 925 1249 q 925 1204 925 1210 q 922 1192 925 1199 l 924 1192 l 915 1151 l 1051 1151 l 1050 1143 l 1131 1063 l 1093 847 l 739 318 l 904 318 l 903 310 l 983 229 l 922 -121 l 163 -121 l 82 -40 l 72 -40 l 110 172 l 479 713 l 311 713 l 231 793 l 221 793 l 283 1151 l 604 1151 q 592 1200 592 1168 l 592 1211 l 590 1210 l 606 1290 m 1003 1111 l 318 1111 l 269 833 l 378 833 l 400 958 l 710 958 l 664 911 l 149 160 l 121 0 l 807 0 l 856 278 l 747 278 l 725 146 l 425 146 l 468 190 l 974 944 l 1003 1111 m 633 1215 q 632 1200 632 1210 q 667 1167 632 1167 l 740 1167 q 790 1215 782 1167 l 803 1283 q 804 1299 804 1289 q 769 1331 804 1331 l 694 1331 q 646 1281 654 1331 l 633 1215 z "},"":{"ha":951,"x_min":103,"x_max":1058,"o":"m 946 457 l 979 457 l 978 449 l 1058 368 l 1003 47 q 817 -121 974 -121 l 769 -121 l 760 -171 l 817 -228 l 800 -329 q 654 -433 779 -433 l 604 -433 q 504 -404 533 -433 l 438 -337 q 393 -257 393 -315 l 393 -243 l 392 -246 l 414 -119 q 401 -121 407 -121 q 389 -121 396 -121 q 228 -72 276 -121 l 165 -10 q 103 111 103 25 q 103 131 103 122 q 106 149 104 140 l 194 651 q 451 874 235 874 q 569 851 525 874 l 574 874 l 925 874 l 924 865 l 1004 785 l 946 457 m 638 -93 l 654 0 l 732 0 q 882 139 857 0 l 931 417 l 849 417 l 804 163 q 776 139 800 139 q 758 156 758 139 l 758 163 l 876 833 l 608 833 l 596 767 q 451 833 575 833 q 235 643 268 833 l 146 143 q 144 126 144 135 q 143 111 143 118 q 304 0 143 0 q 485 64 421 0 q 589 0 499 0 l 600 0 l 594 -35 l 588 -35 q 458 -104 471 -35 l 435 -239 q 433 -257 433 -246 q 519 -312 433 -312 l 569 -312 q 679 -237 664 -312 l 689 -179 l 592 -179 l 582 -235 q 556 -253 581 -253 q 533 -237 533 -253 l 533 -235 l 556 -110 q 583 -93 557 -93 l 638 -93 m 504 243 q 463 204 496 204 q 433 235 433 204 q 435 250 433 244 l 501 633 q 544 674 510 674 q 575 649 575 674 q 574 644 575 646 q 574 639 574 642 l 504 243 z "},"":{"ha":831,"x_min":110,"x_max":956,"o":"m 183 -11 q 110 142 110 32 q 110 169 110 154 q 115 201 111 183 l 114 201 l 140 344 l 246 344 l 243 347 q 171 489 171 388 q 172 509 171 497 q 175 533 172 521 l 174 533 l 194 647 q 485 874 235 874 l 671 874 q 850 794 804 874 l 911 735 q 956 607 956 690 q 954 579 956 594 q 949 544 953 564 l 950 543 l 925 408 l 817 408 l 851 374 q 893 261 893 332 q 889 211 893 233 l 871 103 q 649 -117 835 -90 l 650 -118 q 672 -176 672 -140 q 672 -187 672 -183 q 669 -200 672 -193 l 646 -331 q 499 -433 626 -433 l 449 -433 q 351 -404 381 -433 l 285 -337 q 240 -256 240 -314 l 240 -242 l 239 -244 l 257 -139 l 339 -139 l 333 -133 l 324 -133 l 326 -112 q 243 -71 274 -103 l 183 -11 m 768 303 q 772 346 772 325 q 600 481 772 472 l 565 481 q 461 542 461 492 q 462 547 461 544 q 463 551 463 549 l 475 625 q 543 671 483 671 q 597 635 597 671 q 597 630 597 632 q 596 625 596 628 l 579 529 l 810 529 l 829 635 q 833 665 832 650 q 835 692 835 679 q 671 833 835 833 l 485 833 q 235 639 271 833 l 215 531 q 211 489 211 510 q 383 353 211 361 l 418 353 q 524 292 524 340 q 523 287 524 289 q 522 282 522 285 l 508 208 q 442 163 501 163 q 386 200 386 163 l 386 208 l 404 304 l 175 304 l 156 199 q 151 169 153 183 q 150 142 150 154 q 314 0 150 0 l 390 0 l 374 -93 l 429 -93 q 450 -107 450 -93 l 450 -110 l 428 -235 q 401 -253 426 -253 q 379 -237 379 -253 l 379 -235 l 389 -179 l 292 -179 l 282 -237 q 281 -256 281 -244 q 364 -312 281 -312 l 414 -312 q 526 -239 511 -312 l 550 -104 q 551 -92 551 -100 q 447 -35 551 -35 l 440 -35 l 446 0 l 499 0 q 669 49 606 0 q 750 194 733 97 l 768 303 z "},"":{"ha":885,"x_min":85,"x_max":1078,"o":"m 94 -40 l 85 -40 l 126 200 l 197 200 l 314 857 l 263 910 l 253 910 l 294 1151 l 764 1151 q 790 1158 776 1156 q 818 1161 803 1161 l 894 1161 q 985 1113 960 1161 l 1050 1047 q 1078 961 1078 1019 q 1074 910 1078 935 q 875 707 1038 707 l 778 707 l 740 743 l 681 407 l 894 407 l 893 399 l 974 318 l 894 -121 l 175 -121 l 94 -40 m 665 160 l 500 160 l 640 950 l 724 950 l 725 963 q 797 931 742 931 l 858 931 q 794 876 847 876 l 744 876 l 736 828 l 790 828 q 953 1001 921 828 q 957 1046 957 1026 q 894 1121 957 1121 l 818 1121 q 747 1090 772 1121 l 751 1111 l 329 1111 l 301 950 l 372 950 l 232 160 l 161 160 l 133 0 l 779 0 l 844 367 l 703 367 l 665 160 z "},"":{"ha":743,"x_min":94,"x_max":974,"o":"m 628 1151 l 626 1143 l 639 1131 q 714 1150 671 1150 l 790 1150 q 881 1101 856 1150 l 946 1036 q 974 950 974 1008 q 969 899 974 924 q 771 696 933 696 l 674 696 l 647 722 l 600 457 l 633 457 l 632 449 l 713 368 l 657 47 q 471 -121 628 -121 l 328 -121 q 217 -85 253 -121 l 153 -21 q 94 99 94 13 q 95 118 94 108 q 99 140 96 128 l 97 140 l 222 854 l 174 904 l 164 904 l 207 1151 l 628 1151 m 242 1111 l 213 944 l 282 944 l 139 138 q 135 99 135 117 q 243 0 135 0 l 386 0 q 536 139 511 0 l 585 417 l 503 417 l 458 163 q 432 139 454 139 q 413 157 413 139 l 413 163 l 579 1111 l 242 1111 m 617 1014 q 615 1001 615 1007 q 614 988 614 994 q 693 919 614 919 l 754 919 q 690 865 743 865 l 640 865 l 632 817 l 686 817 q 849 990 817 817 q 853 1035 853 1015 q 790 1110 853 1110 l 714 1110 q 617 1014 633 1110 z "},"":{"ha":903,"x_min":72,"x_max":957,"o":"m 526 1026 q 615 1107 543 1107 l 690 1107 q 760 1071 746 1107 l 829 1001 q 846 950 846 985 q 846 940 846 946 q 843 928 846 935 l 844 928 l 833 874 l 878 874 l 876 865 l 957 785 l 919 569 l 740 318 l 779 318 l 778 310 l 858 229 l 797 -121 l 163 -121 l 82 -40 l 72 -40 l 110 172 l 289 435 l 261 435 l 181 515 l 171 515 l 233 874 l 539 874 q 513 936 513 890 l 513 947 l 511 946 l 526 1026 m 829 833 l 268 833 l 219 556 l 328 556 l 349 681 l 506 681 l 149 160 l 121 0 l 682 0 l 731 278 l 621 278 l 599 146 l 429 146 l 800 667 l 829 833 m 554 951 q 553 936 553 946 q 588 903 553 903 l 661 903 q 711 951 703 903 l 724 1019 q 725 1035 725 1025 q 690 1067 725 1067 l 615 1067 q 567 1017 575 1067 l 554 951 z "},"":{"ha":1135,"x_min":85,"x_max":1204,"o":"m 1040 465 q 1044 461 1043 463 q 1047 457 1044 460 l 1125 457 l 1124 449 l 1204 368 l 1149 47 q 961 -121 1118 -121 l 818 -121 q 707 -85 743 -121 l 667 -44 l 654 -121 l 175 -121 l 94 -40 l 85 -40 l 126 200 l 197 200 l 314 857 l 263 910 l 253 910 l 294 1151 l 488 1151 l 719 1356 l 1010 1356 l 1011 1344 l 1090 1267 l 1104 1203 l 971 1143 q 1072 1075 1044 1126 l 1133 1015 l 1132 1015 l 1135 1014 q 1171 915 1171 978 q 1170 895 1171 904 q 1168 878 1169 886 l 1118 593 q 1040 465 1104 507 m 567 160 l 500 160 l 557 481 l 656 481 q 685 453 685 481 q 684 447 685 450 q 683 440 683 443 l 629 138 q 625 99 625 117 q 733 0 625 0 l 876 0 q 1028 139 1003 0 l 1076 417 l 994 417 l 950 163 q 922 139 946 139 q 904 156 904 139 q 905 159 904 158 q 906 163 906 160 l 951 426 q 953 442 953 435 q 954 457 954 450 q 860 556 954 540 q 997 685 978 572 l 1047 968 q 1049 985 1049 976 q 1050 1000 1050 993 q 888 1111 1050 1111 l 329 1111 l 301 950 l 372 950 l 232 160 l 161 160 l 133 0 l 539 0 l 567 160 m 583 631 l 640 950 l 739 950 q 767 921 767 950 q 767 913 767 918 q 765 904 767 908 l 724 671 q 682 631 717 631 l 583 631 m 683 1176 l 990 1315 l 733 1315 l 576 1176 l 683 1176 z "},"":{"ha":1057,"x_min":40,"x_max":1125,"o":"m 532 150 l 542 139 l 544 157 l 535 157 l 532 150 m 993 1356 l 989 1347 l 1071 1267 q 947 1101 1017 1156 l 986 1063 l 1051 186 l 1125 113 l 1085 -121 l 601 -121 l 539 -58 l 529 -121 l 131 -121 l 50 -40 l 40 -40 l 82 201 l 189 201 l 543 1151 l 606 1151 l 600 1156 q 513 1356 518 1208 l 700 1356 q 699 1351 700 1353 q 699 1347 699 1350 l 725 1321 q 728 1337 728 1328 q 732 1356 729 1346 l 993 1356 m 89 0 l 414 0 l 442 161 l 382 161 l 425 278 l 650 278 l 650 161 l 588 161 l 560 0 l 969 0 l 997 161 l 939 161 l 868 1111 l 571 1111 l 217 161 l 117 161 l 89 0 m 650 417 l 476 417 l 606 769 l 654 915 l 654 769 l 650 417 m 767 1315 q 697 1228 751 1228 q 653 1283 653 1228 q 653 1298 653 1290 q 656 1315 654 1306 l 554 1315 q 710 1169 560 1169 q 929 1315 858 1169 l 767 1315 z "},"":{"ha":829,"x_min":85,"x_max":974,"o":"m 94 -40 l 85 -40 l 126 200 l 197 200 l 314 857 l 263 910 l 253 910 l 292 1136 l 294 1151 l 308 1151 l 540 1356 l 831 1356 l 832 1344 l 911 1267 l 925 1203 l 799 1146 l 799 1142 l 879 1063 l 839 829 l 756 829 l 681 407 l 894 407 l 893 399 l 974 318 l 894 -121 l 175 -121 l 94 -40 m 665 160 l 500 160 l 640 950 l 724 950 l 751 1111 l 329 1111 l 301 950 l 372 950 l 232 160 l 161 160 l 133 0 l 779 0 l 844 367 l 703 367 l 665 160 m 504 1176 l 811 1315 l 554 1315 l 397 1176 l 504 1176 z "},"":{"ha":921,"x_min":124,"x_max":1104,"o":"m 740 828 q 682 811 683 824 l 572 203 q 633 214 631 204 l 668 407 l 893 407 l 892 399 l 972 318 l 935 103 q 501 -121 894 -121 q 258 -51 328 -121 l 200 6 q 124 154 124 56 q 124 169 124 161 q 126 189 124 179 l 125 188 l 254 924 q 417 1122 282 1071 l 406 1136 l 390 1136 l 639 1356 l 929 1356 l 931 1344 l 1010 1267 l 1024 1203 l 908 1151 l 1025 1151 l 1024 1143 l 1104 1063 l 1026 631 l 810 631 l 729 711 l 719 711 l 740 828 m 769 751 l 911 751 l 975 1111 l 832 1111 l 815 1018 q 597 1111 789 1111 q 388 1063 464 1111 q 294 917 311 1014 l 168 194 q 164 154 164 174 q 417 0 164 0 q 814 194 778 0 l 844 367 l 703 367 l 674 208 q 549 163 667 163 q 438 204 438 163 l 438 208 l 561 903 q 686 949 567 949 q 797 907 797 949 l 797 903 l 769 751 m 603 1176 l 910 1315 l 653 1315 l 496 1176 l 603 1176 z "},"":{"ha":921,"x_min":124,"x_max":1104,"o":"m 740 828 q 682 811 683 824 l 572 203 q 633 214 631 204 l 668 407 l 893 407 l 892 399 l 972 318 l 935 103 q 501 -121 894 -121 q 258 -51 328 -121 l 200 6 q 124 154 124 56 q 124 169 124 161 q 126 189 124 179 l 125 188 l 254 924 q 560 1150 292 1135 l 406 1356 l 608 1356 l 624 1335 l 642 1317 l 685 1356 l 964 1356 l 957 1349 l 1039 1267 l 911 1151 l 1025 1151 l 1024 1143 l 1104 1063 l 1026 631 l 810 631 l 729 711 l 719 711 l 740 828 m 769 751 l 911 751 l 975 1111 l 832 1111 l 815 1018 q 597 1111 789 1111 q 388 1063 464 1111 q 294 917 311 1014 l 168 194 q 164 154 164 174 q 417 0 164 0 q 814 194 778 0 l 844 367 l 703 367 l 674 208 q 549 163 667 163 q 438 204 438 163 l 438 208 l 561 903 q 686 949 567 949 q 797 907 797 949 l 797 903 l 769 751 m 592 1176 l 710 1176 l 863 1315 l 700 1315 l 633 1254 l 589 1315 l 488 1315 l 592 1176 z "},"":{"ha":1018,"x_min":85,"x_max":1204,"o":"m 646 211 l 643 200 l 731 200 l 731 204 l 654 204 l 646 211 m 874 407 l 994 407 l 993 399 l 1074 318 l 994 -121 l 669 -121 l 660 -171 l 717 -228 l 700 -329 q 554 -433 679 -433 l 504 -433 q 404 -404 433 -433 l 338 -337 q 293 -257 293 -315 l 293 -243 l 292 -246 l 314 -121 l 175 -121 l 94 -40 l 85 -40 l 126 200 l 197 200 l 314 857 l 263 910 l 253 910 l 294 1151 l 1125 1151 l 1124 1143 l 1204 1063 l 1126 631 l 914 631 l 874 407 m 538 -93 l 554 0 l 879 0 l 944 367 l 804 367 l 767 160 l 500 160 l 557 481 l 642 481 l 614 325 l 722 325 l 806 793 l 697 793 l 668 631 l 583 631 l 640 950 l 907 950 l 871 751 l 1011 751 l 1075 1111 l 329 1111 l 301 950 l 372 950 l 232 160 l 161 160 l 133 0 l 500 0 l 494 -35 l 488 -35 q 358 -104 371 -35 l 335 -239 q 333 -257 333 -246 q 419 -312 333 -312 l 469 -312 q 579 -237 564 -312 l 589 -179 l 492 -179 l 482 -235 q 456 -253 481 -253 q 433 -237 433 -253 l 433 -235 l 456 -110 q 483 -93 457 -93 l 538 -93 z "},"":{"ha":1018,"x_min":85,"x_max":1204,"o":"m 646 211 l 643 200 l 731 200 l 731 204 l 654 204 l 646 211 m 976 1151 l 1125 1151 l 1124 1143 l 1204 1063 l 1126 631 l 914 631 l 874 407 l 994 407 l 993 399 l 1074 318 l 994 -121 l 175 -121 l 94 -40 l 85 -40 l 126 200 l 197 200 l 314 857 l 263 910 l 253 910 l 294 1151 l 624 1151 l 471 1356 l 674 1356 l 689 1335 l 707 1317 l 750 1356 l 1029 1356 l 1022 1349 l 1104 1267 l 976 1151 m 557 481 l 642 481 l 614 325 l 722 325 l 806 793 l 697 793 l 668 631 l 583 631 l 640 950 l 907 950 l 871 751 l 1011 751 l 1075 1111 l 329 1111 l 301 950 l 372 950 l 232 160 l 161 160 l 133 0 l 879 0 l 944 367 l 804 367 l 767 160 l 500 160 l 557 481 m 657 1176 l 775 1176 l 928 1315 l 765 1315 l 699 1254 l 654 1315 l 553 1315 l 657 1176 z "},"":{"ha":1024,"x_min":85,"x_max":1171,"o":"m 619 1151 l 467 1356 l 669 1356 l 685 1335 l 703 1317 l 746 1356 l 1025 1356 l 1018 1349 l 1100 1267 l 965 1144 q 1072 1075 1043 1128 l 1135 1014 q 1171 915 1171 978 q 1170 895 1171 904 q 1168 878 1169 886 l 1022 51 q 776 -121 989 -121 l 175 -121 l 94 -40 l 85 -40 l 126 200 l 197 200 l 314 857 l 263 910 l 253 910 l 294 1151 l 619 1151 m 329 1111 l 301 950 l 372 950 l 232 160 l 161 160 l 133 0 l 692 0 q 901 143 876 0 l 1047 968 q 1049 985 1049 976 q 1050 1000 1050 993 q 888 1111 1050 1111 l 329 1111 m 500 160 l 640 950 l 739 950 q 767 921 767 950 q 767 913 767 918 q 765 904 767 908 l 642 207 q 599 160 633 160 l 500 160 m 653 1176 l 771 1176 l 924 1315 l 761 1315 l 694 1254 l 650 1315 l 549 1315 l 653 1176 z "},"":{"ha":1024,"x_min":85,"x_max":1171,"o":"m 888 1151 q 1072 1075 1029 1151 l 1135 1014 q 1171 915 1171 978 q 1170 895 1171 904 q 1168 878 1169 886 l 1022 53 l 1022 51 q 776 -121 989 -121 l 175 -121 l 94 -40 l 85 -40 l 126 200 l 197 200 l 232 399 l 193 440 l 183 440 l 224 671 l 281 671 l 314 857 l 263 910 l 253 910 l 294 1151 l 888 1151 m 329 1111 l 301 950 l 372 950 l 315 631 l 258 631 l 232 481 l 289 481 l 232 160 l 161 160 l 133 0 l 692 0 q 901 143 876 0 l 1047 968 q 1049 985 1049 976 q 1050 1000 1050 993 q 888 1111 1050 1111 l 329 1111 m 629 631 l 583 631 l 640 950 l 739 950 q 767 921 767 950 q 767 913 767 918 q 765 904 767 908 l 642 207 q 599 160 633 160 l 500 160 l 557 481 l 603 481 l 629 631 z "},"":{"ha":1074,"x_min":85,"x_max":1251,"o":"m 696 1056 l 828 739 l 847 847 l 788 908 l 778 908 l 807 1076 l 758 1056 l 696 1056 m 969 1151 l 1172 1151 l 1171 1143 l 1251 1063 l 1211 829 l 1139 829 l 1022 171 l 1083 111 l 1043 -121 l 743 -121 l 663 -40 l 656 -40 l 511 322 l 485 172 l 547 111 l 507 -121 l 175 -121 l 94 -40 l 85 -40 l 126 200 l 197 200 l 314 857 l 263 910 l 253 910 l 294 1151 l 468 1151 l 700 1356 l 990 1356 l 992 1344 l 1071 1267 l 1085 1203 l 969 1151 m 419 160 l 346 160 l 431 636 l 683 0 l 928 0 l 956 160 l 883 160 l 1024 950 l 1096 950 l 1124 1111 l 854 1111 l 826 950 l 908 950 l 832 522 l 585 1111 l 329 1111 l 301 950 l 372 950 l 232 160 l 161 160 l 133 0 l 392 0 l 419 160 m 664 1176 l 971 1315 l 714 1315 l 557 1176 l 664 1176 z "},"":{"ha":1074,"x_min":85,"x_max":1251,"o":"m 490 1356 l 693 1356 l 708 1335 l 726 1317 l 769 1356 l 1049 1356 l 1042 1349 l 1124 1267 l 996 1151 l 1172 1151 l 1171 1143 l 1251 1063 l 1211 829 l 1139 829 l 1022 171 l 1083 111 l 1043 -121 l 743 -121 l 663 -40 l 656 -40 l 511 322 l 485 172 l 547 111 l 507 -121 l 175 -121 l 94 -40 l 85 -40 l 126 200 l 197 200 l 314 857 l 263 910 l 253 910 l 294 1151 l 611 1151 l 615 1139 l 693 1063 l 828 739 l 847 847 l 788 908 l 778 908 l 803 1056 l 742 1056 l 661 1136 l 656 1136 l 490 1356 m 419 160 l 346 160 l 431 636 l 683 0 l 928 0 l 956 160 l 883 160 l 1024 950 l 1096 950 l 1124 1111 l 854 1111 l 826 950 l 908 950 l 832 522 l 585 1111 l 329 1111 l 301 950 l 372 950 l 232 160 l 161 160 l 133 0 l 392 0 l 419 160 m 676 1176 l 794 1176 l 947 1315 l 785 1315 l 718 1254 l 674 1315 l 572 1315 l 676 1176 z "},"":{"ha":993,"x_min":111,"x_max":1265,"o":"m 969 1096 q 1001 1060 988 1083 l 1064 999 q 1110 874 1110 953 q 1106 824 1110 846 l 1106 822 l 979 103 q 640 -121 939 -121 l 469 -121 q 246 -54 310 -121 l 190 1 q 111 151 111 49 q 115 203 111 179 l 243 928 q 393 1119 271 1067 l 378 1136 l 357 1136 l 732 1356 l 1197 1356 l 1183 1347 l 1265 1267 l 969 1096 m 985 914 q 989 958 989 936 q 754 1113 989 1113 l 585 1113 q 283 918 317 1113 l 156 194 q 151 151 151 171 q 385 0 151 0 l 556 0 q 858 194 822 0 l 985 914 m 592 206 q 500 160 583 160 q 424 197 424 160 q 424 201 424 200 q 425 206 425 203 l 549 904 q 640 950 557 950 q 717 913 717 950 q 716 908 717 910 q 715 904 715 907 l 592 206 m 804 1176 l 1044 1315 l 935 1315 l 697 1176 l 804 1176 m 613 1176 l 853 1315 l 743 1315 l 506 1176 l 613 1176 z "},"":{"ha":1135,"x_min":85,"x_max":1204,"o":"m 1040 465 q 1044 461 1043 463 q 1047 457 1044 460 l 1125 457 l 1124 449 l 1204 368 l 1149 47 q 961 -121 1118 -121 l 818 -121 q 707 -85 743 -121 l 667 -44 l 654 -121 l 175 -121 l 94 -40 l 85 -40 l 126 200 l 197 200 l 314 857 l 263 910 l 253 910 l 294 1151 l 636 1151 l 483 1356 l 686 1356 l 701 1335 l 719 1317 l 763 1356 l 1042 1356 l 1035 1349 l 1117 1267 l 978 1140 q 1072 1075 1044 1124 l 1135 1014 q 1171 915 1171 978 q 1170 895 1171 904 q 1168 878 1169 886 l 1118 594 l 1118 593 q 1040 465 1104 507 m 567 160 l 500 160 l 557 481 l 656 481 q 685 453 685 481 q 684 447 685 450 q 683 440 683 443 l 629 138 q 625 99 625 117 q 733 0 625 0 l 876 0 q 1028 139 1003 0 l 1076 417 l 994 417 l 950 163 q 922 139 946 139 q 904 156 904 139 q 905 159 904 158 q 906 163 906 160 l 951 426 q 953 442 953 435 q 954 457 954 450 q 860 556 954 540 q 997 685 978 572 l 1047 968 q 1049 985 1049 976 q 1050 1000 1050 993 q 888 1111 1050 1111 l 329 1111 l 301 950 l 372 950 l 232 160 l 161 160 l 133 0 l 539 0 l 567 160 m 583 631 l 640 950 l 739 950 q 767 921 767 950 q 767 913 767 918 q 765 904 767 908 l 724 671 q 682 631 717 631 l 583 631 m 669 1176 l 788 1176 l 940 1315 l 778 1315 l 711 1254 l 667 1315 l 565 1315 l 669 1176 z "},"":{"ha":1121,"x_min":196,"x_max":1310,"o":"m 644 200 q 746 254 735 201 l 851 856 l 846 863 l 840 829 l 758 829 l 644 200 m 653 1257 q 674 1317 658 1289 q 714 1367 690 1346 q 766 1400 738 1388 q 824 1413 794 1413 q 892 1395 863 1413 q 938 1347 921 1378 l 997 1288 q 1026 1244 1015 1269 q 1036 1189 1036 1219 q 1036 1176 1036 1183 q 1033 1161 1036 1171 l 1035 1161 q 1033 1151 1033 1157 l 1231 1151 l 1229 1143 l 1310 1063 l 1269 829 l 1192 829 l 1064 103 q 725 -121 1024 -121 l 556 -121 q 331 -54 394 -121 l 275 1 q 196 151 196 49 q 200 203 196 179 l 315 857 l 263 910 l 253 910 l 294 1151 l 671 1151 q 656 1187 660 1167 q 651 1229 651 1207 q 651 1243 651 1236 q 653 1257 651 1250 m 839 950 l 911 950 l 786 247 q 636 160 771 160 q 517 231 517 160 q 518 247 517 242 l 643 950 l 725 950 l 753 1111 l 329 1111 l 301 950 l 374 950 l 240 194 q 236 151 236 171 q 471 0 236 0 l 640 0 q 943 194 907 0 l 1076 950 l 1154 950 l 1182 1111 l 867 1111 l 839 950 m 693 1251 q 692 1239 692 1244 q 692 1229 692 1235 q 717 1160 692 1188 q 782 1132 742 1132 q 867 1167 828 1132 q 914 1251 906 1201 q 915 1263 915 1257 q 915 1274 915 1268 q 890 1344 915 1317 q 824 1372 864 1372 q 740 1337 778 1372 q 693 1251 701 1301 m 728 1251 q 759 1310 733 1286 q 817 1333 785 1333 q 863 1314 846 1333 q 881 1265 881 1294 q 879 1251 881 1257 q 846 1193 872 1217 q 788 1169 819 1169 q 743 1188 760 1169 q 726 1233 726 1206 q 728 1251 726 1244 z "}}}
